<svg xmlns="http://www.w3.org/2000/svg" xmlns:xlink="http://www.w3.org/1999/xlink" xmlns:inkscape="http://www.inkscape.org/namespaces/inkscape" version="1.1" width="384.199" height="112.202" viewBox="0 0 384.199 112.202">
<path transform="matrix(1,0,0,-1,133.011,98.543)" stroke-width=".3985" stroke-linecap="butt" stroke-miterlimit="10" stroke-linejoin="miter" fill="none" stroke="#000000" d="M-130.8205 33.80357-119.90697 67.60715-80.64664 73.06389-52.29985 44.71707-63.21338 10.9135-102.4737 5.45674Z"/>
<path transform="matrix(1,0,0,-1,133.011,98.543)" stroke-width=".3985" stroke-linecap="butt" stroke-miterlimit="10" stroke-linejoin="miter" fill="none" stroke="#000000" d="M-74.1269 90.49716-91.56017 95.95393-80.64664 73.06389-52.29985 44.71707-34.86658 39.26028-45.7801 62.15033Z"/>
<path transform="matrix(1,0,0,-1,133.011,98.543)" stroke-width=".3985" stroke-linecap="butt" stroke-dasharray=".3985,1.99255" stroke-miterlimit="10" stroke-linejoin="miter" fill="none" stroke="#000000" d="M-130.8205 33.80357-74.1269 90.49716"/>
<path transform="matrix(1,0,0,-1,133.011,98.543)" stroke-width=".3985" stroke-linecap="butt" stroke-dasharray=".3985,1.99255" stroke-miterlimit="10" stroke-linejoin="miter" fill="none" stroke="#000000" d="M-102.4737 5.45674-45.7801 62.15033"/>
<path transform="matrix(1,0,0,-1,133.011,98.543)" stroke-width=".3985" stroke-linecap="butt" stroke-miterlimit="10" stroke-linejoin="miter" fill="none" stroke="#000000" d="M-130.8205 33.80357-119.90697 67.60715-91.56017 95.95393-74.1269 90.49716-45.7801 62.15033-34.86658 39.26028-63.21338 10.9135-102.4737 5.45674Z"/>
<path transform="matrix(1,0,0,-1,133.011,98.543)" stroke-width="1.19553" stroke-linecap="butt" stroke-miterlimit="10" stroke-linejoin="miter" fill="none" stroke="#ff0000" d="M11.33855 0H29.09111"/>
<path transform="matrix(1,0,0,-1,162.10211,98.543)" stroke-width=".9564" stroke-linecap="round" stroke-linejoin="round" fill="none" stroke="#ff0000" d="M-1.91284 2.55046C-1.75343 1.59402 0 .15938 .4782 0 0-.15938-1.75343-1.59402-1.91284-2.55046"/>
<text fill="#ff0000" xml:space="preserve" transform="matrix(1 0 -0 1 0 112.202)" font-size="9.9626" font-family="CMMIB10" font-weight="bold" font-style="italic"><tspan y="-5.313" x="151.146">c</tspan></text>
<path transform="matrix(1,0,0,-1,133.011,98.543)" stroke-width=".3985" stroke-linecap="butt" stroke-miterlimit="10" stroke-linejoin="miter" fill="none" stroke="#000000" d="M10.91353 33.80357 21.82706 67.60715"/>
<path transform="matrix(.30722,-.95161,-.95161,-.30722,149.3479,47.94049)" stroke-width=".31879" stroke-linecap="round" stroke-linejoin="round" fill="none" stroke="#ff0000" d="M-1.19551 1.59401C-1.09587 .99626 0 .09961 .29886 0 0-.09961-1.09587-.99626-1.19551-1.59401"/>
<path transform="matrix(1,0,0,-1,133.011,98.543)" stroke-width=".3985" stroke-linecap="butt" stroke-miterlimit="10" stroke-linejoin="miter" fill="none" stroke="#000000" d="M21.82706 67.60715 61.08737 73.06389"/>
<path transform="matrix(.99045,-.13766,-.13766,-.99045,174.40485,28.216217)" stroke-width=".31879" stroke-linecap="round" stroke-linejoin="round" fill="none" stroke="#ff0000" d="M-1.19551 1.59401C-1.09587 .99626 0 .09961 .29886 0 0-.09961-1.09587-.99626-1.19551-1.59401"/>
<path transform="matrix(1,0,0,-1,133.011,98.543)" stroke-width=".3985" stroke-linecap="butt" stroke-miterlimit="10" stroke-linejoin="miter" fill="none" stroke="#000000" d="M61.08737 73.06389 89.43417 44.71707"/>
<path transform="matrix(.70709,.7071,.7071,-.70709,208.22016,39.60118)" stroke-width=".31879" stroke-linecap="round" stroke-linejoin="round" fill="none" stroke="#ff0000" d="M-1.19551 1.59401C-1.09587 .99626 0 .09961 .29886 0 0-.09961-1.09587-.99626-1.19551-1.59401"/>
<path transform="matrix(1,0,0,-1,133.011,98.543)" stroke-width=".3985" stroke-linecap="butt" stroke-miterlimit="10" stroke-linejoin="miter" fill="none" stroke="#000000" d="M78.52065 10.9135 89.43417 44.71707"/>
<path transform="matrix(.30722,-.95161,-.95161,-.30722,216.95503,70.83057)" stroke-width=".31879" stroke-linecap="round" stroke-linejoin="round" fill="none" stroke="#ff0000" d="M-1.19551 1.59401C-1.09587 .99626 0 .09961 .29886 0 0-.09961-1.09587-.99626-1.19551-1.59401"/>
<path transform="matrix(1,0,0,-1,133.011,98.543)" stroke-width=".3985" stroke-linecap="butt" stroke-miterlimit="10" stroke-linejoin="miter" fill="none" stroke="#000000" d="M39.26031 5.45674 78.52065 10.9135"/>
<path transform="matrix(.99045,-.13766,-.13766,-.99045,191.8381,90.36662)" stroke-width=".31879" stroke-linecap="round" stroke-linejoin="round" fill="none" stroke="#ff0000" d="M-1.19551 1.59401C-1.09587 .99626 0 .09961 .29886 0 0-.09961-1.09587-.99626-1.19551-1.59401"/>
<path transform="matrix(1,0,0,-1,133.011,98.543)" stroke-width=".3985" stroke-linecap="butt" stroke-miterlimit="10" stroke-linejoin="miter" fill="none" stroke="#000000" d="M10.91353 33.80357 39.26031 5.45674"/>
<path transform="matrix(.70709,.7071,.7071,-.70709,158.0463,78.86151)" stroke-width=".31879" stroke-linecap="round" stroke-linejoin="round" fill="none" stroke="#ff0000" d="M-1.19551 1.59401C-1.09587 .99626 0 .09961 .29886 0 0-.09961-1.09587-.99626-1.19551-1.59401"/>
<path transform="matrix(1,0,0,-1,133.011,98.543)" stroke-width=".3985" stroke-linecap="butt" stroke-miterlimit="10" stroke-linejoin="miter" fill="none" stroke="#000000" d="M50.17384 95.95393 67.60712 90.49716"/>
<path transform="matrix(.95428,.29869,.29869,-.95428,191.63698,5.2345659)" stroke-width=".31879" stroke-linecap="round" stroke-linejoin="round" fill="none" stroke="#ff0000" d="M-1.19551 1.59401C-1.09587 .99626 0 .09961 .29886 0 0-.09961-1.09587-.99626-1.19551-1.59401"/>
<path transform="matrix(1,0,0,-1,133.011,98.543)" stroke-width=".3985" stroke-linecap="butt" stroke-miterlimit="10" stroke-linejoin="miter" fill="none" stroke="#000000" d="M50.17384 95.95393 61.08737 73.06389"/>
<path transform="matrix(.43033,.9026,.9026,-.43033,188.55237,13.847282)" stroke-width=".31879" stroke-linecap="round" stroke-linejoin="round" fill="none" stroke="#ff0000" d="M-1.19551 1.59401C-1.09587 .99626 0 .09961 .29886 0 0-.09961-1.09587-.99626-1.19551-1.59401"/>
<path transform="matrix(1,0,0,-1,133.011,98.543)" stroke-width=".3985" stroke-linecap="butt" stroke-miterlimit="10" stroke-linejoin="miter" fill="none" stroke="#000000" d="M89.43417 44.71707 106.86743 39.26028"/>
<path transform="matrix(.95428,.29869,.29869,-.95428,230.89731,56.47144)" stroke-width=".31879" stroke-linecap="round" stroke-linejoin="round" fill="none" stroke="#ff0000" d="M-1.19551 1.59401C-1.09587 .99626 0 .09961 .29886 0 0-.09961-1.09587-.99626-1.19551-1.59401"/>
<path transform="matrix(1,0,0,-1,133.011,98.543)" stroke-width=".3985" stroke-linecap="butt" stroke-miterlimit="10" stroke-linejoin="miter" fill="none" stroke="#000000" d="M95.9539 62.15033 106.86743 39.26028"/>
<path transform="matrix(.43033,.9026,.9026,-.43033,234.33243,47.650899)" stroke-width=".31879" stroke-linecap="round" stroke-linejoin="round" fill="none" stroke="#ff0000" d="M-1.19551 1.59401C-1.09587 .99626 0 .09961 .29886 0 0-.09961-1.09587-.99626-1.19551-1.59401"/>
<path transform="matrix(1,0,0,-1,133.011,98.543)" stroke-width=".3985" stroke-linecap="butt" stroke-miterlimit="10" stroke-linejoin="miter" fill="none" stroke="#000000" d="M67.60712 90.49716 95.9539 62.15033"/>
<path transform="matrix(.70709,.7071,.7071,-.70709,214.73989,22.167923)" stroke-width=".31879" stroke-linecap="round" stroke-linejoin="round" fill="none" stroke="#ff0000" d="M-1.19551 1.59401C-1.09587 .99626 0 .09961 .29886 0 0-.09961-1.09587-.99626-1.19551-1.59401"/>
<path transform="matrix(1,0,0,-1,133.011,98.543)" stroke-width=".3985" stroke-linecap="butt" stroke-miterlimit="10" stroke-linejoin="miter" fill="none" stroke="#000000" d="M10.91353 33.80357 67.60712 90.49716"/>
<path transform="matrix(.7071,-.7071,-.7071,-.7071,172.45497,36.20899)" stroke-width=".31879" stroke-linecap="round" stroke-linejoin="round" fill="none" stroke="#ff0000" d="M-1.19551 1.59401C-1.09587 .99626 0 .09961 .29886 0 0-.09961-1.09587-.99626-1.19551-1.59401"/>
<path transform="matrix(1,0,0,-1,133.011,98.543)" stroke-width=".3985" stroke-linecap="butt" stroke-miterlimit="10" stroke-linejoin="miter" fill="none" stroke="#000000" d="M39.26031 5.45674 95.9539 62.15033"/>
<path transform="matrix(.7071,-.7071,-.7071,-.7071,200.80178,64.5558)" stroke-width=".31879" stroke-linecap="round" stroke-linejoin="round" fill="none" stroke="#ff0000" d="M-1.19551 1.59401C-1.09587 .99626 0 .09961 .29886 0 0-.09961-1.09587-.99626-1.19551-1.59401"/>
<path transform="matrix(1,0,0,-1,133.011,98.543)" stroke-width=".3985" stroke-linecap="butt" stroke-miterlimit="10" stroke-linejoin="miter" fill="none" stroke="#000000" d="M21.82706 67.60715 50.17384 95.95393"/>
<path transform="matrix(.7071,-.7071,-.7071,-.7071,168.96012,16.813797)" stroke-width=".31879" stroke-linecap="round" stroke-linejoin="round" fill="none" stroke="#ff0000" d="M-1.19551 1.59401C-1.09587 .99626 0 .09961 .29886 0 0-.09961-1.09587-.99626-1.19551-1.59401"/>
<path transform="matrix(1,0,0,-1,133.011,98.543)" stroke-width=".3985" stroke-linecap="butt" stroke-miterlimit="10" stroke-linejoin="miter" fill="none" stroke="#000000" d="M78.52065 10.9135 106.86743 39.26028"/>
<path transform="matrix(.7071,-.7071,-.7071,-.7071,225.6537,73.50745)" stroke-width=".31879" stroke-linecap="round" stroke-linejoin="round" fill="none" stroke="#ff0000" d="M-1.19551 1.59401C-1.09587 .99626 0 .09961 .29886 0 0-.09961-1.09587-.99626-1.19551-1.59401"/>
<path transform="matrix(1,0,0,-1,133.011,98.543)" d="M11.9098 33.80357C11.9098 34.3538 11.46376 34.79985 10.91353 34.79985 10.36328 34.79985 9.91725 34.3538 9.91725 33.80357 9.91725 33.25333 10.36328 32.8073 10.91353 32.8073 11.46376 32.8073 11.9098 33.25333 11.9098 33.80357ZM10.91353 33.80357"/>
<path transform="matrix(1,0,0,-1,133.011,98.543)" stroke-width=".3985" stroke-linecap="butt" stroke-miterlimit="10" stroke-linejoin="miter" fill="none" stroke="#000000" d="M11.9098 33.80357C11.9098 34.3538 11.46376 34.79985 10.91353 34.79985 10.36328 34.79985 9.91725 34.3538 9.91725 33.80357 9.91725 33.25333 10.36328 32.8073 10.91353 32.8073 11.46376 32.8073 11.9098 33.25333 11.9098 33.80357ZM10.91353 33.80357"/>
<path transform="matrix(1,0,0,-1,133.011,98.543)" d="M107.86371 39.26028C107.86371 39.81052 107.41768 40.25656 106.86743 40.25656 106.3172 40.25656 105.87115 39.81052 105.87115 39.26028 105.87115 38.71005 106.3172 38.264 106.86743 38.264 107.41768 38.264 107.86371 38.71005 107.86371 39.26028ZM106.86743 39.26028"/>
<path transform="matrix(1,0,0,-1,133.011,98.543)" stroke-width=".3985" stroke-linecap="butt" stroke-miterlimit="10" stroke-linejoin="miter" fill="none" stroke="#000000" d="M107.86371 39.26028C107.86371 39.81052 107.41768 40.25656 106.86743 40.25656 106.3172 40.25656 105.87115 39.81052 105.87115 39.26028 105.87115 38.71005 106.3172 38.264 106.86743 38.264 107.41768 38.264 107.86371 38.71005 107.86371 39.26028ZM106.86743 39.26028"/>
<path transform="matrix(1,0,0,-1,133.011,98.543)" stroke-width=".3985" stroke-linecap="butt" stroke-miterlimit="10" stroke-linejoin="miter" fill="none" stroke="#000000" d="M10.91353 33.80357"/>
<text xml:space="preserve" transform="matrix(1 0 -0 1 0 112.201999)" font-size="9.9626" font-family="CMMIB10" font-weight="bold" font-style="italic"><tspan y="-45.996" x="120.691">v</tspan></text>
<text xml:space="preserve" transform="matrix(1 0 -0 1 0 112.201999)" font-size="6.9738" font-family="CMR7"><tspan y="-44.501" x="126.706 133.2544 135.50693">min</tspan></text>
<path transform="matrix(1,0,0,-1,133.011,98.543)" stroke-width=".3985" stroke-linecap="butt" stroke-miterlimit="10" stroke-linejoin="miter" fill="none" stroke="#000000" d="M106.86743 39.26028"/>
<text xml:space="preserve" transform="matrix(1 0 -0 1 0 112.201999)" font-size="9.9626" font-family="CMMIB10" font-weight="bold" font-style="italic"><tspan y="-51.452" x="243.396">v</tspan></text>
<text xml:space="preserve" transform="matrix(1 0 -0 1 0 112.201999)" font-size="6.9738" font-family="CMR7"><tspan y="-49.958" x="249.411 255.9594 259.93446">max</tspan></text>
<path transform="matrix(1,0,0,-1,133.011,98.543)" stroke-width="1.19553" stroke-linecap="butt" stroke-miterlimit="10" stroke-linejoin="miter" fill="none" stroke="#ff0000" d="M153.07257 0H170.82514"/>
<path transform="matrix(1,0,0,-1,303.83613,98.543)" stroke-width=".9564" stroke-linecap="round" stroke-linejoin="round" fill="none" stroke="#ff0000" d="M-1.91284 2.55046C-1.75343 1.59402 0 .15938 .4782 0 0-.15938-1.75343-1.59402-1.91284-2.55046"/>
<text fill="#ff0000" xml:space="preserve" transform="matrix(1 0 -0 1 0 112.202)" font-size="9.9626" font-family="CMMIB10" font-weight="bold" font-style="italic"><tspan y="-5.313" x="292.878">c</tspan></text>
<path transform="matrix(1,0,0,-1,133.011,98.543)" stroke-width="1.19553" stroke-linecap="butt" stroke-miterlimit="10" stroke-linejoin="miter" fill="none" stroke="#008080" d="M153.07257 0V17.75256"/>
<path transform="matrix(0,-1,-1,-0,286.08357,80.790439)" stroke-width=".9564" stroke-linecap="round" stroke-linejoin="round" fill="none" stroke="#008080" d="M-1.91284 2.55046C-1.75343 1.59402 0 .15938 .4782 0 0-.15938-1.75343-1.59402-1.91284-2.55046"/>
<text fill="#008080" xml:space="preserve" transform="matrix(1 0 -0 1 0 112.201999)" font-size="9.9626" font-family="CMMIB10" font-weight="bold" font-style="italic"><tspan y="-20.8" x="274.643">&#x03c9;</tspan></text>
<path transform="matrix(1,0,0,-1,133.011,98.543)" stroke-width=".3985" stroke-linecap="butt" stroke-miterlimit="10" stroke-linejoin="miter" fill="none" stroke="#bfbfbf" d="M152.64756 33.80357 163.56108 67.60715 202.82141 73.06389 231.16822 44.71707 220.25469 10.9135 180.99436 5.45674Z"/>
<path transform="matrix(1,0,0,-1,133.011,98.543)" stroke-width=".3985" stroke-linecap="butt" stroke-miterlimit="10" stroke-linejoin="miter" fill="none" stroke="#bfbfbf" d="M209.34114 90.49716 191.90789 95.95393 202.82141 73.06389 231.16822 44.71707 248.60147 39.26028 237.68795 62.15033Z"/>
<path transform="matrix(1,0,0,-1,133.011,98.543)" stroke-width=".79701" stroke-linecap="butt" stroke-dasharray=".79701,1.99255" stroke-miterlimit="10" stroke-linejoin="miter" fill="none" stroke="#bfbfbf" d="M152.64756 33.80357 209.34114 90.49716"/>
<path transform="matrix(1,0,0,-1,133.011,98.543)" stroke-width=".79701" stroke-linecap="butt" stroke-dasharray=".79701,1.99255" stroke-miterlimit="10" stroke-linejoin="miter" fill="none" stroke="#bfbfbf" d="M180.99436 5.45674 237.68795 62.15033"/>
<path transform="matrix(1,0,0,-1,133.011,98.543)" stroke-width="1.19553" stroke-linecap="butt" stroke-miterlimit="10" stroke-linejoin="miter" fill="none" stroke="#000000" d="M152.64756 33.80357 163.56108 67.60715 191.90789 95.95393 209.34114 90.49716 237.68795 62.15033 248.60147 39.26028 220.25469 10.9135 180.99436 5.45674Z"/>
<path transform="matrix(1,0,0,-1,133.011,98.543)" stroke-width="1.19553" stroke-linecap="butt" stroke-miterlimit="10" stroke-linejoin="miter" fill="none" stroke="#ff0000" d="M152.64756 33.80357 163.56108 67.60715"/>
<path transform="matrix(.30722,-.95161,-.95161,-.30722,290.92893,48.41454)" stroke-width=".9564" stroke-linecap="round" stroke-linejoin="round" fill="none" stroke="#ff0000" d="M-1.91284 2.55046C-1.75343 1.59402 0 .15938 .4782 0 0-.15938-1.75343-1.59402-1.91284-2.55046"/>
<path transform="matrix(1,0,0,-1,133.011,98.543)" stroke-width="1.19553" stroke-linecap="butt" stroke-miterlimit="10" stroke-linejoin="miter" fill="none" stroke="#ff0000" d="M163.56108 67.60715 191.90789 95.95393"/>
<path transform="matrix(.7071,-.7071,-.7071,-.7071,310.34193,17.166047)" stroke-width=".9564" stroke-linecap="round" stroke-linejoin="round" fill="none" stroke="#ff0000" d="M-1.91284 2.55046C-1.75343 1.59402 0 .15938 .4782 0 0-.15938-1.75343-1.59402-1.91284-2.55046"/>
<path transform="matrix(1,0,0,-1,133.011,98.543)" stroke-width="1.19553" stroke-linecap="butt" stroke-miterlimit="10" stroke-linejoin="miter" fill="none" stroke="#ff0000" d="M191.90789 95.95393 209.34114 90.49716"/>
<path transform="matrix(.95428,.29869,.29869,-.95428,332.89564,5.0857927)" stroke-width=".9564" stroke-linecap="round" stroke-linejoin="round" fill="none" stroke="#ff0000" d="M-1.91284 2.55046C-1.75343 1.59402 0 .15938 .4782 0 0-.15938-1.75343-1.59402-1.91284-2.55046"/>
<path transform="matrix(1,0,0,-1,133.011,98.543)" stroke-width="1.19553" stroke-linecap="butt" stroke-miterlimit="10" stroke-linejoin="miter" fill="none" stroke="#ff0000" d="M209.34114 90.49716 237.68795 62.15033"/>
<path transform="matrix(.70709,.7071,.7071,-.70709,356.1217,21.815667)" stroke-width=".9564" stroke-linecap="round" stroke-linejoin="round" fill="none" stroke="#ff0000" d="M-1.91284 2.55046C-1.75343 1.59402 0 .15938 .4782 0 0-.15938-1.75343-1.59402-1.91284-2.55046"/>
<path transform="matrix(1,0,0,-1,133.011,98.543)" stroke-width="1.19553" stroke-linecap="butt" stroke-miterlimit="10" stroke-linejoin="miter" fill="none" stroke="#ff0000" d="M237.68795 62.15033 248.60147 39.26028"/>
<path transform="matrix(.43033,.9026,.9026,-.43033,375.85209,47.20126)" stroke-width=".9564" stroke-linecap="round" stroke-linejoin="round" fill="none" stroke="#ff0000" d="M-1.91284 2.55046C-1.75343 1.59402 0 .15938 .4782 0 0-.15938-1.75343-1.59402-1.91284-2.55046"/>
<path transform="matrix(1,0,0,-1,133.011,98.543)" stroke-width="1.19553" stroke-linecap="butt" stroke-miterlimit="10" stroke-linejoin="miter" fill="none" stroke="#000000" d="M248.60147 39.26028 220.25469 10.9135 180.99436 5.45674 152.64756 33.80357"/>
</svg>
