<svg xmlns="http://www.w3.org/2000/svg" xmlns:xlink="http://www.w3.org/1999/xlink" xmlns:inkscape="http://www.inkscape.org/namespaces/inkscape" version="1.1" width="463.462" height="172.576" viewBox="0 0 463.462 172.576">
<path transform="matrix(1,0,0,-1,16.803,146.388)" stroke-width=".79701" stroke-linecap="butt" stroke-miterlimit="10" stroke-linejoin="miter" fill="none" stroke="#0000ff" d="M0 0H56.69362"/>
<path transform="matrix(1,0,0,-1,43.732,146.388)" stroke-width=".3985" stroke-linecap="butt" stroke-miterlimit="10" stroke-linejoin="miter" fill="none" stroke="#8c8cff" d="M0 0H2.25423"/>
<path transform="matrix(1,0,0,-1,45.98623,146.388)" d="M-3.28764-3.58653 .29886 0-3.28764 3.58653Z" fill="#8c8cff"/>
<path transform="matrix(1,0,0,-1,45.98623,146.388)" stroke-width=".3985" stroke-linecap="butt" stroke-miterlimit="10" stroke-linejoin="miter" fill="none" stroke="#8c8cff" d="M-3.28764-3.58653 .29886 0-3.28764 3.58653Z"/>
<path transform="matrix(1,0,0,-1,16.803,146.388)" stroke-width=".79701" stroke-linecap="butt" stroke-miterlimit="10" stroke-linejoin="miter" fill="none" stroke="#0000ff" d="M0 0V113.38724"/>
<path transform="matrix(1,0,0,-1,16.803,91.11201)" stroke-width=".3985" stroke-linecap="butt" stroke-miterlimit="10" stroke-linejoin="miter" fill="none" stroke="#8c8cff" d="M0 0V2.25423"/>
<path transform="matrix(0,-1,-1,-0,16.803,88.85778)" d="M-3.28764-3.58653 .29886 0-3.28764 3.58653Z" fill="#8c8cff"/>
<path transform="matrix(0,-1,-1,-0,16.803,88.85778)" stroke-width=".3985" stroke-linecap="butt" stroke-miterlimit="10" stroke-linejoin="miter" fill="none" stroke="#8c8cff" d="M-3.28764-3.58653 .29886 0-3.28764 3.58653Z"/>
<path transform="matrix(1,0,0,-1,16.803,146.388)" stroke-width=".79701" stroke-linecap="butt" stroke-dasharray=".79701,1.99255" stroke-miterlimit="10" stroke-linejoin="miter" fill="none" stroke="#0000ff" d="M0 0 21.82672 43.65344"/>
<path transform="matrix(1,0,0,-1,27.171002,125.575008)" stroke-width=".3985" stroke-linecap="butt" stroke-dasharray=".79701,1.99255" stroke-miterlimit="10" stroke-linejoin="miter" fill="none" stroke="#8c8cff" d="M0 0 .81618 1.51578"/>
<path transform="matrix(.47403,-.88045,-.88045,-.47403,27.98718,124.05924)" d="M-3.28764-3.58653 .29886 0-3.28764 3.58653Z" fill="#8c8cff"/>
<path transform="matrix(.47403,-.88045,-.88045,-.47403,27.98718,124.05924)" stroke-width=".3985" stroke-linecap="butt" stroke-miterlimit="10" stroke-linejoin="miter" fill="none" stroke="#8c8cff" d="M-3.28764-3.58653 .29886 0-3.28764 3.58653Z"/>
<path transform="matrix(1,0,0,-1,16.803,146.388)" stroke-width=".79701" stroke-linecap="butt" stroke-miterlimit="10" stroke-linejoin="miter" fill="none" stroke="#0000ff" d="M56.69362 0 113.38724 113.38724"/>
<path transform="matrix(1,0,0,-1,101.133998,91.11201)" stroke-width=".3985" stroke-linecap="butt" stroke-miterlimit="10" stroke-linejoin="miter" fill="none" stroke="#8c8cff" d="M0 0 1.1578 2.31555"/>
<path transform="matrix(.44714,-.8944,-.8944,-.44714,102.291797,88.79647)" d="M-3.28764-3.58653 .29886 0-3.28764 3.58653Z" fill="#8c8cff"/>
<path transform="matrix(.44714,-.8944,-.8944,-.44714,102.291797,88.79647)" stroke-width=".3985" stroke-linecap="butt" stroke-miterlimit="10" stroke-linejoin="miter" fill="none" stroke="#8c8cff" d="M-3.28764-3.58653 .29886 0-3.28764 3.58653Z"/>
<path transform="matrix(1,0,0,-1,16.803,146.388)" stroke-width=".79701" stroke-linecap="butt" stroke-miterlimit="10" stroke-linejoin="miter" fill="none" stroke="#0000ff" d="M56.69362 0 248.6012 43.65344"/>
<path transform="matrix(1,0,0,-1,168.031,125.029)" stroke-width=".3985" stroke-linecap="butt" stroke-miterlimit="10" stroke-linejoin="miter" fill="none" stroke="#8c8cff" d="M0 0 2.28351 .75362"/>
<path transform="matrix(.94958,-.31339,-.31339,-.94958,170.31452,124.27538)" d="M-3.28764-3.58653 .29886 0-3.28764 3.58653Z" fill="#8c8cff"/>
<path transform="matrix(.94958,-.31339,-.31339,-.94958,170.31452,124.27538)" stroke-width=".3985" stroke-linecap="butt" stroke-miterlimit="10" stroke-linejoin="miter" fill="none" stroke="#8c8cff" d="M-3.28764-3.58653 .29886 0-3.28764 3.58653Z"/>
<path transform="matrix(1,0,0,-1,16.803,146.388)" stroke-width=".79701" stroke-linecap="butt" stroke-miterlimit="10" stroke-linejoin="miter" fill="none" stroke="#0000ff" d="M0 113.38724H113.38724"/>
<path transform="matrix(1,0,0,-1,72.077999,33.002004)" stroke-width=".3985" stroke-linecap="butt" stroke-miterlimit="10" stroke-linejoin="miter" fill="none" stroke="#8c8cff" d="M0 0H2.25423"/>
<path transform="matrix(1,0,0,-1,74.33222,33.002004)" d="M-3.28764-3.58653 .29886 0-3.28764 3.58653Z" fill="#8c8cff"/>
<path transform="matrix(1,0,0,-1,74.33222,33.002004)" stroke-width=".3985" stroke-linecap="butt" stroke-miterlimit="10" stroke-linejoin="miter" fill="none" stroke="#8c8cff" d="M-3.28764-3.58653 .29886 0-3.28764 3.58653Z"/>
<path transform="matrix(1,0,0,-1,16.803,146.388)" stroke-width=".79701" stroke-linecap="butt" stroke-miterlimit="10" stroke-linejoin="miter" fill="none" stroke="#0000ff" d="M0 113.38724 7.20284 127.79292"/>
<path transform="matrix(1,0,0,-1,19.859002,26.813002)" stroke-width=".3985" stroke-linecap="butt" stroke-miterlimit="10" stroke-linejoin="miter" fill="none" stroke="#8c8cff" d="M0 0 .81618 1.51578"/>
<path transform="matrix(.47403,-.88045,-.88045,-.47403,20.67518,25.297242)" d="M-3.28764-3.58653 .29886 0-3.28764 3.58653Z" fill="#8c8cff"/>
<path transform="matrix(.47403,-.88045,-.88045,-.47403,20.67518,25.297242)" stroke-width=".3985" stroke-linecap="butt" stroke-miterlimit="10" stroke-linejoin="miter" fill="none" stroke="#8c8cff" d="M-3.28764-3.58653 .29886 0-3.28764 3.58653Z"/>
<path transform="matrix(1,0,0,-1,16.803,146.388)" stroke-width=".79701" stroke-linecap="butt" stroke-dasharray=".79701,1.99255" stroke-miterlimit="10" stroke-linejoin="miter" fill="none" stroke="#0000ff" d="M21.82672 43.65344H248.6012"/>
<path transform="matrix(1,0,0,-1,150.59799,102.73501)" stroke-width=".3985" stroke-linecap="butt" stroke-dasharray=".79701,1.99255" stroke-miterlimit="10" stroke-linejoin="miter" fill="none" stroke="#8c8cff" d="M0 0H2.25423"/>
<path transform="matrix(1,0,0,-1,152.85222,102.73501)" d="M-3.28764-3.58653 .29886 0-3.28764 3.58653Z" fill="#8c8cff"/>
<path transform="matrix(1,0,0,-1,152.85222,102.73501)" stroke-width=".3985" stroke-linecap="butt" stroke-miterlimit="10" stroke-linejoin="miter" fill="none" stroke="#8c8cff" d="M-3.28764-3.58653 .29886 0-3.28764 3.58653Z"/>
<path transform="matrix(1,0,0,-1,16.803,146.388)" stroke-width=".79701" stroke-linecap="butt" stroke-dasharray=".79701,1.99255" stroke-miterlimit="10" stroke-linejoin="miter" fill="none" stroke="#0000ff" d="M21.82672 43.65344 7.20284 127.79292"/>
<path transform="matrix(1,0,0,-1,31.785,62.082998)" stroke-width=".3985" stroke-linecap="butt" stroke-dasharray=".79701,1.99255" stroke-miterlimit="10" stroke-linejoin="miter" fill="none" stroke="#8c8cff" d="M0 0-.75362 2.28351"/>
<path transform="matrix(-.31339,-.94958,-.94958,.31339,31.03138,59.799489)" d="M-3.28764-3.58653 .29886 0-3.28764 3.58653Z" fill="#8c8cff"/>
<path transform="matrix(-.31339,-.94958,-.94958,.31339,31.03138,59.799489)" stroke-width=".3985" stroke-linecap="butt" stroke-miterlimit="10" stroke-linejoin="miter" fill="none" stroke="#8c8cff" d="M-3.28764-3.58653 .29886 0-3.28764 3.58653Z"/>
<path transform="matrix(1,0,0,-1,16.803,146.388)" stroke-width=".79701" stroke-linecap="butt" stroke-miterlimit="10" stroke-linejoin="miter" fill="none" stroke="#0000ff" d="M113.38724 113.38724 177.2837 127.79292"/>
<path transform="matrix(1,0,0,-1,160.719,26.267004)" stroke-width=".3985" stroke-linecap="butt" stroke-miterlimit="10" stroke-linejoin="miter" fill="none" stroke="#8c8cff" d="M0 0 2.28351 .75362"/>
<path transform="matrix(.94958,-.31339,-.31339,-.94958,163.0025,25.513384)" d="M-3.28764-3.58653 .29886 0-3.28764 3.58653Z" fill="#8c8cff"/>
<path transform="matrix(.94958,-.31339,-.31339,-.94958,163.0025,25.513384)" stroke-width=".3985" stroke-linecap="butt" stroke-miterlimit="10" stroke-linejoin="miter" fill="none" stroke="#8c8cff" d="M-3.28764-3.58653 .29886 0-3.28764 3.58653Z"/>
<path transform="matrix(1,0,0,-1,16.803,146.388)" stroke-width=".79701" stroke-linecap="butt" stroke-miterlimit="10" stroke-linejoin="miter" fill="none" stroke="#0000ff" d="M7.20284 127.79292H177.2837"/>
<path transform="matrix(1,0,0,-1,107.628,18.595997)" stroke-width=".3985" stroke-linecap="butt" stroke-miterlimit="10" stroke-linejoin="miter" fill="none" stroke="#8c8cff" d="M0 0H2.25423"/>
<path transform="matrix(1,0,0,-1,109.882228,18.595997)" d="M-3.28764-3.58653 .29886 0-3.28764 3.58653Z" fill="#8c8cff"/>
<path transform="matrix(1,0,0,-1,109.882228,18.595997)" stroke-width=".3985" stroke-linecap="butt" stroke-miterlimit="10" stroke-linejoin="miter" fill="none" stroke="#8c8cff" d="M-3.28764-3.58653 .29886 0-3.28764 3.58653Z"/>
<path transform="matrix(1,0,0,-1,16.803,146.388)" stroke-width=".79701" stroke-linecap="butt" stroke-miterlimit="10" stroke-linejoin="miter" fill="none" stroke="#0000ff" d="M248.6012 43.65344 177.2837 127.79292"/>
<path transform="matrix(1,0,0,-1,229.034,59.247999)" stroke-width=".3985" stroke-linecap="butt" stroke-miterlimit="10" stroke-linejoin="miter" fill="none" stroke="#8c8cff" d="M0 0 1.1578-2.31555"/>
<path transform="matrix(.44714,.8944,.8944,-.44714,230.1918,61.563539)" d="M-3.28764-3.58653 .29886 0-3.28764 3.58653Z" fill="#8c8cff"/>
<path transform="matrix(.44714,.8944,.8944,-.44714,230.1918,61.563539)" stroke-width=".3985" stroke-linecap="butt" stroke-miterlimit="10" stroke-linejoin="miter" fill="none" stroke="#8c8cff" d="M-3.28764-3.58653 .29886 0-3.28764 3.58653Z"/>
<path transform="matrix(1,0,0,-1,16.803,146.388)" stroke-width=".3985" stroke-linecap="butt" stroke-miterlimit="10" stroke-linejoin="miter" fill="none" stroke="#ff0000" d="M0 0"/>
<text fill="#ff0000" xml:space="preserve" transform="matrix(1 0 -0 1 -.0000009536743 172.576)" font-size="9.9626" font-family="CMR10"><tspan y="-22.978" x="8.302">0</tspan></text>
<path transform="matrix(1,0,0,-1,16.803,146.388)" stroke-width=".3985" stroke-linecap="butt" stroke-miterlimit="10" stroke-linejoin="miter" fill="none" stroke="#ff0000" d="M0 113.38724"/>
<text fill="#ff0000" xml:space="preserve" transform="matrix(1 0 -0 1 -.0000009536743 172.57599)" font-size="9.9626" font-family="CMR10"><tspan y="-136.364" x="8.302">0</tspan></text>
<path transform="matrix(1,0,0,-1,16.803,146.388)" stroke-width=".3985" stroke-linecap="butt" stroke-miterlimit="10" stroke-linejoin="miter" fill="none" stroke="#ff0000" d="M21.82672 43.65344"/>
<text fill="#ff0000" xml:space="preserve" transform="matrix(1 0 -0 1 -.0000019073487 172.57599)" font-size="9.9626" font-family="CMR10"><tspan y="-66.631" x="30.128">0</tspan></text>
<path transform="matrix(1,0,0,-1,16.803,146.388)" stroke-width=".3985" stroke-linecap="butt" stroke-miterlimit="10" stroke-linejoin="miter" fill="none" stroke="#ff0000" d="M7.20284 127.79292"/>
<text fill="#ff0000" xml:space="preserve" transform="matrix(1 0 -0 1 -.0000009536743 172.57599)" font-size="9.9626" font-family="CMR10"><tspan y="-150.769" x="15.505">0</tspan></text>
<path transform="matrix(1,0,0,-1,16.803,146.388)" stroke-width=".3985" stroke-linecap="butt" stroke-miterlimit="10" stroke-linejoin="miter" fill="none" stroke="#ff0000" d="M56.69362 0"/>
<text fill="#ff0000" xml:space="preserve" transform="matrix(1 0 -0 1 0 172.576)" font-size="9.9626" font-family="CMR10"><tspan y="-16.248" x="71.005">1</tspan></text>
<path transform="matrix(1,0,0,-1,16.803,146.388)" stroke-width=".3985" stroke-linecap="butt" stroke-miterlimit="10" stroke-linejoin="miter" fill="none" stroke="#ff0000" d="M113.38724 113.38724"/>
<text fill="#ff0000" xml:space="preserve" transform="matrix(1 0 -0 1 0 172.57599)" font-size="9.9626" font-family="CMR10"><tspan y="-143.094" x="127.698">2</tspan></text>
<path transform="matrix(1,0,0,-1,16.803,146.388)" stroke-width=".3985" stroke-linecap="butt" stroke-miterlimit="10" stroke-linejoin="miter" fill="none" stroke="#ff0000" d="M177.2837 127.79292"/>
<text fill="#ff0000" xml:space="preserve" transform="matrix(1 0 -0 1 0 172.57599)" font-size="9.9626" font-family="CMR10"><tspan y="-157.499" x="191.594">3</tspan></text>
<path transform="matrix(1,0,0,-1,16.803,146.388)" stroke-width=".3985" stroke-linecap="butt" stroke-miterlimit="10" stroke-linejoin="miter" fill="none" stroke="#ff0000" d="M248.6012 43.65344"/>
<text fill="#ff0000" xml:space="preserve" transform="matrix(1 0 -0 1 0 172.576)" font-size="9.9626" font-family="CMR10"><tspan y="-59.901" x="262.91">4</tspan></text>
<path transform="matrix(1,0,0,-1,16.803,146.388)" stroke-width=".3985" stroke-linecap="butt" stroke-miterlimit="10" stroke-linejoin="miter" fill="none" stroke="#000000" d="M340.1617 37.41795 294.79716-7.94658"/>
<path transform="matrix(-.7071,.7071,.7071,.7071,335.281,130.64943)" stroke-width=".3985" stroke-linecap="butt" stroke-miterlimit="10" stroke-linejoin="miter" fill="none" stroke="#ff0000" d="M0 0H2.25423"/>
<path transform="matrix(-.7071,.7071,.7071,.7071,333.68705,132.2434)" d="M-3.28764-3.58653 .29886 0-3.28764 3.58653Z" fill="#ff0000"/>
<path transform="matrix(-.7071,.7071,.7071,.7071,333.68705,132.2434)" stroke-width=".3985" stroke-linecap="butt" stroke-miterlimit="10" stroke-linejoin="miter" fill="none" stroke="#ff0000" d="M-3.28764-3.58653 .29886 0-3.28764 3.58653Z"/>
<path transform="matrix(1,0,0,-1,16.803,146.388)" stroke-width=".3985" stroke-linecap="butt" stroke-miterlimit="10" stroke-linejoin="miter" fill="none" stroke="#000000" d="M340.1617 37.41795H385.5263"/>
<path transform="matrix(1,0,0,-1,378.225,108.97)" stroke-width=".3985" stroke-linecap="butt" stroke-miterlimit="10" stroke-linejoin="miter" fill="none" stroke="#ff0000" d="M0 0H2.25423"/>
<path transform="matrix(1,0,0,-1,380.47926,108.97)" d="M-3.28764-3.58653 .29886 0-3.28764 3.58653Z" fill="#ff0000"/>
<path transform="matrix(1,0,0,-1,380.47926,108.97)" stroke-width=".3985" stroke-linecap="butt" stroke-miterlimit="10" stroke-linejoin="miter" fill="none" stroke="#ff0000" d="M-3.28764-3.58653 .29886 0-3.28764 3.58653Z"/>
<path transform="matrix(1,0,0,-1,16.803,146.388)" stroke-width=".3985" stroke-linecap="butt" stroke-miterlimit="10" stroke-linejoin="miter" fill="none" stroke="#000000" d="M340.1617 37.41795V82.78252"/>
<path transform="matrix(0,-1,-1,-0,356.961,87.706)" stroke-width=".3985" stroke-linecap="butt" stroke-miterlimit="10" stroke-linejoin="miter" fill="none" stroke="#ff0000" d="M0 0H2.25423"/>
<path transform="matrix(0,-1,-1,-0,356.961,85.451778)" d="M-3.28764-3.58653 .29886 0-3.28764 3.58653Z" fill="#ff0000"/>
<path transform="matrix(0,-1,-1,-0,356.961,85.451778)" stroke-width=".3985" stroke-linecap="butt" stroke-miterlimit="10" stroke-linejoin="miter" fill="none" stroke="#ff0000" d="M-3.28764-3.58653 .29886 0-3.28764 3.58653Z"/>
<path transform="matrix(1,0,0,-1,16.803,146.388)" stroke-width=".3985" stroke-linecap="butt" stroke-miterlimit="10" stroke-linejoin="miter" fill="none" stroke="#000000" d="M294.79716-7.94658H430.89085"/>
<path transform="matrix(1,0,0,-1,378.225,154.334)" stroke-width=".3985" stroke-linecap="butt" stroke-miterlimit="10" stroke-linejoin="miter" fill="none" stroke="#ff0000" d="M0 0H2.25423"/>
<path transform="matrix(1,0,0,-1,380.47926,154.334)" d="M-3.28764-3.58653 .29886 0-3.28764 3.58653Z" fill="#ff0000"/>
<path transform="matrix(1,0,0,-1,380.47926,154.334)" stroke-width=".3985" stroke-linecap="butt" stroke-miterlimit="10" stroke-linejoin="miter" fill="none" stroke="#ff0000" d="M-3.28764-3.58653 .29886 0-3.28764 3.58653Z"/>
<path transform="matrix(1,0,0,-1,16.803,146.388)" stroke-width=".3985" stroke-linecap="butt" stroke-miterlimit="10" stroke-linejoin="miter" fill="none" stroke="#000000" d="M294.79716-7.94658V128.14711"/>
<path transform="matrix(0,-1,-1,-0,311.59703,87.706)" stroke-width=".3985" stroke-linecap="butt" stroke-miterlimit="10" stroke-linejoin="miter" fill="none" stroke="#ff0000" d="M0 0H2.25423"/>
<path transform="matrix(0,-1,-1,-0,311.59703,85.451778)" d="M-3.28764-3.58653 .29886 0-3.28764 3.58653Z" fill="#ff0000"/>
<path transform="matrix(0,-1,-1,-0,311.59703,85.451778)" stroke-width=".3985" stroke-linecap="butt" stroke-miterlimit="10" stroke-linejoin="miter" fill="none" stroke="#ff0000" d="M-3.28764-3.58653 .29886 0-3.28764 3.58653Z"/>
<path transform="matrix(1,0,0,-1,16.803,146.388)" stroke-width=".3985" stroke-linecap="butt" stroke-miterlimit="10" stroke-linejoin="miter" fill="none" stroke="#000000" d="M385.5263 37.41795 430.89085-7.94658"/>
<path transform="matrix(.7071,.7071,.7071,-.7071,424.00416,130.6507)" stroke-width=".3985" stroke-linecap="butt" stroke-miterlimit="10" stroke-linejoin="miter" fill="none" stroke="#ff0000" d="M0 0H2.25423"/>
<path transform="matrix(.7071,.7071,.7071,-.7071,425.5981,132.24466)" d="M-3.28764-3.58653 .29886 0-3.28764 3.58653Z" fill="#ff0000"/>
<path transform="matrix(.7071,.7071,.7071,-.7071,425.5981,132.24466)" stroke-width=".3985" stroke-linecap="butt" stroke-miterlimit="10" stroke-linejoin="miter" fill="none" stroke="#ff0000" d="M-3.28764-3.58653 .29886 0-3.28764 3.58653Z"/>
<path transform="matrix(1,0,0,-1,16.803,146.388)" stroke-width=".3985" stroke-linecap="butt" stroke-miterlimit="10" stroke-linejoin="miter" fill="none" stroke="#000000" d="M385.5263 37.41795V82.78252"/>
<path transform="matrix(0,-1,-1,-0,402.325,87.706)" stroke-width=".3985" stroke-linecap="butt" stroke-miterlimit="10" stroke-linejoin="miter" fill="none" stroke="#ff0000" d="M0 0H2.25423"/>
<path transform="matrix(0,-1,-1,-0,402.325,85.451778)" d="M-3.28764-3.58653 .29886 0-3.28764 3.58653Z" fill="#ff0000"/>
<path transform="matrix(0,-1,-1,-0,402.325,85.451778)" stroke-width=".3985" stroke-linecap="butt" stroke-miterlimit="10" stroke-linejoin="miter" fill="none" stroke="#ff0000" d="M-3.28764-3.58653 .29886 0-3.28764 3.58653Z"/>
<path transform="matrix(1,0,0,-1,16.803,146.388)" stroke-width=".3985" stroke-linecap="butt" stroke-miterlimit="10" stroke-linejoin="miter" fill="none" stroke="#000000" d="M340.1617 82.78252 294.79716 128.14711"/>
<path transform="matrix(-.7071,-.7071,-.7071,.7071,335.27919,41.927003)" stroke-width=".3985" stroke-linecap="butt" stroke-miterlimit="10" stroke-linejoin="miter" fill="none" stroke="#ff0000" d="M0 0H2.25423"/>
<path transform="matrix(-.7071,-.7071,-.7071,.7071,333.6852,40.333036)" d="M-3.28764-3.58653 .29886 0-3.28764 3.58653Z" fill="#ff0000"/>
<path transform="matrix(-.7071,-.7071,-.7071,.7071,333.6852,40.333036)" stroke-width=".3985" stroke-linecap="butt" stroke-miterlimit="10" stroke-linejoin="miter" fill="none" stroke="#ff0000" d="M-3.28764-3.58653 .29886 0-3.28764 3.58653Z"/>
<path transform="matrix(1,0,0,-1,16.803,146.388)" stroke-width=".3985" stroke-linecap="butt" stroke-miterlimit="10" stroke-linejoin="miter" fill="none" stroke="#000000" d="M340.1617 82.78252H385.5263"/>
<path transform="matrix(1,0,0,-1,378.225,63.606)" stroke-width=".3985" stroke-linecap="butt" stroke-miterlimit="10" stroke-linejoin="miter" fill="none" stroke="#ff0000" d="M0 0H2.25423"/>
<path transform="matrix(1,0,0,-1,380.47926,63.606)" d="M-3.28764-3.58653 .29886 0-3.28764 3.58653Z" fill="#ff0000"/>
<path transform="matrix(1,0,0,-1,380.47926,63.606)" stroke-width=".3985" stroke-linecap="butt" stroke-miterlimit="10" stroke-linejoin="miter" fill="none" stroke="#ff0000" d="M-3.28764-3.58653 .29886 0-3.28764 3.58653Z"/>
<path transform="matrix(1,0,0,-1,16.803,146.388)" stroke-width=".3985" stroke-linecap="butt" stroke-miterlimit="10" stroke-linejoin="miter" fill="none" stroke="#000000" d="M430.89085-7.94658V128.14711"/>
<path transform="matrix(0,-1,-1,-0,447.689,87.706)" stroke-width=".3985" stroke-linecap="butt" stroke-miterlimit="10" stroke-linejoin="miter" fill="none" stroke="#ff0000" d="M0 0H2.25423"/>
<path transform="matrix(0,-1,-1,-0,447.689,85.451778)" d="M-3.28764-3.58653 .29886 0-3.28764 3.58653Z" fill="#ff0000"/>
<path transform="matrix(0,-1,-1,-0,447.689,85.451778)" stroke-width=".3985" stroke-linecap="butt" stroke-miterlimit="10" stroke-linejoin="miter" fill="none" stroke="#ff0000" d="M-3.28764-3.58653 .29886 0-3.28764 3.58653Z"/>
<path transform="matrix(1,0,0,-1,16.803,146.388)" stroke-width=".3985" stroke-linecap="butt" stroke-miterlimit="10" stroke-linejoin="miter" fill="none" stroke="#000000" d="M385.5263 82.78252 430.89085 128.14711"/>
<path transform="matrix(.7071,-.7071,-.7071,-.7071,424.004,41.926576)" stroke-width=".3985" stroke-linecap="butt" stroke-miterlimit="10" stroke-linejoin="miter" fill="none" stroke="#ff0000" d="M0 0H2.25423"/>
<path transform="matrix(.7071,-.7071,-.7071,-.7071,425.59797,40.332609)" d="M-3.28764-3.58653 .29886 0-3.28764 3.58653Z" fill="#ff0000"/>
<path transform="matrix(.7071,-.7071,-.7071,-.7071,425.59797,40.332609)" stroke-width=".3985" stroke-linecap="butt" stroke-miterlimit="10" stroke-linejoin="miter" fill="none" stroke="#ff0000" d="M-3.28764-3.58653 .29886 0-3.28764 3.58653Z"/>
<path transform="matrix(1,0,0,-1,16.803,146.388)" stroke-width=".3985" stroke-linecap="butt" stroke-miterlimit="10" stroke-linejoin="miter" fill="none" stroke="#000000" d="M430.89085 128.14711H294.79716"/>
<path transform="matrix(-1,0,0,1,381.06,18.241999)" stroke-width=".3985" stroke-linecap="butt" stroke-miterlimit="10" stroke-linejoin="miter" fill="none" stroke="#00ff00" d="M0 0H2.25423"/>
<path transform="matrix(-1,0,0,1,378.80577,18.241999)" d="M-3.28764-3.58653 .29886 0-3.28764 3.58653Z" fill="#00ff00"/>
<path transform="matrix(-1,0,0,1,378.80577,18.241999)" stroke-width=".3985" stroke-linecap="butt" stroke-miterlimit="10" stroke-linejoin="miter" fill="none" stroke="#00ff00" d="M-3.28764-3.58653 .29886 0-3.28764 3.58653Z"/>
<path transform="matrix(1,0,0,-1,16.803,146.388)" d="M296.39118-7.94658C296.39118-7.06622 295.67753-6.35257 294.79716-6.35257 293.9168-6.35257 293.20314-7.06622 293.20314-7.94658 293.20314-8.82695 293.9168-9.5406 294.79716-9.5406 295.67753-9.5406 296.39118-8.82695 296.39118-7.94658ZM294.79716-7.94658"/>
<path transform="matrix(1,0,0,-1,16.803,146.388)" stroke-width=".3985" stroke-linecap="butt" stroke-miterlimit="10" stroke-linejoin="miter" fill="none" stroke="#000000" d="M296.39118-7.94658C296.39118-7.06622 295.67753-6.35257 294.79716-6.35257 293.9168-6.35257 293.20314-7.06622 293.20314-7.94658 293.20314-8.82695 293.9168-9.5406 294.79716-9.5406 295.67753-9.5406 296.39118-8.82695 296.39118-7.94658ZM294.79716-7.94658"/>
<path transform="matrix(1,0,0,-1,16.803,146.388)" d="M387.12034 37.41795C387.12034 38.29832 386.40666 39.01198 385.5263 39.01198 384.64595 39.01198 383.93229 38.29832 383.93229 37.41795 383.93229 36.5376 384.64595 35.82394 385.5263 35.82394 386.40666 35.82394 387.12034 36.5376 387.12034 37.41795ZM385.5263 37.41795"/>
<path transform="matrix(1,0,0,-1,16.803,146.388)" stroke-width=".3985" stroke-linecap="butt" stroke-miterlimit="10" stroke-linejoin="miter" fill="none" stroke="#000000" d="M387.12034 37.41795C387.12034 38.29832 386.40666 39.01198 385.5263 39.01198 384.64595 39.01198 383.93229 38.29832 383.93229 37.41795 383.93229 36.5376 384.64595 35.82394 385.5263 35.82394 386.40666 35.82394 387.12034 36.5376 387.12034 37.41795ZM385.5263 37.41795"/>
<path transform="matrix(1,0,0,-1,16.803,146.388)" d="M341.7557 82.78252C341.7557 83.66287 341.04209 84.37654 340.1617 84.37654 339.28135 84.37654 338.5677 83.66287 338.5677 82.78252 338.5677 81.90216 339.28135 81.18849 340.1617 81.18849 341.04209 81.18849 341.7557 81.90216 341.7557 82.78252ZM340.1617 82.78252"/>
<path transform="matrix(1,0,0,-1,16.803,146.388)" stroke-width=".3985" stroke-linecap="butt" stroke-miterlimit="10" stroke-linejoin="miter" fill="none" stroke="#000000" d="M341.7557 82.78252C341.7557 83.66287 341.04209 84.37654 340.1617 84.37654 339.28135 84.37654 338.5677 83.66287 338.5677 82.78252 338.5677 81.90216 339.28135 81.18849 340.1617 81.18849 341.04209 81.18849 341.7557 81.90216 341.7557 82.78252ZM340.1617 82.78252"/>
<path transform="matrix(1,0,0,-1,16.803,146.388)" d="M432.4849-7.94658C432.4849-7.06622 431.7712-6.35257 430.89085-6.35257 430.0105-6.35257 429.29685-7.06622 429.29685-7.94658 429.29685-8.82695 430.0105-9.5406 430.89085-9.5406 431.7712-9.5406 432.4849-8.82695 432.4849-7.94658ZM430.89085-7.94658"/>
<path transform="matrix(1,0,0,-1,16.803,146.388)" stroke-width=".3985" stroke-linecap="butt" stroke-miterlimit="10" stroke-linejoin="miter" fill="none" stroke="#000000" d="M432.4849-7.94658C432.4849-7.06622 431.7712-6.35257 430.89085-6.35257 430.0105-6.35257 429.29685-7.06622 429.29685-7.94658 429.29685-8.82695 430.0105-9.5406 430.89085-9.5406 431.7712-9.5406 432.4849-8.82695 432.4849-7.94658ZM430.89085-7.94658"/>
<path transform="matrix(1,0,0,-1,16.803,146.388)" d="M296.39118 128.14711C296.39118 129.02747 295.67753 129.74112 294.79716 129.74112 293.9168 129.74112 293.20314 129.02747 293.20314 128.14711 293.20314 127.26674 293.9168 126.55309 294.79716 126.55309 295.67753 126.55309 296.39118 127.26674 296.39118 128.14711ZM294.79716 128.14711"/>
<path transform="matrix(1,0,0,-1,16.803,146.388)" stroke-width=".3985" stroke-linecap="butt" stroke-miterlimit="10" stroke-linejoin="miter" fill="none" stroke="#000000" d="M296.39118 128.14711C296.39118 129.02747 295.67753 129.74112 294.79716 129.74112 293.9168 129.74112 293.20314 129.02747 293.20314 128.14711 293.20314 127.26674 293.9168 126.55309 294.79716 126.55309 295.67753 126.55309 296.39118 127.26674 296.39118 128.14711ZM294.79716 128.14711"/>
<path transform="matrix(1,0,0,-1,16.803,146.388)" d="M387.12034 82.78252C387.12034 83.66287 386.40666 84.37654 385.5263 84.37654 384.64595 84.37654 383.93229 83.66287 383.93229 82.78252 383.93229 81.90216 384.64595 81.18849 385.5263 81.18849 386.40666 81.18849 387.12034 81.90216 387.12034 82.78252ZM385.5263 82.78252"/>
<path transform="matrix(1,0,0,-1,16.803,146.388)" stroke-width=".3985" stroke-linecap="butt" stroke-miterlimit="10" stroke-linejoin="miter" fill="none" stroke="#000000" d="M387.12034 82.78252C387.12034 83.66287 386.40666 84.37654 385.5263 84.37654 384.64595 84.37654 383.93229 83.66287 383.93229 82.78252 383.93229 81.90216 384.64595 81.18849 385.5263 81.18849 386.40666 81.18849 387.12034 81.90216 387.12034 82.78252ZM385.5263 82.78252"/>
<path transform="matrix(1,0,0,-1,16.803,146.388)" d="M342.55274 37.41795C342.55274 38.7385 341.48225 39.80899 340.1617 39.80899 338.84117 39.80899 337.7707 38.7385 337.7707 37.41795 337.7707 36.09743 338.84117 35.02693 340.1617 35.02693 341.48225 35.02693 342.55274 36.09743 342.55274 37.41795ZM340.1617 37.41795"/>
<path transform="matrix(1,0,0,-1,16.803,146.388)" stroke-width=".3985" stroke-linecap="butt" stroke-miterlimit="10" stroke-linejoin="miter" fill="none" stroke="#ff0000" d="M342.55274 37.41795C342.55274 38.7385 341.48225 39.80899 340.1617 39.80899 338.84117 39.80899 337.7707 38.7385 337.7707 37.41795 337.7707 36.09743 338.84117 35.02693 340.1617 35.02693 341.48225 35.02693 342.55274 36.09743 342.55274 37.41795ZM340.1617 37.41795"/>
<path transform="matrix(1,0,0,-1,16.803,146.388)" d="M297.1882 128.14711C297.1882 129.46764 296.11769 130.53813 294.79716 130.53813 293.47663 130.53813 292.40614 129.46764 292.40614 128.14711 292.40614 126.82657 293.47663 125.75607 294.79716 125.75607 296.11769 125.75607 297.1882 126.82657 297.1882 128.14711ZM294.79716 128.14711"/>
<path transform="matrix(1,0,0,-1,16.803,146.388)" stroke-width=".3985" stroke-linecap="butt" stroke-miterlimit="10" stroke-linejoin="miter" fill="none" stroke="#00ff00" d="M297.1882 128.14711C297.1882 129.46764 296.11769 130.53813 294.79716 130.53813 293.47663 130.53813 292.40614 129.46764 292.40614 128.14711 292.40614 126.82657 293.47663 125.75607 294.79716 125.75607 296.11769 125.75607 297.1882 126.82657 297.1882 128.14711ZM294.79716 128.14711"/>
<path transform="matrix(1,0,0,-1,16.803,146.388)" stroke-width=".3985" stroke-linecap="butt" stroke-miterlimit="10" stroke-linejoin="miter" fill="none" stroke="#000000" d="M340.1617 37.41795"/>
<text xml:space="preserve" transform="matrix(1 0 -0 1 0 172.57599)" font-size="9.9626" font-family="CMSY10" font-style="italic"><tspan y="-52.614" x="354.47">&#x2205;</tspan></text>
<path transform="matrix(1,0,0,-1,16.803,146.388)" stroke-width=".3985" stroke-linecap="butt" stroke-miterlimit="10" stroke-linejoin="miter" fill="none" stroke="#000000" d="M294.79716-7.94658"/>
<text xml:space="preserve" transform="matrix(1 0 -0 1 .000030517579 172.576)" font-size="9.9626" font-family="CMR10"><tspan y="-8.302" x="309.106">1</tspan></text>
<path transform="matrix(1,0,0,-1,16.803,146.388)" stroke-width=".3985" stroke-linecap="butt" stroke-miterlimit="10" stroke-linejoin="miter" fill="none" stroke="#000000" d="M385.5263 37.41795"/>
<text xml:space="preserve" transform="matrix(1 0 -0 1 0 172.576)" font-size="9.9626" font-family="CMR10"><tspan y="-53.666" x="399.834">3</tspan></text>
<path transform="matrix(1,0,0,-1,16.803,146.388)" stroke-width=".3985" stroke-linecap="butt" stroke-miterlimit="10" stroke-linejoin="miter" fill="none" stroke="#000000" d="M340.1617 82.78252"/>
<text xml:space="preserve" transform="matrix(1 0 -0 1 0 172.57599)" font-size="9.9626" font-family="CMR10"><tspan y="-112.489" x="354.47">2</tspan></text>
<path transform="matrix(1,0,0,-1,16.803,146.388)" stroke-width=".3985" stroke-linecap="butt" stroke-miterlimit="10" stroke-linejoin="miter" fill="none" stroke="#000000" d="M430.89085-7.94658"/>
<text xml:space="preserve" transform="matrix(1 0 -0 1 0 172.576)" font-size="9.9626" font-family="CMR10"><tspan y="-8.302" x="442.707 447.6883">13</tspan></text>
<path transform="matrix(1,0,0,-1,16.803,146.388)" stroke-width=".3985" stroke-linecap="butt" stroke-miterlimit="10" stroke-linejoin="miter" fill="none" stroke="#000000" d="M385.5263 82.78252"/>
<text xml:space="preserve" transform="matrix(1 0 -0 1 .000030517579 172.57599)" font-size="9.9626" font-family="CMR10"><tspan y="-112.489" x="397.343 402.32429">23</tspan></text>
<path transform="matrix(1,0,0,-1,16.803,146.388)" stroke-width=".3985" stroke-linecap="butt" stroke-miterlimit="10" stroke-linejoin="miter" fill="none" stroke="#000000" d="M294.79716 128.14711"/>
<text xml:space="preserve" transform="matrix(1 0 -0 1 .000030517579 172.576)" font-size="9.9626" font-family="CMR10"><tspan y="-157.853" x="306.615 311.59629">12</tspan></text>
<path transform="matrix(1,0,0,-1,16.803,146.388)" stroke-width=".3985" stroke-linecap="butt" stroke-miterlimit="10" stroke-linejoin="miter" fill="none" stroke="#000000" d="M430.89085 128.14711"/>
<text xml:space="preserve" transform="matrix(1 0 -0 1 0 172.576)" font-size="9.9626" font-family="CMR10"><tspan y="-157.853" x="440.216 445.1973 450.1786">123</tspan></text>
</svg>
