<svg xmlns="http://www.w3.org/2000/svg" xmlns:xlink="http://www.w3.org/1999/xlink" xmlns:inkscape="http://www.inkscape.org/namespaces/inkscape" version="1.1" width="420.379" height="361.041" viewBox="0 0 420.379 361.041">
<path transform="matrix(1,0,0,-1,18.845,180.51999)" stroke-width=".3985" stroke-linecap="butt" stroke-miterlimit="10" stroke-linejoin="miter" fill="none" stroke="#ff0000" d="M46.77289-159.45563"/>
<text fill="#ff0000" xml:space="preserve" transform="matrix(1 0 -0 1 .0000038146974 361.041)" font-size="14.3462" font-family="CMR12"><tspan y="-8.302" x="62.106">1</tspan></text>
<path transform="matrix(1,0,0,-1,18.845,180.51999)" stroke-width=".3985" stroke-linecap="butt" stroke-miterlimit="10" stroke-linejoin="miter" fill="none" stroke="#ff0000" d="M170.08608-127.5645"/>
<text fill="#ff0000" xml:space="preserve" transform="matrix(1 0 -0 1 0 361.041)" font-size="14.3462" font-family="CMR12"><tspan y="-40.193" x="185.417">4</tspan></text>
<path transform="matrix(1,0,0,-1,18.845,180.51999)" stroke-width=".3985" stroke-linecap="butt" stroke-miterlimit="10" stroke-linejoin="miter" fill="none" stroke="#ff0000" d="M293.39927 53.15184"/>
<text fill="#ff0000" xml:space="preserve" transform="matrix(1 0 -0 1 0 361.041)" font-size="14.3462" font-family="CMR12"><tspan y="-220.907" x="308.729">7</tspan></text>
<path transform="matrix(1,0,0,-1,18.845,180.51999)" stroke-width=".3985" stroke-linecap="butt" stroke-miterlimit="10" stroke-linejoin="miter" fill="none" stroke="#ff0000" d="M0 0"/>
<text fill="#ff0000" xml:space="preserve" transform="matrix(1 0 -0 1 -.0000009536743 361.041)" font-size="14.3462" font-family="CMR12"><tspan y="-175.898" x="8.302">0</tspan></text>
<path transform="matrix(1,0,0,-1,18.845,180.51999)" stroke-width=".3985" stroke-linecap="butt" stroke-miterlimit="10" stroke-linejoin="miter" fill="none" stroke="#ff0000" d="M382.6937 0"/>
<text fill="#ff0000" xml:space="preserve" transform="matrix(1 0 -0 1 .000030517579 361.041)" font-size="14.3462" font-family="CMR12"><tspan y="-175.898" x="405.054">9</tspan></text>
<path transform="matrix(1,0,0,-1,18.845,180.51999)" stroke-width=".3985" stroke-linecap="butt" stroke-miterlimit="10" stroke-linejoin="miter" fill="none" stroke="#ff0000" d="M89.29443-53.15184"/>
<text fill="#ff0000" xml:space="preserve" transform="matrix(1 0 -0 1 .0000076293949 361.041)" font-size="14.3462" font-family="CMR12"><tspan y="-114.604" x="111.658">2</tspan></text>
<path transform="matrix(1,0,0,-1,18.845,180.51999)" stroke-width=".3985" stroke-linecap="butt" stroke-miterlimit="10" stroke-linejoin="miter" fill="none" stroke="#ff0000" d="M208.35619-10.63037"/>
<text fill="#ff0000" xml:space="preserve" transform="matrix(1 0 -0 1 0 361.041)" font-size="14.3462" font-family="CMR12"><tspan y="-157.125" x="230.718">5</tspan></text>
<path transform="matrix(1,0,0,-1,18.845,180.51999)" stroke-width=".3985" stroke-linecap="butt" stroke-miterlimit="10" stroke-linejoin="miter" fill="none" stroke="#ff0000" d="M127.56453-106.30376"/>
<text fill="#ff0000" xml:space="preserve" transform="matrix(1 0 -0 1 0 361.041)" font-size="14.3462" font-family="CMR12"><tspan y="-77.738" x="142.896">3</tspan></text>
<path transform="matrix(1,0,0,-1,18.845,180.51999)" stroke-width=".3985" stroke-linecap="butt" stroke-miterlimit="10" stroke-linejoin="miter" fill="none" stroke="#ff0000" d="M250.87773 159.45563"/>
<text fill="#ff0000" xml:space="preserve" transform="matrix(1 0 -0 1 0 361.04096)" font-size="14.3462" font-family="CMR12"><tspan y="-343.494" x="266.208">6</tspan></text>
<path transform="matrix(1,0,0,-1,18.845,180.51999)" stroke-width=".3985" stroke-linecap="butt" stroke-miterlimit="10" stroke-linejoin="miter" fill="none" stroke="#ff0000" d="M338.4716 127.56448"/>
<text fill="#ff0000" xml:space="preserve" transform="matrix(1 0 -0 1 0 361.041)" font-size="14.3462" font-family="CMR12"><tspan y="-311.603" x="353.801">8</tspan></text>
<path transform="matrix(1,0,0,-1,18.845,180.51999)" stroke-width=".79701" stroke-linecap="butt" stroke-miterlimit="10" stroke-linejoin="miter" fill="none" stroke="#0000ff" d="M0 0 46.77289-159.45563"/>
<path transform="matrix(1,0,0,-1,18.845,180.51999)" stroke-width=".79701" stroke-linecap="butt" stroke-dasharray=".79701,1.99255" stroke-miterlimit="10" stroke-linejoin="miter" fill="none" stroke="#0000ff" d="M0 0 89.29443-53.15184"/>
<path transform="matrix(1,0,0,-1,18.845,180.51999)" stroke-width=".79701" stroke-linecap="butt" stroke-miterlimit="10" stroke-linejoin="miter" fill="none" stroke="#0000ff" d="M0 0 127.56453-106.30376"/>
<path transform="matrix(1,0,0,-1,18.845,180.51999)" stroke-width=".79701" stroke-linecap="butt" stroke-miterlimit="10" stroke-linejoin="miter" fill="none" stroke="#0000ff" d="M0 0 208.35619-10.63037"/>
<path transform="matrix(1,0,0,-1,18.845,180.51999)" stroke-width=".79701" stroke-linecap="butt" stroke-miterlimit="10" stroke-linejoin="miter" fill="none" stroke="#0000ff" d="M0 0 250.87773 159.45563"/>
<path transform="matrix(1,0,0,-1,18.845,180.51999)" stroke-width=".79701" stroke-linecap="butt" stroke-dasharray=".79701,1.99255" stroke-miterlimit="10" stroke-linejoin="miter" fill="none" stroke="#0000ff" d="M46.77289-159.45563 89.29443-53.15184"/>
<path transform="matrix(1,0,0,-1,18.845,180.51999)" stroke-width=".79701" stroke-linecap="butt" stroke-miterlimit="10" stroke-linejoin="miter" fill="none" stroke="#0000ff" d="M46.77289-159.45563 127.56453-106.30376"/>
<path transform="matrix(1,0,0,-1,18.845,180.51999)" stroke-width=".79701" stroke-linecap="butt" stroke-miterlimit="10" stroke-linejoin="miter" fill="none" stroke="#0000ff" d="M46.77289-159.45563 170.08608-127.5645"/>
<path transform="matrix(1,0,0,-1,18.845,180.51999)" stroke-width=".79701" stroke-linecap="butt" stroke-dasharray=".79701,1.99255" stroke-miterlimit="10" stroke-linejoin="miter" fill="none" stroke="#0000ff" d="M46.77289-159.45563 382.6937 0"/>
<path transform="matrix(1,0,0,-1,18.845,180.51999)" stroke-width=".79701" stroke-linecap="butt" stroke-dasharray=".79701,1.99255" stroke-miterlimit="10" stroke-linejoin="miter" fill="none" stroke="#0000ff" d="M89.29443-53.15184 250.87773 159.45563"/>
<path transform="matrix(1,0,0,-1,18.845,180.51999)" stroke-width=".79701" stroke-linecap="butt" stroke-dasharray=".79701,1.99255" stroke-miterlimit="10" stroke-linejoin="miter" fill="none" stroke="#0000ff" d="M89.29443-53.15184 338.4716 127.56448"/>
<path transform="matrix(1,0,0,-1,18.845,180.51999)" stroke-width=".79701" stroke-linecap="butt" stroke-dasharray=".79701,1.99255" stroke-miterlimit="10" stroke-linejoin="miter" fill="none" stroke="#0000ff" d="M89.29443-53.15184 382.6937 0"/>
<path transform="matrix(1,0,0,-1,18.845,180.51999)" stroke-width=".79701" stroke-linecap="butt" stroke-miterlimit="10" stroke-linejoin="miter" fill="none" stroke="#0000ff" d="M127.56453-106.30376 170.08608-127.5645"/>
<path transform="matrix(1,0,0,-1,18.845,180.51999)" stroke-width=".79701" stroke-linecap="butt" stroke-miterlimit="10" stroke-linejoin="miter" fill="none" stroke="#0000ff" d="M127.56453-106.30376 208.35619-10.63037"/>
<path transform="matrix(1,0,0,-1,18.845,180.51999)" stroke-width=".79701" stroke-linecap="butt" stroke-miterlimit="10" stroke-linejoin="miter" fill="none" stroke="#0000ff" d="M170.08608-127.5645 208.35619-10.63037"/>
<path transform="matrix(1,0,0,-1,18.845,180.51999)" stroke-width=".79701" stroke-linecap="butt" stroke-miterlimit="10" stroke-linejoin="miter" fill="none" stroke="#0000ff" d="M170.08608-127.5645 382.6937 0"/>
<path transform="matrix(1,0,0,-1,18.845,180.51999)" stroke-width=".79701" stroke-linecap="butt" stroke-miterlimit="10" stroke-linejoin="miter" fill="none" stroke="#0000ff" d="M208.35619-10.63037 250.87773 159.45563"/>
<path transform="matrix(1,0,0,-1,18.845,180.51999)" stroke-width=".79701" stroke-linecap="butt" stroke-miterlimit="10" stroke-linejoin="miter" fill="none" stroke="#0000ff" d="M208.35619-10.63037 293.39927 53.15184"/>
<path transform="matrix(1,0,0,-1,18.845,180.51999)" stroke-width=".79701" stroke-linecap="butt" stroke-miterlimit="10" stroke-linejoin="miter" fill="none" stroke="#0000ff" d="M208.35619-10.63037 382.6937 0"/>
<path transform="matrix(1,0,0,-1,18.845,180.51999)" stroke-width=".79701" stroke-linecap="butt" stroke-miterlimit="10" stroke-linejoin="miter" fill="none" stroke="#0000ff" d="M250.87773 159.45563 293.39927 53.15184"/>
<path transform="matrix(1,0,0,-1,18.845,180.51999)" stroke-width=".79701" stroke-linecap="butt" stroke-miterlimit="10" stroke-linejoin="miter" fill="none" stroke="#0000ff" d="M250.87773 159.45563 338.4716 127.56448"/>
<path transform="matrix(1,0,0,-1,18.845,180.51999)" stroke-width=".79701" stroke-linecap="butt" stroke-miterlimit="10" stroke-linejoin="miter" fill="none" stroke="#0000ff" d="M293.39927 53.15184 338.4716 127.56448"/>
<path transform="matrix(1,0,0,-1,18.845,180.51999)" stroke-width=".79701" stroke-linecap="butt" stroke-miterlimit="10" stroke-linejoin="miter" fill="none" stroke="#0000ff" d="M293.39927 53.15184 382.6937 0"/>
<path transform="matrix(1,0,0,-1,18.845,180.51999)" stroke-width=".79701" stroke-linecap="butt" stroke-miterlimit="10" stroke-linejoin="miter" fill="none" stroke="#0000ff" d="M338.4716 127.56448 382.6937 0"/>
</svg>
