<svg xmlns="http://www.w3.org/2000/svg" xmlns:xlink="http://www.w3.org/1999/xlink" xmlns:inkscape="http://www.inkscape.org/namespaces/inkscape" version="1.1" width="281.431" height="144.793" viewBox="0 0 281.431 144.793">
<path transform="matrix(1,0,0,-1,40.246,136.29199)" d="M169.23046 43.65344 200.62427 32.74007 235.80751 63.42033" fill="#ffe6e6"/>
<path transform="matrix(1,0,0,-1,40.246,136.29199)" stroke-width=".3985" stroke-linecap="butt" stroke-miterlimit="10" stroke-linejoin="miter" fill="none" stroke="#ffffff" d="M169.23046 43.65344 200.62427 32.74007 235.80751 63.42033"/>
<path transform="matrix(1,0,0,-1,40.246,136.29199)" stroke-width=".79701" stroke-linecap="butt" stroke-dasharray=".79701,1.99255" stroke-miterlimit="10" stroke-linejoin="miter" fill="none" stroke="#ff0000" d="M169.23046 43.65344 200.62427 32.74007"/>
<path transform="matrix(1,0,0,-1,40.246,136.29199)" stroke-width=".79701" stroke-linecap="butt" stroke-dasharray=".79701,1.99255" stroke-miterlimit="10" stroke-linejoin="miter" fill="none" stroke="#ff0000" d="M169.23046 43.65344 235.80751 63.42033"/>
<path transform="matrix(1,0,0,-1,40.246,136.29199)" stroke-width=".79701" stroke-linecap="butt" stroke-miterlimit="10" stroke-linejoin="miter" fill="none" stroke="#ff0000" d="M200.62427 32.74007 235.80751 63.42033"/>
<path transform="matrix(1,0,0,-1,40.246,136.29199)" stroke-width=".79701" stroke-linecap="butt" stroke-miterlimit="10" stroke-linejoin="miter" fill="none" stroke="#0000ff" d="M0 0H56.69362"/>
<path transform="matrix(1,0,0,-1,67.174999,136.29199)" stroke-width=".3985" stroke-linecap="butt" stroke-miterlimit="10" stroke-linejoin="miter" fill="none" stroke="#8c8cff" d="M0 0H2.25423"/>
<path transform="matrix(1,0,0,-1,69.42922,136.29199)" d="M-3.28764-3.58653 .29886 0-3.28764 3.58653Z" fill="#8c8cff"/>
<path transform="matrix(1,0,0,-1,69.42922,136.29199)" stroke-width=".3985" stroke-linecap="butt" stroke-miterlimit="10" stroke-linejoin="miter" fill="none" stroke="#8c8cff" d="M-3.28764-3.58653 .29886 0-3.28764 3.58653Z"/>
<path transform="matrix(1,0,0,-1,40.246,136.29199)" stroke-width=".79701" stroke-linecap="butt" stroke-miterlimit="10" stroke-linejoin="miter" fill="none" stroke="#0000ff" d="M0 0V113.38724"/>
<path transform="matrix(1,0,0,-1,40.246,81.01599)" stroke-width=".3985" stroke-linecap="butt" stroke-miterlimit="10" stroke-linejoin="miter" fill="none" stroke="#8c8cff" d="M0 0V2.25423"/>
<path transform="matrix(0,-1,-1,-0,40.246,78.761768)" d="M-3.28764-3.58653 .29886 0-3.28764 3.58653Z" fill="#8c8cff"/>
<path transform="matrix(0,-1,-1,-0,40.246,78.761768)" stroke-width=".3985" stroke-linecap="butt" stroke-miterlimit="10" stroke-linejoin="miter" fill="none" stroke="#8c8cff" d="M-3.28764-3.58653 .29886 0-3.28764 3.58653Z"/>
<path transform="matrix(1,0,0,-1,40.246,136.29199)" stroke-width=".79701" stroke-linecap="butt" stroke-miterlimit="10" stroke-linejoin="miter" fill="none" stroke="#0000ff" d="M0 0-34.86688 43.65344"/>
<path transform="matrix(1,0,0,-1,21.940999,113.451999)" stroke-width=".3985" stroke-linecap="butt" stroke-miterlimit="10" stroke-linejoin="miter" fill="none" stroke="#8c8cff" d="M0 0 1.36487-1.5868"/>
<path transform="matrix(.65205,.7581,.7581,-.65205,23.305848,115.038799)" d="M-3.28764-3.58653 .29886 0-3.28764 3.58653Z" fill="#8c8cff"/>
<path transform="matrix(.65205,.7581,.7581,-.65205,23.305848,115.038799)" stroke-width=".3985" stroke-linecap="butt" stroke-miterlimit="10" stroke-linejoin="miter" fill="none" stroke="#8c8cff" d="M-3.28764-3.58653 .29886 0-3.28764 3.58653Z"/>
<path transform="matrix(1,0,0,-1,40.246,136.29199)" stroke-width=".79701" stroke-linecap="butt" stroke-miterlimit="10" stroke-linejoin="miter" fill="none" stroke="#0000ff" d="M56.69362 0 113.38724 113.38724"/>
<path transform="matrix(1,0,0,-1,124.577,81.01599)" stroke-width=".3985" stroke-linecap="butt" stroke-miterlimit="10" stroke-linejoin="miter" fill="none" stroke="#8c8cff" d="M0 0 1.1578 2.31555"/>
<path transform="matrix(.44714,-.8944,-.8944,-.44714,125.7348,78.700458)" d="M-3.28764-3.58653 .29886 0-3.28764 3.58653Z" fill="#8c8cff"/>
<path transform="matrix(.44714,-.8944,-.8944,-.44714,125.7348,78.700458)" stroke-width=".3985" stroke-linecap="butt" stroke-miterlimit="10" stroke-linejoin="miter" fill="none" stroke="#8c8cff" d="M-3.28764-3.58653 .29886 0-3.28764 3.58653Z"/>
<path transform="matrix(1,0,0,-1,40.246,136.29199)" stroke-width=".79701" stroke-linecap="butt" stroke-miterlimit="10" stroke-linejoin="miter" fill="none" stroke="#0000ff" d="M56.69362 0 200.62427 32.74007"/>
<path transform="matrix(1,0,0,-1,167.48601,120.38999)" stroke-width=".3985" stroke-linecap="butt" stroke-miterlimit="10" stroke-linejoin="miter" fill="none" stroke="#8c8cff" d="M0 0 2.28351 .75362"/>
<path transform="matrix(.94958,-.31339,-.31339,-.94958,169.76952,119.636379)" d="M-3.28764-3.58653 .29886 0-3.28764 3.58653Z" fill="#8c8cff"/>
<path transform="matrix(.94958,-.31339,-.31339,-.94958,169.76952,119.636379)" stroke-width=".3985" stroke-linecap="butt" stroke-miterlimit="10" stroke-linejoin="miter" fill="none" stroke="#8c8cff" d="M-3.28764-3.58653 .29886 0-3.28764 3.58653Z"/>
<path transform="matrix(1,0,0,-1,40.246,136.29199)" stroke-width=".79701" stroke-linecap="butt" stroke-miterlimit="10" stroke-linejoin="miter" fill="none" stroke="#0000ff" d="M0 113.38724H113.38724"/>
<path transform="matrix(1,0,0,-1,95.521999,22.905997)" stroke-width=".3985" stroke-linecap="butt" stroke-miterlimit="10" stroke-linejoin="miter" fill="none" stroke="#8c8cff" d="M0 0H2.25423"/>
<path transform="matrix(1,0,0,-1,97.77622,22.905997)" d="M-3.28764-3.58653 .29886 0-3.28764 3.58653Z" fill="#8c8cff"/>
<path transform="matrix(1,0,0,-1,97.77622,22.905997)" stroke-width=".3985" stroke-linecap="butt" stroke-miterlimit="10" stroke-linejoin="miter" fill="none" stroke="#8c8cff" d="M-3.28764-3.58653 .29886 0-3.28764 3.58653Z"/>
<path transform="matrix(1,0,0,-1,40.246,136.29199)" stroke-width=".79701" stroke-linecap="butt" stroke-miterlimit="10" stroke-linejoin="miter" fill="none" stroke="#0000ff" d="M0 113.38724-21.14394 127.79292"/>
<path transform="matrix(1,0,0,-1,29.146,15.522992)" stroke-width=".3985" stroke-linecap="butt" stroke-miterlimit="10" stroke-linejoin="miter" fill="none" stroke="#8c8cff" d="M0 0 .50764-.17299"/>
<path transform="matrix(.94656,.3224,.3224,-.94656,29.65364,15.695982)" d="M-3.28764-3.58653 .29886 0-3.28764 3.58653Z" fill="#8c8cff"/>
<path transform="matrix(.94656,.3224,.3224,-.94656,29.65364,15.695982)" stroke-width=".3985" stroke-linecap="butt" stroke-miterlimit="10" stroke-linejoin="miter" fill="none" stroke="#8c8cff" d="M-3.28764-3.58653 .29886 0-3.28764 3.58653Z"/>
<path transform="matrix(1,0,0,-1,40.246,136.29199)" stroke-width=".79701" stroke-linecap="butt" stroke-dasharray=".79701,1.99255" stroke-miterlimit="10" stroke-linejoin="miter" fill="none" stroke="#0000ff" d="M-34.86688 43.65344H169.23046"/>
<path transform="matrix(1,0,0,-1,106.009998,92.639)" stroke-width=".3985" stroke-linecap="butt" stroke-dasharray=".79701,1.99255" stroke-miterlimit="10" stroke-linejoin="miter" fill="none" stroke="#8c8cff" d="M0 0H2.25423"/>
<path transform="matrix(1,0,0,-1,108.26422,92.639)" d="M-3.28764-3.58653 .29886 0-3.28764 3.58653Z" fill="#8c8cff"/>
<path transform="matrix(1,0,0,-1,108.26422,92.639)" stroke-width=".3985" stroke-linecap="butt" stroke-miterlimit="10" stroke-linejoin="miter" fill="none" stroke="#8c8cff" d="M-3.28764-3.58653 .29886 0-3.28764 3.58653Z"/>
<path transform="matrix(1,0,0,-1,40.246,136.29199)" stroke-width=".79701" stroke-linecap="butt" stroke-miterlimit="10" stroke-linejoin="miter" fill="none" stroke="#0000ff" d="M-34.86688 43.65344-21.14394 127.79292"/>
<path transform="matrix(1,0,0,-1,11.711999,51.806989)" stroke-width=".3985" stroke-linecap="butt" stroke-miterlimit="10" stroke-linejoin="miter" fill="none" stroke="#8c8cff" d="M0 0 .82915 1.94075"/>
<path transform="matrix(.39282,-.91957,-.91957,-.39282,12.541149,49.866239)" d="M-3.28764-3.58653 .29886 0-3.28764 3.58653Z" fill="#8c8cff"/>
<path transform="matrix(.39282,-.91957,-.91957,-.39282,12.541149,49.866239)" stroke-width=".3985" stroke-linecap="butt" stroke-miterlimit="10" stroke-linejoin="miter" fill="none" stroke="#8c8cff" d="M-3.28764-3.58653 .29886 0-3.28764 3.58653Z"/>
<path transform="matrix(1,0,0,-1,40.246,136.29199)" stroke-width=".79701" stroke-linecap="butt" stroke-miterlimit="10" stroke-linejoin="miter" fill="none" stroke="#0000ff" d="M113.38724 113.38724 177.2837 127.79292"/>
<path transform="matrix(1,0,0,-1,184.162,16.170996)" stroke-width=".3985" stroke-linecap="butt" stroke-miterlimit="10" stroke-linejoin="miter" fill="none" stroke="#8c8cff" d="M0 0 2.28351 .75362"/>
<path transform="matrix(.94958,-.31339,-.31339,-.94958,186.44551,15.417376)" d="M-3.28764-3.58653 .29886 0-3.28764 3.58653Z" fill="#8c8cff"/>
<path transform="matrix(.94958,-.31339,-.31339,-.94958,186.44551,15.417376)" stroke-width=".3985" stroke-linecap="butt" stroke-miterlimit="10" stroke-linejoin="miter" fill="none" stroke="#8c8cff" d="M-3.28764-3.58653 .29886 0-3.28764 3.58653Z"/>
<path transform="matrix(1,0,0,-1,40.246,136.29199)" stroke-width=".79701" stroke-linecap="butt" stroke-miterlimit="10" stroke-linejoin="miter" fill="none" stroke="#0000ff" d="M-21.14394 127.79292H177.2837"/>
<path transform="matrix(1,0,0,-1,116.897998,8.500989)" stroke-width=".3985" stroke-linecap="butt" stroke-miterlimit="10" stroke-linejoin="miter" fill="none" stroke="#8c8cff" d="M0 0H2.25423"/>
<path transform="matrix(1,0,0,-1,119.15222,8.500989)" d="M-3.28764-3.58653 .29886 0-3.28764 3.58653Z" fill="#8c8cff"/>
<path transform="matrix(1,0,0,-1,119.15222,8.500989)" stroke-width=".3985" stroke-linecap="butt" stroke-miterlimit="10" stroke-linejoin="miter" fill="none" stroke="#8c8cff" d="M-3.28764-3.58653 .29886 0-3.28764 3.58653Z"/>
<path transform="matrix(1,0,0,-1,40.246,136.29199)" stroke-width=".79701" stroke-linecap="butt" stroke-miterlimit="10" stroke-linejoin="miter" fill="none" stroke="#0000ff" d="M235.80751 63.42033 177.2837 127.79292"/>
<path transform="matrix(1,0,0,-1,246.08,39.268995)" stroke-width=".3985" stroke-linecap="butt" stroke-miterlimit="10" stroke-linejoin="miter" fill="none" stroke="#8c8cff" d="M0 0 1.1578-2.31555"/>
<path transform="matrix(.44714,.8944,.8944,-.44714,247.23781,41.584535)" d="M-3.28764-3.58653 .29886 0-3.28764 3.58653Z" fill="#8c8cff"/>
<path transform="matrix(.44714,.8944,.8944,-.44714,247.23781,41.584535)" stroke-width=".3985" stroke-linecap="butt" stroke-miterlimit="10" stroke-linejoin="miter" fill="none" stroke="#8c8cff" d="M-3.28764-3.58653 .29886 0-3.28764 3.58653Z"/>
</svg>
