<svg xmlns="http://www.w3.org/2000/svg" xmlns:xlink="http://www.w3.org/1999/xlink" xmlns:inkscape="http://www.inkscape.org/namespaces/inkscape" version="1.1" width="514.221" height="259.312" viewBox="0 0 514.221 259.312">
<defs>
<clipPath id="clip_0">
<path transform="matrix(1,0,0,-1,115.378,115.378009)" d="M113.38724 0C113.38724 62.62283 62.62283 113.38724 0 113.38724-62.62283 113.38724-113.38724 62.62283-113.38724 0-113.38724-62.62283-62.62283-113.38724 0-113.38724 62.62283-113.38724 113.38724-62.62283 113.38724 0ZM0 0"/>
</clipPath>
<clipPath id="clip_1">
<path transform="matrix(1,0,0,-1,115.378,115.378009)" d="M396.8553 0C396.8553 62.62283 346.0909 113.38724 283.46806 113.38724 220.84522 113.38724 170.08083 62.62283 170.08083 0 170.08083-62.62283 220.84522-113.38724 283.46806-113.38724 346.0909-113.38724 396.8553-62.62283 396.8553 0ZM283.46806 0"/>
</clipPath>
<clipPath id="clip_2">
<path transform="matrix(1,0,0,-1,115.378,115.378009)" d="M170.08083 49.89064V113.38724H396.8553V49.89064ZM396.8553 113.38724"/>
</clipPath>
</defs>
<path transform="matrix(1,0,0,-1,115.378,115.378009)" stroke-width=".3985" stroke-linecap="butt" stroke-miterlimit="10" stroke-linejoin="miter" fill="none" stroke="#000000" d="M0-113.38724"/>
<text xml:space="preserve" transform="matrix(1 0 -0 1 -.0000038146974 259.312)" font-size="9.9626" font-family="CMR10"><tspan y="-20.11" x="40.991 48.184 53.723207">The</tspan></text>
<text fill="#00ff00" xml:space="preserve" transform="matrix(1 0 -0 1 -.0000038146974 259.312)" font-size="9.9626" font-family="CMR10"><tspan y="-20.11" x="61.464147 67.00335 71.98465 75.8601 79.73555 84.15894 93.02566 97.44905 102.98826 107.96956 112.39295">dottededges</tspan></text>
<text xml:space="preserve" transform="matrix(1 0 -0 1 -.0000038146974 259.312)" font-size="9.9626" font-family="CMR10"><tspan y="-20.11" x="119.63576 124.61706 128.5224 136.26335 140.68675 146.22595 151.20725 155.63065 162.88343 167.86472">areedgesof</tspan></text>
<text xml:space="preserve" transform="matrix(1 0 -0 1 -.0000038146974 259.312)" font-size="9.9626" font-family="CMSS10"><tspan y="-20.11" x="174.242">Q</tspan></text>
<text xml:space="preserve" transform="matrix(1 0 -0 1 -.0000038146974 259.312)" font-size="6.9738" font-family="CMMI7" font-style="italic"><tspan y="-18.616002" x="181.57501">n</tspan></text>
<text xml:space="preserve" transform="matrix(1 0 -0 1 -.0000038146974 259.312)" font-size="9.9626" font-family="CMR10"><tspan y="-20.11" x="186.99802">,</tspan></text>
<path transform="matrix(1,0,0,-1,115.378,115.378009)" stroke-width=".3985" stroke-linecap="butt" stroke-miterlimit="10" stroke-linejoin="miter" fill="none" stroke="#000000" d="M0-125.85985"/>
<text xml:space="preserve" transform="matrix(1 0 -0 1 0 259.312)" font-size="9.9626" font-family="CMR10"><tspan y="-7.638" x="80.295 85.834209 91.37341 98.56641 104.10561 109.086917 116.28987 121.27117">butnotof</tspan></text>
<text xml:space="preserve" transform="matrix(1 0 -0 1 0 259.312)" font-size="9.9626" font-family="CMSS10"><tspan y="-7.638" x="127.618">Q</tspan></text>
<text xml:space="preserve" transform="matrix(1 0 -0 1 0 259.312)" font-size="6.9738" font-family="CMMI7" font-style="italic"><tspan y="-6.143" x="134.95099">n</tspan></text>
<text xml:space="preserve" transform="matrix(1 0 -0 1 0 259.312)" font-size="6.9738" font-family="CMR7"><tspan y="-6.143" x="139.87599 145.99202">+1</tspan></text>
<g clip-path="url(#clip_0)">
<path transform="matrix(1,0,0,-1,115.378,115.378009)" stroke-width=".3985" stroke-linecap="butt" stroke-miterlimit="10" stroke-linejoin="miter" fill="none" stroke="#000000" d="M113.38724 0C113.38724 62.62283 62.62283 113.38724 0 113.38724-62.62283 113.38724-113.38724 62.62283-113.38724 0-113.38724-62.62283-62.62283-113.38724 0-113.38724 62.62283-113.38724 113.38724-62.62283 113.38724 0ZM0 0"/>
<path transform="matrix(1,0,0,-1,115.378,115.378009)" stroke-width=".3985" stroke-linecap="butt" stroke-miterlimit="10" stroke-linejoin="miter" fill="none" stroke="#0000ff" d="M0 90.71008"/>
<text fill="#0000ff" xml:space="preserve" transform="matrix(1 0 -0 1 0 259.312)" font-size="9.9626" font-family="CMSY10" font-style="italic"><tspan y="-232.429" x="112.888">&#x2022;</tspan></text>
<path transform="matrix(1,0,0,-1,115.378,115.378009)" stroke-width=".3985" stroke-linecap="butt" stroke-miterlimit="10" stroke-linejoin="miter" fill="none" stroke="#0000ff" d="M0 92.97833"/>
<text fill="#0000ff" xml:space="preserve" transform="matrix(1 0 -0 1 -.0000076293949 259.312)" font-size="9.9626" font-family="CMMI10" font-style="italic"><tspan y="-234.255" x="118.898">X</tspan></text>
<text fill="#0000ff" xml:space="preserve" transform="matrix(1 0 -0 1 -.0000076293949 259.312)" font-size="6.9738" font-family="CMR7"><tspan y="-232.76001" x="127.152">1</tspan></text>
<path transform="matrix(1,0,0,-1,115.378,115.378009)" stroke-width="1.19553" stroke-linecap="butt" stroke-dasharray="1.19553,1.99255" stroke-miterlimit="10" stroke-linejoin="miter" fill="none" stroke="#00ff00" d="M-68.03297 68.03297-22.6771 79.37068H5.66966L56.69359 56.69359"/>
<path transform="matrix(1,0,0,-1,115.378,115.378009)" stroke-width="1.19553" stroke-linecap="butt" stroke-miterlimit="10" stroke-linejoin="miter" fill="none" stroke="#00ff00" d="M56.69359 56.69359 79.37068 22.6771 85.0404-45.35419 56.69359-90.71008-11.33939-79.37068-51.02385-56.69359-79.37068 0-68.03297 68.03297"/>
<path transform="matrix(1,0,0,-1,115.378,115.378009)" stroke-width=".3985" stroke-linecap="butt" stroke-miterlimit="10" stroke-linejoin="miter" fill="none" stroke="#0000ff" d="M-79.37068 0"/>
<text fill="#0000ff" xml:space="preserve" transform="matrix(1 0 -0 1 -.0000038146974 259.312)" font-size="9.9626" font-family="CMSY10" font-style="italic"><tspan y="-141.72" x="33.518">&#x2022;</tspan></text>
<path transform="matrix(1,0,0,-1,115.378,115.378009)" stroke-width=".3985" stroke-linecap="butt" stroke-miterlimit="10" stroke-linejoin="miter" fill="none" stroke="#0000ff" d="M-68.03297 68.03297"/>
<text fill="#0000ff" xml:space="preserve" transform="matrix(1 0 -0 1 -.0000038146974 259.312)" font-size="9.9626" font-family="CMSY10" font-style="italic"><tspan y="-209.752" x="44.856">&#x2022;</tspan></text>
<path transform="matrix(1,0,0,-1,115.378,115.378009)" stroke-width=".3985" stroke-linecap="butt" stroke-miterlimit="10" stroke-linejoin="miter" fill="none" stroke="#0000ff" d="M-22.6771 79.37068"/>
<text fill="#0000ff" xml:space="preserve" transform="matrix(1 0 -0 1 0 259.312)" font-size="9.9626" font-family="CMSY10" font-style="italic"><tspan y="-221.09" x="90.211">&#x2022;</tspan></text>
<path transform="matrix(1,0,0,-1,115.378,115.378009)" stroke-width=".3985" stroke-linecap="butt" stroke-miterlimit="10" stroke-linejoin="miter" fill="none" stroke="#0000ff" d="M5.66966 79.37068"/>
<text fill="#0000ff" xml:space="preserve" transform="matrix(1 0 -0 1 0 259.312)" font-size="9.9626" font-family="CMSY10" font-style="italic"><tspan y="-221.09" x="118.557">&#x2022;</tspan></text>
<path transform="matrix(1,0,0,-1,115.378,115.378009)" stroke-width=".3985" stroke-linecap="butt" stroke-miterlimit="10" stroke-linejoin="miter" fill="none" stroke="#0000ff" d="M56.69359 56.69359"/>
<text fill="#0000ff" xml:space="preserve" transform="matrix(1 0 -0 1 0 259.312)" font-size="9.9626" font-family="CMSY10" font-style="italic"><tspan y="-198.413" x="169.58">&#x2022;</tspan></text>
<path transform="matrix(1,0,0,-1,115.378,115.378009)" stroke-width=".3985" stroke-linecap="butt" stroke-miterlimit="10" stroke-linejoin="miter" fill="none" stroke="#0000ff" d="M79.37068 22.6771"/>
<text fill="#0000ff" xml:space="preserve" transform="matrix(1 0 -0 1 -.000015258789 259.312)" font-size="9.9626" font-family="CMSY10" font-style="italic"><tspan y="-164.397" x="192.257">&#x2022;</tspan></text>
<path transform="matrix(1,0,0,-1,115.378,115.378009)" stroke-width=".3985" stroke-linecap="butt" stroke-miterlimit="10" stroke-linejoin="miter" fill="none" stroke="#0000ff" d="M85.0404-45.35419"/>
<text fill="#0000ff" xml:space="preserve" transform="matrix(1 0 -0 1 0 259.312)" font-size="9.9626" font-family="CMSY10" font-style="italic"><tspan y="-96.367" x="197.927">&#x2022;</tspan></text>
<path transform="matrix(1,0,0,-1,115.378,115.378009)" stroke-width=".3985" stroke-linecap="butt" stroke-miterlimit="10" stroke-linejoin="miter" fill="none" stroke="#0000ff" d="M56.69359-90.71008"/>
<text fill="#0000ff" xml:space="preserve" transform="matrix(1 0 -0 1 0 259.312)" font-size="9.9626" font-family="CMSY10" font-style="italic"><tspan y="-51.011" x="169.58">&#x2022;</tspan></text>
<path transform="matrix(1,0,0,-1,115.378,115.378009)" stroke-width=".3985" stroke-linecap="butt" stroke-miterlimit="10" stroke-linejoin="miter" fill="none" stroke="#0000ff" d="M-11.33939-79.37068"/>
<text fill="#0000ff" xml:space="preserve" transform="matrix(1 0 -0 1 0 259.312)" font-size="9.9626" font-family="CMSY10" font-style="italic"><tspan y="-62.351" x="101.548">&#x2022;</tspan></text>
<path transform="matrix(1,0,0,-1,115.378,115.378009)" stroke-width=".3985" stroke-linecap="butt" stroke-miterlimit="10" stroke-linejoin="miter" fill="none" stroke="#0000ff" d="M-51.02385-56.69359"/>
<text fill="#0000ff" xml:space="preserve" transform="matrix(1 0 -0 1 0 259.312)" font-size="9.9626" font-family="CMSY10" font-style="italic"><tspan y="-85.027" x="61.864">&#x2022;</tspan></text>
<path transform="matrix(1,0,0,-1,115.378,115.378009)" d="M-61.72026 58.15382C-61.72026 59.25429-62.61235 60.14638-63.71281 60.14638-64.8133 60.14638-65.70537 59.25429-65.70537 58.15382-65.70537 57.05334-64.8133 56.16127-63.71281 56.16127-62.61235 56.16127-61.72026 57.05334-61.72026 58.15382ZM-63.71281 58.15382" fill="#8080ff"/>
<path transform="matrix(1,0,0,-1,115.378,115.378009)" stroke-width=".3985" stroke-linecap="butt" stroke-miterlimit="10" stroke-linejoin="miter" fill="none" stroke="#8080ff" d="M-61.72026 58.15382C-61.72026 59.25429-62.61235 60.14638-63.71281 60.14638-64.8133 60.14638-65.70537 59.25429-65.70537 58.15382-65.70537 57.05334-64.8133 56.16127-63.71281 56.16127-62.61235 56.16127-61.72026 57.05334-61.72026 58.15382ZM-63.71281 58.15382"/>
<path transform="matrix(1,0,0,-1,115.378,115.378009)" d="M-14.5892 71.6421C-14.5892 72.74258-15.4813 73.63466-16.58176 73.63466-17.68224 73.63466-18.57431 72.74258-18.57431 71.6421-18.57431 70.54164-17.68224 69.64955-16.58176 69.64955-15.4813 69.64955-14.5892 70.54164-14.5892 71.6421ZM-16.58176 71.6421" fill="#8080ff"/>
<path transform="matrix(1,0,0,-1,115.378,115.378009)" stroke-width=".3985" stroke-linecap="butt" stroke-miterlimit="10" stroke-linejoin="miter" fill="none" stroke="#8080ff" d="M-14.5892 71.6421C-14.5892 72.74258-15.4813 73.63466-16.58176 73.63466-17.68224 73.63466-18.57431 72.74258-18.57431 71.6421-18.57431 70.54164-17.68224 69.64955-16.58176 69.64955-15.4813 69.64955-14.5892 70.54164-14.5892 71.6421ZM-16.58176 71.6421"/>
<path transform="matrix(1,0,0,-1,115.378,115.378009)" d="M-38.40129 57.01884C-38.40129 58.11931-39.29337 59.0114-40.39384 59.0114-41.49431 59.0114-42.3864 58.11931-42.3864 57.01884-42.3864 55.91837-41.49431 55.02629-40.39384 55.02629-39.29337 55.02629-38.40129 55.91837-38.40129 57.01884ZM-40.39384 57.01884" fill="#8080ff"/>
<path transform="matrix(1,0,0,-1,115.378,115.378009)" stroke-width=".3985" stroke-linecap="butt" stroke-miterlimit="10" stroke-linejoin="miter" fill="none" stroke="#8080ff" d="M-38.40129 57.01884C-38.40129 58.11931-39.29337 59.0114-40.39384 59.0114-41.49431 59.0114-42.3864 58.11931-42.3864 57.01884-42.3864 55.91837-41.49431 55.02629-40.39384 55.02629-39.29337 55.02629-38.40129 55.91837-38.40129 57.01884ZM-40.39384 57.01884"/>
<path transform="matrix(1,0,0,-1,115.378,115.378009)" d="M42.3864-20.73586C42.3864-19.63539 41.49431-18.7433 40.39384-18.7433 39.29337-18.7433 38.40129-19.63539 38.40129-20.73586 38.40129-21.83633 39.29337-22.72841 40.39384-22.72841 41.49431-22.72841 42.3864-21.83633 42.3864-20.73586ZM40.39384-20.73586" fill="#8080ff"/>
<path transform="matrix(1,0,0,-1,115.378,115.378009)" stroke-width=".3985" stroke-linecap="butt" stroke-miterlimit="10" stroke-linejoin="miter" fill="none" stroke="#8080ff" d="M42.3864-20.73586C42.3864-19.63539 41.49431-18.7433 40.39384-18.7433 39.29337-18.7433 38.40129-19.63539 38.40129-20.73586 38.40129-21.83633 39.29337-22.72841 40.39384-22.72841 41.49431-22.72841 42.3864-21.83633 42.3864-20.73586ZM40.39384-20.73586"/>
<path transform="matrix(1,0,0,-1,115.378,115.378009)" d="M-26.503 8.63515C-26.503 9.73561-27.39508 10.6277-28.49556 10.6277-29.59602 10.6277-30.48811 9.73561-30.48811 8.63515-30.48811 7.53467-29.59602 6.6426-28.49556 6.6426-27.39508 6.6426-26.503 7.53467-26.503 8.63515ZM-28.49556 8.63515" fill="#8080ff"/>
<path transform="matrix(1,0,0,-1,115.378,115.378009)" stroke-width=".3985" stroke-linecap="butt" stroke-miterlimit="10" stroke-linejoin="miter" fill="none" stroke="#8080ff" d="M-26.503 8.63515C-26.503 9.73561-27.39508 10.6277-28.49556 10.6277-29.59602 10.6277-30.48811 9.73561-30.48811 8.63515-30.48811 7.53467-29.59602 6.6426-28.49556 6.6426-27.39508 6.6426-26.503 7.53467-26.503 8.63515ZM-28.49556 8.63515"/>
<path transform="matrix(1,0,0,-1,115.378,115.378009)" d="M27.40843 8.19398C27.40843 9.29445 26.51634 10.18654 25.41588 10.18654 24.3154 10.18654 23.42332 9.29445 23.42332 8.19398 23.42332 7.0935 24.3154 6.20143 25.41588 6.20143 26.51634 6.20143 27.40843 7.0935 27.40843 8.19398ZM25.41588 8.19398" fill="#8080ff"/>
<path transform="matrix(1,0,0,-1,115.378,115.378009)" stroke-width=".3985" stroke-linecap="butt" stroke-miterlimit="10" stroke-linejoin="miter" fill="none" stroke="#8080ff" d="M27.40843 8.19398C27.40843 9.29445 26.51634 10.18654 25.41588 10.18654 24.3154 10.18654 23.42332 9.29445 23.42332 8.19398 23.42332 7.0935 24.3154 6.20143 25.41588 6.20143 26.51634 6.20143 27.40843 7.0935 27.40843 8.19398ZM25.41588 8.19398"/>
<path transform="matrix(1,0,0,-1,115.378,115.378009)" d="M37.45024-16.04367C37.45024-14.9432 36.55817-14.05112 35.45769-14.05112 34.35722-14.05112 33.46513-14.9432 33.46513-16.04367 33.46513-17.14415 34.35722-18.03622 35.45769-18.03622 36.55817-18.03622 37.45024-17.14415 37.45024-16.04367ZM35.45769-16.04367" fill="#8080ff"/>
<path transform="matrix(1,0,0,-1,115.378,115.378009)" stroke-width=".3985" stroke-linecap="butt" stroke-miterlimit="10" stroke-linejoin="miter" fill="none" stroke="#8080ff" d="M37.45024-16.04367C37.45024-14.9432 36.55817-14.05112 35.45769-14.05112 34.35722-14.05112 33.46513-14.9432 33.46513-16.04367 33.46513-17.14415 34.35722-18.03622 35.45769-18.03622 36.55817-18.03622 37.45024-17.14415 37.45024-16.04367ZM35.45769-16.04367"/>
<path transform="matrix(1,0,0,-1,115.378,115.378009)" d="M-3.16846 18.14233C-3.16846 19.24281-4.06053 20.13489-5.16101 20.13489-6.26147 20.13489-7.15356 19.24281-7.15356 18.14233-7.15356 17.04187-6.26147 16.14978-5.16101 16.14978-4.06053 16.14978-3.16846 17.04187-3.16846 18.14233ZM-5.16101 18.14233" fill="#8080ff"/>
<path transform="matrix(1,0,0,-1,115.378,115.378009)" stroke-width=".3985" stroke-linecap="butt" stroke-miterlimit="10" stroke-linejoin="miter" fill="none" stroke="#8080ff" d="M-3.16846 18.14233C-3.16846 19.24281-4.06053 20.13489-5.16101 20.13489-6.26147 20.13489-7.15356 19.24281-7.15356 18.14233-7.15356 17.04187-6.26147 16.14978-5.16101 16.14978-4.06053 16.14978-3.16846 17.04187-3.16846 18.14233ZM-5.16101 18.14233"/>
<path transform="matrix(1,0,0,-1,115.378,115.378009)" d="M60.49931-51.91663C60.49931-50.81616 59.60722-49.92407 58.50676-49.92407 57.40628-49.92407 56.5142-50.81616 56.5142-51.91663 56.5142-53.0171 57.40628-53.90918 58.50676-53.90918 59.60722-53.90918 60.49931-53.0171 60.49931-51.91663ZM58.50676-51.91663" fill="#8080ff"/>
<path transform="matrix(1,0,0,-1,115.378,115.378009)" stroke-width=".3985" stroke-linecap="butt" stroke-miterlimit="10" stroke-linejoin="miter" fill="none" stroke="#8080ff" d="M60.49931-51.91663C60.49931-50.81616 59.60722-49.92407 58.50676-49.92407 57.40628-49.92407 56.5142-50.81616 56.5142-51.91663 56.5142-53.0171 57.40628-53.90918 58.50676-53.90918 59.60722-53.90918 60.49931-53.0171 60.49931-51.91663ZM58.50676-51.91663"/>
<path transform="matrix(1,0,0,-1,115.378,115.378009)" d="M28.60397 12.39647C28.60397 13.49695 27.7119 14.38902 26.61142 14.38902 25.51096 14.38902 24.61887 13.49695 24.61887 12.39647 24.61887 11.296 25.51096 10.40392 26.61142 10.40392 27.7119 10.40392 28.60397 11.296 28.60397 12.39647ZM26.61142 12.39647" fill="#8080ff"/>
<path transform="matrix(1,0,0,-1,115.378,115.378009)" stroke-width=".3985" stroke-linecap="butt" stroke-miterlimit="10" stroke-linejoin="miter" fill="none" stroke="#8080ff" d="M28.60397 12.39647C28.60397 13.49695 27.7119 14.38902 26.61142 14.38902 25.51096 14.38902 24.61887 13.49695 24.61887 12.39647 24.61887 11.296 25.51096 10.40392 26.61142 10.40392 27.7119 10.40392 28.60397 11.296 28.60397 12.39647ZM26.61142 12.39647"/>
<path transform="matrix(1,0,0,-1,115.378,115.378009)" d="M25.1558-14.26505C25.1558-13.16457 24.26372-12.27249 23.16325-12.27249 22.06277-12.27249 21.1707-13.16457 21.1707-14.26505 21.1707-15.36551 22.06277-16.2576 23.16325-16.2576 24.26372-16.2576 25.1558-15.36551 25.1558-14.26505ZM23.16325-14.26505" fill="#8080ff"/>
<path transform="matrix(1,0,0,-1,115.378,115.378009)" stroke-width=".3985" stroke-linecap="butt" stroke-miterlimit="10" stroke-linejoin="miter" fill="none" stroke="#8080ff" d="M25.1558-14.26505C25.1558-13.16457 24.26372-12.27249 23.16325-12.27249 22.06277-12.27249 21.1707-13.16457 21.1707-14.26505 21.1707-15.36551 22.06277-16.2576 23.16325-16.2576 24.26372-16.2576 25.1558-15.36551 25.1558-14.26505ZM23.16325-14.26505"/>
<path transform="matrix(1,0,0,-1,115.378,115.378009)" d="M32.07988 2.56749C32.07988 3.66795 31.18779 4.56004 30.08733 4.56004 28.98685 4.56004 28.09477 3.66795 28.09477 2.56749 28.09477 1.46701 28.98685 .57494 30.08733 .57494 31.18779 .57494 32.07988 1.46701 32.07988 2.56749ZM30.08733 2.56749" fill="#8080ff"/>
<path transform="matrix(1,0,0,-1,115.378,115.378009)" stroke-width=".3985" stroke-linecap="butt" stroke-miterlimit="10" stroke-linejoin="miter" fill="none" stroke="#8080ff" d="M32.07988 2.56749C32.07988 3.66795 31.18779 4.56004 30.08733 4.56004 28.98685 4.56004 28.09477 3.66795 28.09477 2.56749 28.09477 1.46701 28.98685 .57494 30.08733 .57494 31.18779 .57494 32.07988 1.46701 32.07988 2.56749ZM30.08733 2.56749"/>
<path transform="matrix(1,0,0,-1,115.378,115.378009)" d="M-21.03229 44.79013C-21.03229 45.8906-21.92438 46.78268-23.02484 46.78268-24.12532 46.78268-25.0174 45.8906-25.0174 44.79013-25.0174 43.68965-24.12532 42.79758-23.02484 42.79758-21.92438 42.79758-21.03229 43.68965-21.03229 44.79013ZM-23.02484 44.79013" fill="#8080ff"/>
<path transform="matrix(1,0,0,-1,115.378,115.378009)" stroke-width=".3985" stroke-linecap="butt" stroke-miterlimit="10" stroke-linejoin="miter" fill="none" stroke="#8080ff" d="M-21.03229 44.79013C-21.03229 45.8906-21.92438 46.78268-23.02484 46.78268-24.12532 46.78268-25.0174 45.8906-25.0174 44.79013-25.0174 43.68965-24.12532 42.79758-23.02484 42.79758-21.92438 42.79758-21.03229 43.68965-21.03229 44.79013ZM-23.02484 44.79013"/>
<path transform="matrix(1,0,0,-1,115.378,115.378009)" d="M-22.3714-47.24695C-22.3714-46.14648-23.26349-45.2544-24.36395-45.2544-25.46443-45.2544-26.3565-46.14648-26.3565-47.24695-26.3565-48.34743-25.46443-49.2395-24.36395-49.2395-23.26349-49.2395-22.3714-48.34743-22.3714-47.24695ZM-24.36395-47.24695" fill="#8080ff"/>
<path transform="matrix(1,0,0,-1,115.378,115.378009)" stroke-width=".3985" stroke-linecap="butt" stroke-miterlimit="10" stroke-linejoin="miter" fill="none" stroke="#8080ff" d="M-22.3714-47.24695C-22.3714-46.14648-23.26349-45.2544-24.36395-45.2544-25.46443-45.2544-26.3565-46.14648-26.3565-47.24695-26.3565-48.34743-25.46443-49.2395-24.36395-49.2395-23.26349-49.2395-22.3714-48.34743-22.3714-47.24695ZM-24.36395-47.24695"/>
<path transform="matrix(1,0,0,-1,115.378,115.378009)" d="M-11.4818-14.6232C-11.4818-13.52274-12.37389-12.63065-13.47435-12.63065-14.57483-12.63065-15.4669-13.52274-15.4669-14.6232-15.4669-15.72368-14.57483-16.61575-13.47435-16.61575-12.37389-16.61575-11.4818-15.72368-11.4818-14.6232ZM-13.47435-14.6232" fill="#8080ff"/>
<path transform="matrix(1,0,0,-1,115.378,115.378009)" stroke-width=".3985" stroke-linecap="butt" stroke-miterlimit="10" stroke-linejoin="miter" fill="none" stroke="#8080ff" d="M-11.4818-14.6232C-11.4818-13.52274-12.37389-12.63065-13.47435-12.63065-14.57483-12.63065-15.4669-13.52274-15.4669-14.6232-15.4669-15.72368-14.57483-16.61575-13.47435-16.61575-12.37389-16.61575-11.4818-15.72368-11.4818-14.6232ZM-13.47435-14.6232"/>
<path transform="matrix(1,0,0,-1,115.378,115.378009)" d="M-66.08542-12.16292C-66.08542-11.06244-66.97751-10.17036-68.07797-10.17036-69.17845-10.17036-70.07053-11.06244-70.07053-12.16292-70.07053-13.26338-69.17845-14.15547-68.07797-14.15547-66.97751-14.15547-66.08542-13.26338-66.08542-12.16292ZM-68.07797-12.16292" fill="#8080ff"/>
<path transform="matrix(1,0,0,-1,115.378,115.378009)" stroke-width=".3985" stroke-linecap="butt" stroke-miterlimit="10" stroke-linejoin="miter" fill="none" stroke="#8080ff" d="M-66.08542-12.16292C-66.08542-11.06244-66.97751-10.17036-68.07797-10.17036-69.17845-10.17036-70.07053-11.06244-70.07053-12.16292-70.07053-13.26338-69.17845-14.15547-68.07797-14.15547-66.97751-14.15547-66.08542-13.26338-66.08542-12.16292ZM-68.07797-12.16292"/>
<path transform="matrix(1,0,0,-1,115.378,115.378009)" d="M61.88864-6.42229C61.88864-5.32181 60.99657-4.42973 59.89609-4.42973 58.79562-4.42973 57.90353-5.32181 57.90353-6.42229 57.90353-7.52275 58.79562-8.41484 59.89609-8.41484 60.99657-8.41484 61.88864-7.52275 61.88864-6.42229ZM59.89609-6.42229" fill="#8080ff"/>
<path transform="matrix(1,0,0,-1,115.378,115.378009)" stroke-width=".3985" stroke-linecap="butt" stroke-miterlimit="10" stroke-linejoin="miter" fill="none" stroke="#8080ff" d="M61.88864-6.42229C61.88864-5.32181 60.99657-4.42973 59.89609-4.42973 58.79562-4.42973 57.90353-5.32181 57.90353-6.42229 57.90353-7.52275 58.79562-8.41484 59.89609-8.41484 60.99657-8.41484 61.88864-7.52275 61.88864-6.42229ZM59.89609-6.42229"/>
<path transform="matrix(1,0,0,-1,115.378,115.378009)" d="M8.28337 65.29419C8.28337 66.39467 7.39128 67.28674 6.29082 67.28674 5.19034 67.28674 4.29826 66.39467 4.29826 65.29419 4.29826 64.19373 5.19034 63.30164 6.29082 63.30164 7.39128 63.30164 8.28337 64.19373 8.28337 65.29419ZM6.29082 65.29419" fill="#8080ff"/>
<path transform="matrix(1,0,0,-1,115.378,115.378009)" stroke-width=".3985" stroke-linecap="butt" stroke-miterlimit="10" stroke-linejoin="miter" fill="none" stroke="#8080ff" d="M8.28337 65.29419C8.28337 66.39467 7.39128 67.28674 6.29082 67.28674 5.19034 67.28674 4.29826 66.39467 4.29826 65.29419 4.29826 64.19373 5.19034 63.30164 6.29082 63.30164 7.39128 63.30164 8.28337 64.19373 8.28337 65.29419ZM6.29082 65.29419"/>
<path transform="matrix(1,0,0,-1,115.378,115.378009)" d="M-5.73947 55.64859C-5.73947 56.74907-6.63155 57.64114-7.73203 57.64114-8.83249 57.64114-9.72458 56.74907-9.72458 55.64859-9.72458 54.54813-8.83249 53.65604-7.73203 53.65604-6.63155 53.65604-5.73947 54.54813-5.73947 55.64859ZM-7.73203 55.64859" fill="#8080ff"/>
<path transform="matrix(1,0,0,-1,115.378,115.378009)" stroke-width=".3985" stroke-linecap="butt" stroke-miterlimit="10" stroke-linejoin="miter" fill="none" stroke="#8080ff" d="M-5.73947 55.64859C-5.73947 56.74907-6.63155 57.64114-7.73203 57.64114-8.83249 57.64114-9.72458 56.74907-9.72458 55.64859-9.72458 54.54813-8.83249 53.65604-7.73203 53.65604-6.63155 53.65604-5.73947 54.54813-5.73947 55.64859ZM-7.73203 55.64859"/>
<path transform="matrix(1,0,0,-1,115.378,115.378009)" d="M10.41147-18.6164C10.41147-17.51593 9.51938-16.62384 8.41891-16.62384 7.31844-16.62384 6.42636-17.51593 6.42636-18.6164 6.42636-19.71687 7.31844-20.60895 8.41891-20.60895 9.51938-20.60895 10.41147-19.71687 10.41147-18.6164ZM8.41891-18.6164" fill="#8080ff"/>
<path transform="matrix(1,0,0,-1,115.378,115.378009)" stroke-width=".3985" stroke-linecap="butt" stroke-miterlimit="10" stroke-linejoin="miter" fill="none" stroke="#8080ff" d="M10.41147-18.6164C10.41147-17.51593 9.51938-16.62384 8.41891-16.62384 7.31844-16.62384 6.42636-17.51593 6.42636-18.6164 6.42636-19.71687 7.31844-20.60895 8.41891-20.60895 9.51938-20.60895 10.41147-19.71687 10.41147-18.6164ZM8.41891-18.6164"/>
<path transform="matrix(1,0,0,-1,115.378,115.378009)" d="M-25.71925-25.98857C-25.71925-24.88809-26.61133-23.99602-27.7118-23.99602-28.81227-23.99602-29.70436-24.88809-29.70436-25.98857-29.70436-27.08904-28.81227-27.98112-27.7118-27.98112-26.61133-27.98112-25.71925-27.08904-25.71925-25.98857ZM-27.7118-25.98857" fill="#8080ff"/>
<path transform="matrix(1,0,0,-1,115.378,115.378009)" stroke-width=".3985" stroke-linecap="butt" stroke-miterlimit="10" stroke-linejoin="miter" fill="none" stroke="#8080ff" d="M-25.71925-25.98857C-25.71925-24.88809-26.61133-23.99602-27.7118-23.99602-28.81227-23.99602-29.70436-24.88809-29.70436-25.98857-29.70436-27.08904-28.81227-27.98112-27.7118-27.98112-26.61133-27.98112-25.71925-27.08904-25.71925-25.98857ZM-27.7118-25.98857"/>
<path transform="matrix(1,0,0,-1,115.378,115.378009)" d="M-63.48157-21.10089C-63.48157-20.00041-64.37366-19.10834-65.47412-19.10834-66.5746-19.10834-67.46667-20.00041-67.46667-21.10089-67.46667-22.20135-66.5746-23.09344-65.47412-23.09344-64.37366-23.09344-63.48157-22.20135-63.48157-21.10089ZM-65.47412-21.10089" fill="#8080ff"/>
<path transform="matrix(1,0,0,-1,115.378,115.378009)" stroke-width=".3985" stroke-linecap="butt" stroke-miterlimit="10" stroke-linejoin="miter" fill="none" stroke="#8080ff" d="M-63.48157-21.10089C-63.48157-20.00041-64.37366-19.10834-65.47412-19.10834-66.5746-19.10834-67.46667-20.00041-67.46667-21.10089-67.46667-22.20135-66.5746-23.09344-65.47412-23.09344-64.37366-23.09344-63.48157-22.20135-63.48157-21.10089ZM-65.47412-21.10089"/>
<path transform="matrix(1,0,0,-1,115.378,115.378009)" d="M-30.74533 15.9364C-30.74533 17.03688-31.6374 17.92896-32.73788 17.92896-33.83835 17.92896-34.73044 17.03688-34.73044 15.9364-34.73044 14.83594-33.83835 13.94385-32.73788 13.94385-31.6374 13.94385-30.74533 14.83594-30.74533 15.9364ZM-32.73788 15.9364" fill="#8080ff"/>
<path transform="matrix(1,0,0,-1,115.378,115.378009)" stroke-width=".3985" stroke-linecap="butt" stroke-miterlimit="10" stroke-linejoin="miter" fill="none" stroke="#8080ff" d="M-30.74533 15.9364C-30.74533 17.03688-31.6374 17.92896-32.73788 17.92896-33.83835 17.92896-34.73044 17.03688-34.73044 15.9364-34.73044 14.83594-33.83835 13.94385-32.73788 13.94385-31.6374 13.94385-30.74533 14.83594-30.74533 15.9364ZM-32.73788 15.9364"/>
<path transform="matrix(1,0,0,-1,115.378,115.378009)" d="M22.9481 47.78157C22.9481 48.88205 22.05603 49.77412 20.95555 49.77412 19.85509 49.77412 18.963 48.88205 18.963 47.78157 18.963 46.6811 19.85509 45.78902 20.95555 45.78902 22.05603 45.78902 22.9481 46.6811 22.9481 47.78157ZM20.95555 47.78157" fill="#8080ff"/>
<path transform="matrix(1,0,0,-1,115.378,115.378009)" stroke-width=".3985" stroke-linecap="butt" stroke-miterlimit="10" stroke-linejoin="miter" fill="none" stroke="#8080ff" d="M22.9481 47.78157C22.9481 48.88205 22.05603 49.77412 20.95555 49.77412 19.85509 49.77412 18.963 48.88205 18.963 47.78157 18.963 46.6811 19.85509 45.78902 20.95555 45.78902 22.05603 45.78902 22.9481 46.6811 22.9481 47.78157ZM20.95555 47.78157"/>
<path transform="matrix(1,0,0,-1,115.378,115.378009)" d="M-25.52722 28.49556C-25.52722 29.59602-26.4193 30.48811-27.51978 30.48811-28.62024 30.48811-29.51233 29.59602-29.51233 28.49556-29.51233 27.39508-28.62024 26.503-27.51978 26.503-26.4193 26.503-25.52722 27.39508-25.52722 28.49556ZM-27.51978 28.49556" fill="#8080ff"/>
<path transform="matrix(1,0,0,-1,115.378,115.378009)" stroke-width=".3985" stroke-linecap="butt" stroke-miterlimit="10" stroke-linejoin="miter" fill="none" stroke="#8080ff" d="M-25.52722 28.49556C-25.52722 29.59602-26.4193 30.48811-27.51978 30.48811-28.62024 30.48811-29.51233 29.59602-29.51233 28.49556-29.51233 27.39508-28.62024 26.503-27.51978 26.503-26.4193 26.503-25.52722 27.39508-25.52722 28.49556ZM-27.51978 28.49556"/>
<path transform="matrix(1,0,0,-1,115.378,115.378009)" d="M-39.12964-30.64961C-39.12964-29.54915-40.02173-28.65706-41.1222-28.65706-42.22267-28.65706-43.11475-29.54915-43.11475-30.64961-43.11475-31.75009-42.22267-32.64217-41.1222-32.64217-40.02173-32.64217-39.12964-31.75009-39.12964-30.64961ZM-41.1222-30.64961" fill="#8080ff"/>
<path transform="matrix(1,0,0,-1,115.378,115.378009)" stroke-width=".3985" stroke-linecap="butt" stroke-miterlimit="10" stroke-linejoin="miter" fill="none" stroke="#8080ff" d="M-39.12964-30.64961C-39.12964-29.54915-40.02173-28.65706-41.1222-28.65706-42.22267-28.65706-43.11475-29.54915-43.11475-30.64961-43.11475-31.75009-42.22267-32.64217-41.1222-32.64217-40.02173-32.64217-39.12964-31.75009-39.12964-30.64961ZM-41.1222-30.64961"/>
<path transform="matrix(1,0,0,-1,115.378,115.378009)" d="M36.79796 53.84576C36.79796 54.94624 35.90588 55.83832 34.8054 55.83832 33.70494 55.83832 32.81285 54.94624 32.81285 53.84576 32.81285 52.7453 33.70494 51.85321 34.8054 51.85321 35.90588 51.85321 36.79796 52.7453 36.79796 53.84576ZM34.8054 53.84576" fill="#8080ff"/>
<path transform="matrix(1,0,0,-1,115.378,115.378009)" stroke-width=".3985" stroke-linecap="butt" stroke-miterlimit="10" stroke-linejoin="miter" fill="none" stroke="#8080ff" d="M36.79796 53.84576C36.79796 54.94624 35.90588 55.83832 34.8054 55.83832 33.70494 55.83832 32.81285 54.94624 32.81285 53.84576 32.81285 52.7453 33.70494 51.85321 34.8054 51.85321 35.90588 51.85321 36.79796 52.7453 36.79796 53.84576ZM34.8054 53.84576"/>
<path transform="matrix(1,0,0,-1,115.378,115.378009)" d="M-.73242-7.49846C-.73242-6.398-1.62451-5.5059-2.72498-5.5059-3.82545-5.5059-4.71753-6.398-4.71753-7.49846-4.71753-8.59894-3.82545-9.49101-2.72498-9.49101-1.62451-9.49101-.73242-8.59894-.73242-7.49846ZM-2.72498-7.49846" fill="#8080ff"/>
<path transform="matrix(1,0,0,-1,115.378,115.378009)" stroke-width=".3985" stroke-linecap="butt" stroke-miterlimit="10" stroke-linejoin="miter" fill="none" stroke="#8080ff" d="M-.73242-7.49846C-.73242-6.398-1.62451-5.5059-2.72498-5.5059-3.82545-5.5059-4.71753-6.398-4.71753-7.49846-4.71753-8.59894-3.82545-9.49101-2.72498-9.49101-1.62451-9.49101-.73242-8.59894-.73242-7.49846ZM-2.72498-7.49846"/>
<path transform="matrix(1,0,0,-1,115.378,115.378009)" d="M11.72461-24.86052C11.72461-23.76004 10.83252-22.86797 9.73206-22.86797 8.63159-22.86797 7.7395-23.76004 7.7395-24.86052 7.7395-25.96098 8.63159-26.85307 9.73206-26.85307 10.83252-26.85307 11.72461-25.96098 11.72461-24.86052ZM9.73206-24.86052" fill="#8080ff"/>
<path transform="matrix(1,0,0,-1,115.378,115.378009)" stroke-width=".3985" stroke-linecap="butt" stroke-miterlimit="10" stroke-linejoin="miter" fill="none" stroke="#8080ff" d="M11.72461-24.86052C11.72461-23.76004 10.83252-22.86797 9.73206-22.86797 8.63159-22.86797 7.7395-23.76004 7.7395-24.86052 7.7395-25.96098 8.63159-26.85307 9.73206-26.85307 10.83252-26.85307 11.72461-25.96098 11.72461-24.86052ZM9.73206-24.86052"/>
<path transform="matrix(1,0,0,-1,115.378,115.378009)" d="M64.5029-16.50563C64.5029-15.40517 63.61081-14.51308 62.51035-14.51308 61.40987-14.51308 60.51779-15.40517 60.51779-16.50563 60.51779-17.60611 61.40987-18.49818 62.51035-18.49818 63.61081-18.49818 64.5029-17.60611 64.5029-16.50563ZM62.51035-16.50563" fill="#8080ff"/>
<path transform="matrix(1,0,0,-1,115.378,115.378009)" stroke-width=".3985" stroke-linecap="butt" stroke-miterlimit="10" stroke-linejoin="miter" fill="none" stroke="#8080ff" d="M64.5029-16.50563C64.5029-15.40517 63.61081-14.51308 62.51035-14.51308 61.40987-14.51308 60.51779-15.40517 60.51779-16.50563 60.51779-17.60611 61.40987-18.49818 62.51035-18.49818 63.61081-18.49818 64.5029-17.60611 64.5029-16.50563ZM62.51035-16.50563"/>
<path transform="matrix(1,0,0,-1,115.378,115.378009)" d="M-16.71208-35.0926C-16.71208-33.99213-17.60416-33.10005-18.70464-33.10005-19.8051-33.10005-20.69719-33.99213-20.69719-35.0926-20.69719-36.19307-19.8051-37.08516-18.70464-37.08516-17.60416-37.08516-16.71208-36.19307-16.71208-35.0926ZM-18.70464-35.0926" fill="#8080ff"/>
<path transform="matrix(1,0,0,-1,115.378,115.378009)" stroke-width=".3985" stroke-linecap="butt" stroke-miterlimit="10" stroke-linejoin="miter" fill="none" stroke="#8080ff" d="M-16.71208-35.0926C-16.71208-33.99213-17.60416-33.10005-18.70464-33.10005-19.8051-33.10005-20.69719-33.99213-20.69719-35.0926-20.69719-36.19307-19.8051-37.08516-18.70464-37.08516-17.60416-37.08516-16.71208-36.19307-16.71208-35.0926ZM-18.70464-35.0926"/>
<path transform="matrix(1,0,0,-1,115.378,115.378009)" d="M7.76431 14.64917C7.76431 15.74963 6.87222 16.64172 5.77176 16.64172 4.67128 16.64172 3.7792 15.74963 3.7792 14.64917 3.7792 13.54869 4.67128 12.65662 5.77176 12.65662 6.87222 12.65662 7.76431 13.54869 7.76431 14.64917ZM5.77176 14.64917" fill="#8080ff"/>
<path transform="matrix(1,0,0,-1,115.378,115.378009)" stroke-width=".3985" stroke-linecap="butt" stroke-miterlimit="10" stroke-linejoin="miter" fill="none" stroke="#8080ff" d="M7.76431 14.64917C7.76431 15.74963 6.87222 16.64172 5.77176 16.64172 4.67128 16.64172 3.7792 15.74963 3.7792 14.64917 3.7792 13.54869 4.67128 12.65662 5.77176 12.65662 6.87222 12.65662 7.76431 13.54869 7.76431 14.64917ZM5.77176 14.64917"/>
<path transform="matrix(1,0,0,-1,115.378,115.378009)" d="M58.16362 44.82472C58.16362 45.9252 57.27153 46.81728 56.17107 46.81728 55.07059 46.81728 54.17851 45.9252 54.17851 44.82472 54.17851 43.72426 55.07059 42.83217 56.17107 42.83217 57.27153 42.83217 58.16362 43.72426 58.16362 44.82472ZM56.17107 44.82472" fill="#8080ff"/>
<path transform="matrix(1,0,0,-1,115.378,115.378009)" stroke-width=".3985" stroke-linecap="butt" stroke-miterlimit="10" stroke-linejoin="miter" fill="none" stroke="#8080ff" d="M58.16362 44.82472C58.16362 45.9252 57.27153 46.81728 56.17107 46.81728 55.07059 46.81728 54.17851 45.9252 54.17851 44.82472 54.17851 43.72426 55.07059 42.83217 56.17107 42.83217 57.27153 42.83217 58.16362 43.72426 58.16362 44.82472ZM56.17107 44.82472"/>
<path transform="matrix(1,0,0,-1,115.378,115.378009)" d="M76.19876 13.17336C76.19876 14.27383 75.30667 15.16591 74.2062 15.16591 73.10573 15.16591 72.21365 14.27383 72.21365 13.17336 72.21365 12.07289 73.10573 11.1808 74.2062 11.1808 75.30667 11.1808 76.19876 12.07289 76.19876 13.17336ZM74.2062 13.17336" fill="#8080ff"/>
<path transform="matrix(1,0,0,-1,115.378,115.378009)" stroke-width=".3985" stroke-linecap="butt" stroke-miterlimit="10" stroke-linejoin="miter" fill="none" stroke="#8080ff" d="M76.19876 13.17336C76.19876 14.27383 75.30667 15.16591 74.2062 15.16591 73.10573 15.16591 72.21365 14.27383 72.21365 13.17336 72.21365 12.07289 73.10573 11.1808 74.2062 11.1808 75.30667 11.1808 76.19876 12.07289 76.19876 13.17336ZM74.2062 13.17336"/>
<path transform="matrix(1,0,0,-1,115.378,115.378009)" d="M26.3444-73.83765C26.3444-72.73717 25.45233-71.8451 24.35185-71.8451 23.25139-71.8451 22.3593-72.73717 22.3593-73.83765 22.3593-74.93811 23.25139-75.8302 24.35185-75.8302 25.45233-75.8302 26.3444-74.93811 26.3444-73.83765ZM24.35185-73.83765" fill="#8080ff"/>
<path transform="matrix(1,0,0,-1,115.378,115.378009)" stroke-width=".3985" stroke-linecap="butt" stroke-miterlimit="10" stroke-linejoin="miter" fill="none" stroke="#8080ff" d="M26.3444-73.83765C26.3444-72.73717 25.45233-71.8451 24.35185-71.8451 23.25139-71.8451 22.3593-72.73717 22.3593-73.83765 22.3593-74.93811 23.25139-75.8302 24.35185-75.8302 25.45233-75.8302 26.3444-74.93811 26.3444-73.83765ZM24.35185-73.83765"/>
<path transform="matrix(1,0,0,-1,115.378,115.378009)" d="M-7.8987-44.7815C-7.8987-43.68102-8.79079-42.78894-9.89125-42.78894-10.99171-42.78894-11.8838-43.68102-11.8838-44.7815-11.8838-45.88196-10.99171-46.77405-9.89125-46.77405-8.79079-46.77405-7.8987-45.88196-7.8987-44.7815ZM-9.89125-44.7815" fill="#8080ff"/>
<path transform="matrix(1,0,0,-1,115.378,115.378009)" stroke-width=".3985" stroke-linecap="butt" stroke-miterlimit="10" stroke-linejoin="miter" fill="none" stroke="#8080ff" d="M-7.8987-44.7815C-7.8987-43.68102-8.79079-42.78894-9.89125-42.78894-10.99171-42.78894-11.8838-43.68102-11.8838-44.7815-11.8838-45.88196-10.99171-46.77405-9.89125-46.77405-8.79079-46.77405-7.8987-45.88196-7.8987-44.7815ZM-9.89125-44.7815"/>
<path transform="matrix(1,0,0,-1,115.378,115.378009)" d="M-.93655-8.52963C-.93655-7.42917-1.82864-6.53708-2.92911-6.53708-4.02959-6.53708-4.92166-7.42917-4.92166-8.52963-4.92166-9.63011-4.02959-10.52219-2.92911-10.52219-1.82864-10.52219-.93655-9.63011-.93655-8.52963ZM-2.92911-8.52963" fill="#8080ff"/>
<path transform="matrix(1,0,0,-1,115.378,115.378009)" stroke-width=".3985" stroke-linecap="butt" stroke-miterlimit="10" stroke-linejoin="miter" fill="none" stroke="#8080ff" d="M-.93655-8.52963C-.93655-7.42917-1.82864-6.53708-2.92911-6.53708-4.02959-6.53708-4.92166-7.42917-4.92166-8.52963-4.92166-9.63011-4.02959-10.52219-2.92911-10.52219-1.82864-10.52219-.93655-9.63011-.93655-8.52963ZM-2.92911-8.52963"/>
<path transform="matrix(1,0,0,-1,115.378,115.378009)" d="M-34.39076-40.02011C-34.39076-38.91965-35.28284-38.02756-36.38332-38.02756-37.48378-38.02756-38.37587-38.91965-38.37587-40.02011-38.37587-41.12059-37.48378-42.01266-36.38332-42.01266-35.28284-42.01266-34.39076-41.12059-34.39076-40.02011ZM-36.38332-40.02011" fill="#8080ff"/>
<path transform="matrix(1,0,0,-1,115.378,115.378009)" stroke-width=".3985" stroke-linecap="butt" stroke-miterlimit="10" stroke-linejoin="miter" fill="none" stroke="#8080ff" d="M-34.39076-40.02011C-34.39076-38.91965-35.28284-38.02756-36.38332-38.02756-37.48378-38.02756-38.37587-38.91965-38.37587-40.02011-38.37587-41.12059-37.48378-42.01266-36.38332-42.01266-35.28284-42.01266-34.39076-41.12059-34.39076-40.02011ZM-36.38332-40.02011"/>
<path transform="matrix(1,0,0,-1,115.378,115.378009)" d="M11.23152 11.83072C11.23152 12.93118 10.33943 13.82327 9.23897 13.82327 8.13849 13.82327 7.24641 12.93118 7.24641 11.83072 7.24641 10.73026 8.13849 9.83817 9.23897 9.83817 10.33943 9.83817 11.23152 10.73026 11.23152 11.83072ZM9.23897 11.83072" fill="#8080ff"/>
<path transform="matrix(1,0,0,-1,115.378,115.378009)" stroke-width=".3985" stroke-linecap="butt" stroke-miterlimit="10" stroke-linejoin="miter" fill="none" stroke="#8080ff" d="M11.23152 11.83072C11.23152 12.93118 10.33943 13.82327 9.23897 13.82327 8.13849 13.82327 7.24641 12.93118 7.24641 11.83072 7.24641 10.73026 8.13849 9.83817 9.23897 9.83817 10.33943 9.83817 11.23152 10.73026 11.23152 11.83072ZM9.23897 11.83072"/>
<path transform="matrix(1,0,0,-1,115.378,115.378009)" d="M41.42787 6.06412C41.42787 7.1646 40.5358 8.05667 39.43532 8.05667 38.33485 8.05667 37.44276 7.1646 37.44276 6.06412 37.44276 4.96365 38.33485 4.07156 39.43532 4.07156 40.5358 4.07156 41.42787 4.96365 41.42787 6.06412ZM39.43532 6.06412" fill="#8080ff"/>
<path transform="matrix(1,0,0,-1,115.378,115.378009)" stroke-width=".3985" stroke-linecap="butt" stroke-miterlimit="10" stroke-linejoin="miter" fill="none" stroke="#8080ff" d="M41.42787 6.06412C41.42787 7.1646 40.5358 8.05667 39.43532 8.05667 38.33485 8.05667 37.44276 7.1646 37.44276 6.06412 37.44276 4.96365 38.33485 4.07156 39.43532 4.07156 40.5358 4.07156 41.42787 4.96365 41.42787 6.06412ZM39.43532 6.06412"/>
<path transform="matrix(1,0,0,-1,115.378,115.378009)" d="M33.69756 11.98991C33.69756 13.0904 32.80547 13.98247 31.705 13.98247 30.60452 13.98247 29.71245 13.0904 29.71245 11.98991 29.71245 10.88945 30.60452 9.99736 31.705 9.99736 32.80547 9.99736 33.69756 10.88945 33.69756 11.98991ZM31.705 11.98991" fill="#8080ff"/>
<path transform="matrix(1,0,0,-1,115.378,115.378009)" stroke-width=".3985" stroke-linecap="butt" stroke-miterlimit="10" stroke-linejoin="miter" fill="none" stroke="#8080ff" d="M33.69756 11.98991C33.69756 13.0904 32.80547 13.98247 31.705 13.98247 30.60452 13.98247 29.71245 13.0904 29.71245 11.98991 29.71245 10.88945 30.60452 9.99736 31.705 9.99736 32.80547 9.99736 33.69756 10.88945 33.69756 11.98991ZM31.705 11.98991"/>
<path transform="matrix(1,0,0,-1,115.378,115.378009)" d="M30.87047 47.03758C30.87047 48.13806 29.97838 49.03014 28.87791 49.03014 27.77744 49.03014 26.88536 48.13806 26.88536 47.03758 26.88536 45.93712 27.77744 45.04503 28.87791 45.04503 29.97838 45.04503 30.87047 45.93712 30.87047 47.03758ZM28.87791 47.03758" fill="#8080ff"/>
<path transform="matrix(1,0,0,-1,115.378,115.378009)" stroke-width=".3985" stroke-linecap="butt" stroke-miterlimit="10" stroke-linejoin="miter" fill="none" stroke="#8080ff" d="M30.87047 47.03758C30.87047 48.13806 29.97838 49.03014 28.87791 49.03014 27.77744 49.03014 26.88536 48.13806 26.88536 47.03758 26.88536 45.93712 27.77744 45.04503 28.87791 45.04503 29.97838 45.04503 30.87047 45.93712 30.87047 47.03758ZM28.87791 47.03758"/>
<path transform="matrix(1,0,0,-1,115.378,115.378009)" d="M33.65085 48.80235C33.65085 49.90283 32.75876 50.7949 31.6583 50.7949 30.55783 50.7949 29.66574 49.90283 29.66574 48.80235 29.66574 47.70189 30.55783 46.8098 31.6583 46.8098 32.75876 46.8098 33.65085 47.70189 33.65085 48.80235ZM31.6583 48.80235" fill="#8080ff"/>
<path transform="matrix(1,0,0,-1,115.378,115.378009)" stroke-width=".3985" stroke-linecap="butt" stroke-miterlimit="10" stroke-linejoin="miter" fill="none" stroke="#8080ff" d="M33.65085 48.80235C33.65085 49.90283 32.75876 50.7949 31.6583 50.7949 30.55783 50.7949 29.66574 49.90283 29.66574 48.80235 29.66574 47.70189 30.55783 46.8098 31.6583 46.8098 32.75876 46.8098 33.65085 47.70189 33.65085 48.80235ZM31.6583 48.80235"/>
<path transform="matrix(1,0,0,-1,115.378,115.378009)" d="M-49.55559 27.64777C-49.55559 28.74825-50.44766 29.64032-51.54814 29.64032-52.6486 29.64032-53.5407 28.74825-53.5407 27.64777-53.5407 26.5473-52.6486 25.65521-51.54814 25.65521-50.44766 25.65521-49.55559 26.5473-49.55559 27.64777ZM-51.54814 27.64777" fill="#8080ff"/>
<path transform="matrix(1,0,0,-1,115.378,115.378009)" stroke-width=".3985" stroke-linecap="butt" stroke-miterlimit="10" stroke-linejoin="miter" fill="none" stroke="#8080ff" d="M-49.55559 27.64777C-49.55559 28.74825-50.44766 29.64032-51.54814 29.64032-52.6486 29.64032-53.5407 28.74825-53.5407 27.64777-53.5407 26.5473-52.6486 25.65521-51.54814 25.65521-50.44766 25.65521-49.55559 26.5473-49.55559 27.64777ZM-51.54814 27.64777"/>
<path transform="matrix(1,0,0,-1,115.378,115.378009)" d="M17.39433 33.96979C17.39433 35.07025 16.50226 35.96234 15.40178 35.96234 14.30132 35.96234 13.40923 35.07025 13.40923 33.96979 13.40923 32.86931 14.30132 31.97723 15.40178 31.97723 16.50226 31.97723 17.39433 32.86931 17.39433 33.96979ZM15.40178 33.96979" fill="#8080ff"/>
<path transform="matrix(1,0,0,-1,115.378,115.378009)" stroke-width=".3985" stroke-linecap="butt" stroke-miterlimit="10" stroke-linejoin="miter" fill="none" stroke="#8080ff" d="M17.39433 33.96979C17.39433 35.07025 16.50226 35.96234 15.40178 35.96234 14.30132 35.96234 13.40923 35.07025 13.40923 33.96979 13.40923 32.86931 14.30132 31.97723 15.40178 31.97723 16.50226 31.97723 17.39433 32.86931 17.39433 33.96979ZM15.40178 33.96979"/>
<path transform="matrix(1,0,0,-1,115.378,115.378009)" d="M-9.58557 12.39478C-9.58557 13.49524-10.47765 14.38733-11.57813 14.38733-12.67859 14.38733-13.57068 13.49524-13.57068 12.39478-13.57068 11.2943-12.67859 10.40222-11.57813 10.40222-10.47765 10.40222-9.58557 11.2943-9.58557 12.39478ZM-11.57813 12.39478" fill="#8080ff"/>
<path transform="matrix(1,0,0,-1,115.378,115.378009)" stroke-width=".3985" stroke-linecap="butt" stroke-miterlimit="10" stroke-linejoin="miter" fill="none" stroke="#8080ff" d="M-9.58557 12.39478C-9.58557 13.49524-10.47765 14.38733-11.57813 14.38733-12.67859 14.38733-13.57068 13.49524-13.57068 12.39478-13.57068 11.2943-12.67859 10.40222-11.57813 10.40222-10.47765 10.40222-9.58557 11.2943-9.58557 12.39478ZM-11.57813 12.39478"/>
<path transform="matrix(1,0,0,-1,115.378,115.378009)" d="M12.95651 23.71344C12.95651 24.8139 12.06444 25.706 10.96396 25.706 9.8635 25.706 8.9714 24.8139 8.9714 23.71344 8.9714 22.61296 9.8635 21.72089 10.96396 21.72089 12.06444 21.72089 12.95651 22.61296 12.95651 23.71344ZM10.96396 23.71344" fill="#8080ff"/>
<path transform="matrix(1,0,0,-1,115.378,115.378009)" stroke-width=".3985" stroke-linecap="butt" stroke-miterlimit="10" stroke-linejoin="miter" fill="none" stroke="#8080ff" d="M12.95651 23.71344C12.95651 24.8139 12.06444 25.706 10.96396 25.706 9.8635 25.706 8.9714 24.8139 8.9714 23.71344 8.9714 22.61296 9.8635 21.72089 10.96396 21.72089 12.06444 21.72089 12.95651 22.61296 12.95651 23.71344ZM10.96396 23.71344"/>
<path transform="matrix(1,0,0,-1,115.378,115.378009)" d="M58.28644-28.80179C58.28644-27.70131 57.39436-26.80923 56.29388-26.80923 55.19342-26.80923 54.30133-27.70131 54.30133-28.80179 54.30133-29.90225 55.19342-30.79434 56.29388-30.79434 57.39436-30.79434 58.28644-29.90225 58.28644-28.80179ZM56.29388-28.80179" fill="#8080ff"/>
<path transform="matrix(1,0,0,-1,115.378,115.378009)" stroke-width=".3985" stroke-linecap="butt" stroke-miterlimit="10" stroke-linejoin="miter" fill="none" stroke="#8080ff" d="M58.28644-28.80179C58.28644-27.70131 57.39436-26.80923 56.29388-26.80923 55.19342-26.80923 54.30133-27.70131 54.30133-28.80179 54.30133-29.90225 55.19342-30.79434 56.29388-30.79434 57.39436-30.79434 58.28644-29.90225 58.28644-28.80179ZM56.29388-28.80179"/>
<path transform="matrix(1,0,0,-1,115.378,115.378009)" d="M11.81631-33.78639C11.81631-32.68591 10.92422-31.79384 9.82376-31.79384 8.72328-31.79384 7.8312-32.68591 7.8312-33.78639 7.8312-34.88686 8.72328-35.77895 9.82376-35.77895 10.92422-35.77895 11.81631-34.88686 11.81631-33.78639ZM9.82376-33.78639" fill="#8080ff"/>
<path transform="matrix(1,0,0,-1,115.378,115.378009)" stroke-width=".3985" stroke-linecap="butt" stroke-miterlimit="10" stroke-linejoin="miter" fill="none" stroke="#8080ff" d="M11.81631-33.78639C11.81631-32.68591 10.92422-31.79384 9.82376-31.79384 8.72328-31.79384 7.8312-32.68591 7.8312-33.78639 7.8312-34.88686 8.72328-35.77895 9.82376-35.77895 10.92422-35.77895 11.81631-34.88686 11.81631-33.78639ZM9.82376-33.78639"/>
<path transform="matrix(1,0,0,-1,115.378,115.378009)" stroke-width="1.19553" stroke-linecap="butt" stroke-miterlimit="10" stroke-linejoin="miter" fill="none" stroke="#0000ff" d="M0 90.71008 56.69359 56.69359"/>
<path transform="matrix(1,0,0,-1,115.378,115.378009)" stroke-width="1.19553" stroke-linecap="butt" stroke-miterlimit="10" stroke-linejoin="miter" fill="none" stroke="#0000ff" d="M0 90.71008-68.03297 68.03297"/>
</g>
<path transform="matrix(1,0,0,-1,115.378,115.378009)" stroke-width=".3985" stroke-linecap="butt" stroke-miterlimit="10" stroke-linejoin="miter" fill="none" stroke="#000000" d="M283.46806-113.38724"/>
<text fill="#ff0000" xml:space="preserve" transform="matrix(1 0 -0 1 0 259.312)" font-size="9.9626" font-family="CMR10"><tspan y="-20.11" x="330.339 337.67149 342.09489 350.95164 356.7698 361.7511 364.5207 369.78096 373.6564">Redpoints</tspan></text>
<text xml:space="preserve" transform="matrix(1 0 -0 1 0 259.312)" font-size="9.9626" font-family="CMR10"><tspan y="-20.11" x="380.90919 385.89048 389.7958 397.53675 402.797 405.5666 409.49186 412.26145 417.80067 420.57026 428.3112 431.35975 435.26509 440.24638">arevisiblefrom</tspan></text>
<text fill="#0000ff" xml:space="preserve" transform="matrix(1 0 -0 1 0 259.312)" font-size="9.9626" font-family="CMMI10" font-style="italic"><tspan y="-20.11" x="451.856">X</tspan></text>
<text fill="#0000ff" xml:space="preserve" transform="matrix(1 0 -0 1 0 259.312)" font-size="6.9738" font-family="CMR7"><tspan y="-18.616002" x="460.11">1</tspan></text>
<text xml:space="preserve" transform="matrix(1 0 -0 1 0 259.312)" font-size="9.9626" font-family="CMR10"><tspan y="-20.11" x="464.57899">:</tspan></text>
<path transform="matrix(1,0,0,-1,115.378,115.378009)" stroke-width=".3985" stroke-linecap="butt" stroke-miterlimit="10" stroke-linejoin="miter" fill="none" stroke="#000000" d="M283.46806-125.85985"/>
<text xml:space="preserve" transform="matrix(1 0 -0 1 0 259.312)" font-size="9.9626" font-family="CMR10"><tspan y="-7.638" x="344.408 351.32203 359.07295 363.49635 368.47764 373.73789 377.61335 381.51869 386.49998 392.5871 398.1263 403.1076 405.8772 409.78254 417.02534 422.00663 428.3827 432.25816 437.79737 442.22077 450.51963">wecontrolpairsofthem.</tspan></text>
<g clip-path="url(#clip_1)">
<path transform="matrix(1,0,0,-1,115.378,115.378009)" d="M170.08083-11.33939 283.46806 90.71008 396.8553-11.33939V113.38724H170.08083Z" fill="#f2f2ff"/>
<g clip-path="url(#clip_2)">
<path transform="matrix(1,0,0,-1,115.378,115.378009)" d="M351.50105 0C351.50105 37.57405 321.0421 68.03297 283.46806 68.03297 245.894 68.03297 215.43508 37.57405 215.43508 0 215.43508-37.57405 245.894-68.03297 283.46806-68.03297 321.0421-68.03297 351.50105-37.57405 351.50105 0ZM396.8553 0C396.8553 62.62283 346.0909 113.38724 283.46806 113.38724 220.84522 113.38724 170.08083 62.62283 170.08083 0 170.08083-62.62283 220.84522-113.38724 283.46806-113.38724 346.0909-113.38724 396.8553-62.62283 396.8553 0ZM283.46806 0" fill="#f2f2ff"/>
</g>
<path transform="matrix(1,0,0,-1,115.378,115.378009)" stroke-width=".3985" stroke-linecap="butt" stroke-miterlimit="10" stroke-linejoin="miter" fill="none" stroke="#000000" d="M396.8553 0C396.8553 62.62283 346.0909 113.38724 283.46806 113.38724 220.84522 113.38724 170.08083 62.62283 170.08083 0 170.08083-62.62283 220.84522-113.38724 283.46806-113.38724 346.0909-113.38724 396.8553-62.62283 396.8553 0ZM283.46806 0"/>
<path transform="matrix(1,0,0,-1,115.378,115.378009)" d="M221.74779 58.15382C221.74779 59.25429 220.8557 60.14638 219.75524 60.14638 218.65476 60.14638 217.76268 59.25429 217.76268 58.15382 217.76268 57.05334 218.65476 56.16127 219.75524 56.16127 220.8557 56.16127 221.74779 57.05334 221.74779 58.15382ZM219.75524 58.15382" fill="#ff6666"/>
<path transform="matrix(1,0,0,-1,115.378,115.378009)" stroke-width=".3985" stroke-linecap="butt" stroke-miterlimit="10" stroke-linejoin="miter" fill="none" stroke="#ff6666" d="M221.74779 58.15382C221.74779 59.25429 220.8557 60.14638 219.75524 60.14638 218.65476 60.14638 217.76268 59.25429 217.76268 58.15382 217.76268 57.05334 218.65476 56.16127 219.75524 56.16127 220.8557 56.16127 221.74779 57.05334 221.74779 58.15382ZM219.75524 58.15382"/>
<path transform="matrix(1,0,0,-1,115.378,115.378009)" d="M268.87886 71.6421C268.87886 72.74258 267.98677 73.63466 266.8863 73.63466 265.7858 73.63466 264.89375 72.74258 264.89375 71.6421 264.89375 70.54164 265.7858 69.64955 266.8863 69.64955 267.98677 69.64955 268.87886 70.54164 268.87886 71.6421ZM266.8863 71.6421" fill="#ff6666"/>
<path transform="matrix(1,0,0,-1,115.378,115.378009)" stroke-width=".3985" stroke-linecap="butt" stroke-miterlimit="10" stroke-linejoin="miter" fill="none" stroke="#ff6666" d="M268.87886 71.6421C268.87886 72.74258 267.98677 73.63466 266.8863 73.63466 265.7858 73.63466 264.89375 72.74258 264.89375 71.6421 264.89375 70.54164 265.7858 69.64955 266.8863 69.64955 267.98677 69.64955 268.87886 70.54164 268.87886 71.6421ZM266.8863 71.6421"/>
<path transform="matrix(1,0,0,-1,115.378,115.378009)" d="M245.06678 57.01884C245.06678 58.11931 244.17469 59.0114 243.07422 59.0114 241.97374 59.0114 241.08167 58.11931 241.08167 57.01884 241.08167 55.91837 241.97374 55.02629 243.07422 55.02629 244.17469 55.02629 245.06678 55.91837 245.06678 57.01884ZM243.07422 57.01884" fill="#ff6666"/>
<path transform="matrix(1,0,0,-1,115.378,115.378009)" stroke-width=".3985" stroke-linecap="butt" stroke-miterlimit="10" stroke-linejoin="miter" fill="none" stroke="#ff6666" d="M245.06678 57.01884C245.06678 58.11931 244.17469 59.0114 243.07422 59.0114 241.97374 59.0114 241.08167 58.11931 241.08167 57.01884 241.08167 55.91837 241.97374 55.02629 243.07422 55.02629 244.17469 55.02629 245.06678 55.91837 245.06678 57.01884ZM243.07422 57.01884"/>
<path transform="matrix(1,0,0,-1,115.378,115.378009)" d="M325.85447-20.73586C325.85447-19.63539 324.96238-18.7433 323.8619-18.7433 322.76145-18.7433 321.86936-19.63539 321.86936-20.73586 321.86936-21.83633 322.76145-22.72841 323.8619-22.72841 324.96238-22.72841 325.85447-21.83633 325.85447-20.73586ZM323.8619-20.73586" fill="#8080ff"/>
<path transform="matrix(1,0,0,-1,115.378,115.378009)" stroke-width=".3985" stroke-linecap="butt" stroke-miterlimit="10" stroke-linejoin="miter" fill="none" stroke="#8080ff" d="M325.85447-20.73586C325.85447-19.63539 324.96238-18.7433 323.8619-18.7433 322.76145-18.7433 321.86936-19.63539 321.86936-20.73586 321.86936-21.83633 322.76145-22.72841 323.8619-22.72841 324.96238-22.72841 325.85447-21.83633 325.85447-20.73586ZM323.8619-20.73586"/>
<path transform="matrix(1,0,0,-1,115.378,115.378009)" d="M256.96507 8.63515C256.96507 9.73561 256.07298 10.6277 254.9725 10.6277 253.87203 10.6277 252.97995 9.73561 252.97995 8.63515 252.97995 7.53467 253.87203 6.6426 254.9725 6.6426 256.07298 6.6426 256.96507 7.53467 256.96507 8.63515ZM254.9725 8.63515" fill="#8080ff"/>
<path transform="matrix(1,0,0,-1,115.378,115.378009)" stroke-width=".3985" stroke-linecap="butt" stroke-miterlimit="10" stroke-linejoin="miter" fill="none" stroke="#8080ff" d="M256.96507 8.63515C256.96507 9.73561 256.07298 10.6277 254.9725 10.6277 253.87203 10.6277 252.97995 9.73561 252.97995 8.63515 252.97995 7.53467 253.87203 6.6426 254.9725 6.6426 256.07298 6.6426 256.96507 7.53467 256.96507 8.63515ZM254.9725 8.63515"/>
<path transform="matrix(1,0,0,-1,115.378,115.378009)" d="M310.8765 8.19398C310.8765 9.29445 309.9844 10.18654 308.88395 10.18654 307.78349 10.18654 306.8914 9.29445 306.8914 8.19398 306.8914 7.0935 307.78349 6.20143 308.88395 6.20143 309.9844 6.20143 310.8765 7.0935 310.8765 8.19398ZM308.88395 8.19398" fill="#8080ff"/>
<path transform="matrix(1,0,0,-1,115.378,115.378009)" stroke-width=".3985" stroke-linecap="butt" stroke-miterlimit="10" stroke-linejoin="miter" fill="none" stroke="#8080ff" d="M310.8765 8.19398C310.8765 9.29445 309.9844 10.18654 308.88395 10.18654 307.78349 10.18654 306.8914 9.29445 306.8914 8.19398 306.8914 7.0935 307.78349 6.20143 308.88395 6.20143 309.9844 6.20143 310.8765 7.0935 310.8765 8.19398ZM308.88395 8.19398"/>
<path transform="matrix(1,0,0,-1,115.378,115.378009)" d="M320.91835-16.04367C320.91835-14.9432 320.02626-14.05112 318.92579-14.05112 317.8253-14.05112 316.9332-14.9432 316.9332-16.04367 316.9332-17.14415 317.8253-18.03622 318.92579-18.03622 320.02626-18.03622 320.91835-17.14415 320.91835-16.04367ZM318.92579-16.04367" fill="#8080ff"/>
<path transform="matrix(1,0,0,-1,115.378,115.378009)" stroke-width=".3985" stroke-linecap="butt" stroke-miterlimit="10" stroke-linejoin="miter" fill="none" stroke="#8080ff" d="M320.91835-16.04367C320.91835-14.9432 320.02626-14.05112 318.92579-14.05112 317.8253-14.05112 316.9332-14.9432 316.9332-16.04367 316.9332-17.14415 317.8253-18.03622 318.92579-18.03622 320.02626-18.03622 320.91835-17.14415 320.91835-16.04367ZM318.92579-16.04367"/>
<path transform="matrix(1,0,0,-1,115.378,115.378009)" d="M280.2996 18.14233C280.2996 19.24281 279.40754 20.13489 278.30705 20.13489 277.20658 20.13489 276.3145 19.24281 276.3145 18.14233 276.3145 17.04187 277.20658 16.14978 278.30705 16.14978 279.40754 16.14978 280.2996 17.04187 280.2996 18.14233ZM278.30705 18.14233" fill="#8080ff"/>
<path transform="matrix(1,0,0,-1,115.378,115.378009)" stroke-width=".3985" stroke-linecap="butt" stroke-miterlimit="10" stroke-linejoin="miter" fill="none" stroke="#8080ff" d="M280.2996 18.14233C280.2996 19.24281 279.40754 20.13489 278.30705 20.13489 277.20658 20.13489 276.3145 19.24281 276.3145 18.14233 276.3145 17.04187 277.20658 16.14978 278.30705 16.14978 279.40754 16.14978 280.2996 17.04187 280.2996 18.14233ZM278.30705 18.14233"/>
<path transform="matrix(1,0,0,-1,115.378,115.378009)" d="M343.96739-51.91663C343.96739-50.81616 343.0753-49.92407 341.97483-49.92407 340.87434-49.92407 339.98228-50.81616 339.98228-51.91663 339.98228-53.0171 340.87434-53.90918 341.97483-53.90918 343.0753-53.90918 343.96739-53.0171 343.96739-51.91663ZM341.97483-51.91663" fill="#8080ff"/>
<path transform="matrix(1,0,0,-1,115.378,115.378009)" stroke-width=".3985" stroke-linecap="butt" stroke-miterlimit="10" stroke-linejoin="miter" fill="none" stroke="#8080ff" d="M343.96739-51.91663C343.96739-50.81616 343.0753-49.92407 341.97483-49.92407 340.87434-49.92407 339.98228-50.81616 339.98228-51.91663 339.98228-53.0171 340.87434-53.90918 341.97483-53.90918 343.0753-53.90918 343.96739-53.0171 343.96739-51.91663ZM341.97483-51.91663"/>
<path transform="matrix(1,0,0,-1,115.378,115.378009)" d="M312.07206 12.39647C312.07206 13.49695 311.17997 14.38902 310.07948 14.38902 308.97904 14.38902 308.08695 13.49695 308.08695 12.39647 308.08695 11.296 308.97904 10.40392 310.07948 10.40392 311.17997 10.40392 312.07206 11.296 312.07206 12.39647ZM310.07948 12.39647" fill="#8080ff"/>
<path transform="matrix(1,0,0,-1,115.378,115.378009)" stroke-width=".3985" stroke-linecap="butt" stroke-miterlimit="10" stroke-linejoin="miter" fill="none" stroke="#8080ff" d="M312.07206 12.39647C312.07206 13.49695 311.17997 14.38902 310.07948 14.38902 308.97904 14.38902 308.08695 13.49695 308.08695 12.39647 308.08695 11.296 308.97904 10.40392 310.07948 10.40392 311.17997 10.40392 312.07206 11.296 312.07206 12.39647ZM310.07948 12.39647"/>
<path transform="matrix(1,0,0,-1,115.378,115.378009)" d="M308.62388-14.26505C308.62388-13.16457 307.73179-12.27249 306.63133-12.27249 305.53086-12.27249 304.63877-13.16457 304.63877-14.26505 304.63877-15.36551 305.53086-16.2576 306.63133-16.2576 307.73179-16.2576 308.62388-15.36551 308.62388-14.26505ZM306.63133-14.26505" fill="#8080ff"/>
<path transform="matrix(1,0,0,-1,115.378,115.378009)" stroke-width=".3985" stroke-linecap="butt" stroke-miterlimit="10" stroke-linejoin="miter" fill="none" stroke="#8080ff" d="M308.62388-14.26505C308.62388-13.16457 307.73179-12.27249 306.63133-12.27249 305.53086-12.27249 304.63877-13.16457 304.63877-14.26505 304.63877-15.36551 305.53086-16.2576 306.63133-16.2576 307.73179-16.2576 308.62388-15.36551 308.62388-14.26505ZM306.63133-14.26505"/>
<path transform="matrix(1,0,0,-1,115.378,115.378009)" d="M315.54795 2.56749C315.54795 3.66795 314.65589 4.56004 313.5554 4.56004 312.45494 4.56004 311.56285 3.66795 311.56285 2.56749 311.56285 1.46701 312.45494 .57494 313.5554 .57494 314.65589 .57494 315.54795 1.46701 315.54795 2.56749ZM313.5554 2.56749" fill="#8080ff"/>
<path transform="matrix(1,0,0,-1,115.378,115.378009)" stroke-width=".3985" stroke-linecap="butt" stroke-miterlimit="10" stroke-linejoin="miter" fill="none" stroke="#8080ff" d="M315.54795 2.56749C315.54795 3.66795 314.65589 4.56004 313.5554 4.56004 312.45494 4.56004 311.56285 3.66795 311.56285 2.56749 311.56285 1.46701 312.45494 .57494 313.5554 .57494 314.65589 .57494 315.54795 1.46701 315.54795 2.56749ZM313.5554 2.56749"/>
<path transform="matrix(1,0,0,-1,115.378,115.378009)" d="M262.43577 44.79013C262.43577 45.8906 261.54368 46.78268 260.4432 46.78268 259.34275 46.78268 258.45066 45.8906 258.45066 44.79013 258.45066 43.68965 259.34275 42.79758 260.4432 42.79758 261.54368 42.79758 262.43577 43.68965 262.43577 44.79013ZM260.4432 44.79013" fill="#8080ff"/>
<path transform="matrix(1,0,0,-1,115.378,115.378009)" stroke-width=".3985" stroke-linecap="butt" stroke-miterlimit="10" stroke-linejoin="miter" fill="none" stroke="#8080ff" d="M262.43577 44.79013C262.43577 45.8906 261.54368 46.78268 260.4432 46.78268 259.34275 46.78268 258.45066 45.8906 258.45066 44.79013 258.45066 43.68965 259.34275 42.79758 260.4432 42.79758 261.54368 42.79758 262.43577 43.68965 262.43577 44.79013ZM260.4432 44.79013"/>
<path transform="matrix(1,0,0,-1,115.378,115.378009)" d="M261.09666-47.24695C261.09666-46.14648 260.20457-45.2544 259.1041-45.2544 258.00364-45.2544 257.11155-46.14648 257.11155-47.24695 257.11155-48.34743 258.00364-49.2395 259.1041-49.2395 260.20457-49.2395 261.09666-48.34743 261.09666-47.24695ZM259.1041-47.24695" fill="#8080ff"/>
<path transform="matrix(1,0,0,-1,115.378,115.378009)" stroke-width=".3985" stroke-linecap="butt" stroke-miterlimit="10" stroke-linejoin="miter" fill="none" stroke="#8080ff" d="M261.09666-47.24695C261.09666-46.14648 260.20457-45.2544 259.1041-45.2544 258.00364-45.2544 257.11155-46.14648 257.11155-47.24695 257.11155-48.34743 258.00364-49.2395 259.1041-49.2395 260.20457-49.2395 261.09666-48.34743 261.09666-47.24695ZM259.1041-47.24695"/>
<path transform="matrix(1,0,0,-1,115.378,115.378009)" d="M271.98625-14.6232C271.98625-13.52274 271.09416-12.63065 269.9937-12.63065 268.89323-12.63065 268.00114-13.52274 268.00114-14.6232 268.00114-15.72368 268.89323-16.61575 269.9937-16.61575 271.09416-16.61575 271.98625-15.72368 271.98625-14.6232ZM269.9937-14.6232" fill="#8080ff"/>
<path transform="matrix(1,0,0,-1,115.378,115.378009)" stroke-width=".3985" stroke-linecap="butt" stroke-miterlimit="10" stroke-linejoin="miter" fill="none" stroke="#8080ff" d="M271.98625-14.6232C271.98625-13.52274 271.09416-12.63065 269.9937-12.63065 268.89323-12.63065 268.00114-13.52274 268.00114-14.6232 268.00114-15.72368 268.89323-16.61575 269.9937-16.61575 271.09416-16.61575 271.98625-15.72368 271.98625-14.6232ZM269.9937-14.6232"/>
<path transform="matrix(1,0,0,-1,115.378,115.378009)" d="M217.38263-12.16292C217.38263-11.06244 216.49054-10.17036 215.39008-10.17036 214.2896-10.17036 213.39752-11.06244 213.39752-12.16292 213.39752-13.26338 214.2896-14.15547 215.39008-14.15547 216.49054-14.15547 217.38263-13.26338 217.38263-12.16292ZM215.39008-12.16292" fill="#8080ff"/>
<path transform="matrix(1,0,0,-1,115.378,115.378009)" stroke-width=".3985" stroke-linecap="butt" stroke-miterlimit="10" stroke-linejoin="miter" fill="none" stroke="#8080ff" d="M217.38263-12.16292C217.38263-11.06244 216.49054-10.17036 215.39008-10.17036 214.2896-10.17036 213.39752-11.06244 213.39752-12.16292 213.39752-13.26338 214.2896-14.15547 215.39008-14.15547 216.49054-14.15547 217.38263-13.26338 217.38263-12.16292ZM215.39008-12.16292"/>
<path transform="matrix(1,0,0,-1,115.378,115.378009)" d="M345.35673-6.42229C345.35673-5.32181 344.46464-4.42973 343.36418-4.42973 342.2637-4.42973 341.3716-5.32181 341.3716-6.42229 341.3716-7.52275 342.2637-8.41484 343.36418-8.41484 344.46464-8.41484 345.35673-7.52275 345.35673-6.42229ZM343.36418-6.42229" fill="#8080ff"/>
<path transform="matrix(1,0,0,-1,115.378,115.378009)" stroke-width=".3985" stroke-linecap="butt" stroke-miterlimit="10" stroke-linejoin="miter" fill="none" stroke="#8080ff" d="M345.35673-6.42229C345.35673-5.32181 344.46464-4.42973 343.36418-4.42973 342.2637-4.42973 341.3716-5.32181 341.3716-6.42229 341.3716-7.52275 342.2637-8.41484 343.36418-8.41484 344.46464-8.41484 345.35673-7.52275 345.35673-6.42229ZM343.36418-6.42229"/>
<path transform="matrix(1,0,0,-1,115.378,115.378009)" d="M291.75144 65.29419C291.75144 66.39467 290.85939 67.28674 289.75889 67.28674 288.65843 67.28674 287.76634 66.39467 287.76634 65.29419 287.76634 64.19373 288.65843 63.30164 289.75889 63.30164 290.85939 63.30164 291.75144 64.19373 291.75144 65.29419ZM289.75889 65.29419" fill="#8080ff"/>
<path transform="matrix(1,0,0,-1,115.378,115.378009)" stroke-width=".3985" stroke-linecap="butt" stroke-miterlimit="10" stroke-linejoin="miter" fill="none" stroke="#8080ff" d="M291.75144 65.29419C291.75144 66.39467 290.85939 67.28674 289.75889 67.28674 288.65843 67.28674 287.76634 66.39467 287.76634 65.29419 287.76634 64.19373 288.65843 63.30164 289.75889 63.30164 290.85939 63.30164 291.75144 64.19373 291.75144 65.29419ZM289.75889 65.29419"/>
<path transform="matrix(1,0,0,-1,115.378,115.378009)" d="M277.72859 55.64859C277.72859 56.74907 276.8365 57.64114 275.73603 57.64114 274.63557 57.64114 273.74348 56.74907 273.74348 55.64859 273.74348 54.54813 274.63557 53.65604 275.73603 53.65604 276.8365 53.65604 277.72859 54.54813 277.72859 55.64859ZM275.73603 55.64859" fill="#8080ff"/>
<path transform="matrix(1,0,0,-1,115.378,115.378009)" stroke-width=".3985" stroke-linecap="butt" stroke-miterlimit="10" stroke-linejoin="miter" fill="none" stroke="#8080ff" d="M277.72859 55.64859C277.72859 56.74907 276.8365 57.64114 275.73603 57.64114 274.63557 57.64114 273.74348 56.74907 273.74348 55.64859 273.74348 54.54813 274.63557 53.65604 275.73603 53.65604 276.8365 53.65604 277.72859 54.54813 277.72859 55.64859ZM275.73603 55.64859"/>
<path transform="matrix(1,0,0,-1,115.378,115.378009)" d="M293.87953-18.6164C293.87953-17.51593 292.98744-16.62384 291.887-16.62384 290.7865-16.62384 289.8944-17.51593 289.8944-18.6164 289.8944-19.71687 290.7865-20.60895 291.887-20.60895 292.98744-20.60895 293.87953-19.71687 293.87953-18.6164ZM291.887-18.6164" fill="#8080ff"/>
<path transform="matrix(1,0,0,-1,115.378,115.378009)" stroke-width=".3985" stroke-linecap="butt" stroke-miterlimit="10" stroke-linejoin="miter" fill="none" stroke="#8080ff" d="M293.87953-18.6164C293.87953-17.51593 292.98744-16.62384 291.887-16.62384 290.7865-16.62384 289.8944-17.51593 289.8944-18.6164 289.8944-19.71687 290.7865-20.60895 291.887-20.60895 292.98744-20.60895 293.87953-19.71687 293.87953-18.6164ZM291.887-18.6164"/>
<path transform="matrix(1,0,0,-1,115.378,115.378009)" d="M257.7488-25.98857C257.7488-24.88809 256.85673-23.99602 255.75626-23.99602 254.65578-23.99602 253.7637-24.88809 253.7637-25.98857 253.7637-27.08904 254.65578-27.98112 255.75626-27.98112 256.85673-27.98112 257.7488-27.08904 257.7488-25.98857ZM255.75626-25.98857" fill="#8080ff"/>
<path transform="matrix(1,0,0,-1,115.378,115.378009)" stroke-width=".3985" stroke-linecap="butt" stroke-miterlimit="10" stroke-linejoin="miter" fill="none" stroke="#8080ff" d="M257.7488-25.98857C257.7488-24.88809 256.85673-23.99602 255.75626-23.99602 254.65578-23.99602 253.7637-24.88809 253.7637-25.98857 253.7637-27.08904 254.65578-27.98112 255.75626-27.98112 256.85673-27.98112 257.7488-27.08904 257.7488-25.98857ZM255.75626-25.98857"/>
<path transform="matrix(1,0,0,-1,115.378,115.378009)" d="M219.98648-21.10089C219.98648-20.00041 219.0944-19.10834 217.99393-19.10834 216.89347-19.10834 216.00138-20.00041 216.00138-21.10089 216.00138-22.20135 216.89347-23.09344 217.99393-23.09344 219.0944-23.09344 219.98648-22.20135 219.98648-21.10089ZM217.99393-21.10089" fill="#8080ff"/>
<path transform="matrix(1,0,0,-1,115.378,115.378009)" stroke-width=".3985" stroke-linecap="butt" stroke-miterlimit="10" stroke-linejoin="miter" fill="none" stroke="#8080ff" d="M219.98648-21.10089C219.98648-20.00041 219.0944-19.10834 217.99393-19.10834 216.89347-19.10834 216.00138-20.00041 216.00138-21.10089 216.00138-22.20135 216.89347-23.09344 217.99393-23.09344 219.0944-23.09344 219.98648-22.20135 219.98648-21.10089ZM217.99393-21.10089"/>
<path transform="matrix(1,0,0,-1,115.378,115.378009)" d="M252.72274 15.9364C252.72274 17.03688 251.83065 17.92896 250.73018 17.92896 249.6297 17.92896 248.73763 17.03688 248.73763 15.9364 248.73763 14.83594 249.6297 13.94385 250.73018 13.94385 251.83065 13.94385 252.72274 14.83594 252.72274 15.9364ZM250.73018 15.9364" fill="#8080ff"/>
<path transform="matrix(1,0,0,-1,115.378,115.378009)" stroke-width=".3985" stroke-linecap="butt" stroke-miterlimit="10" stroke-linejoin="miter" fill="none" stroke="#8080ff" d="M252.72274 15.9364C252.72274 17.03688 251.83065 17.92896 250.73018 17.92896 249.6297 17.92896 248.73763 17.03688 248.73763 15.9364 248.73763 14.83594 249.6297 13.94385 250.73018 13.94385 251.83065 13.94385 252.72274 14.83594 252.72274 15.9364ZM250.73018 15.9364"/>
<path transform="matrix(1,0,0,-1,115.378,115.378009)" d="M306.41618 47.78157C306.41618 48.88205 305.5241 49.77412 304.42366 49.77412 303.32316 49.77412 302.4311 48.88205 302.4311 47.78157 302.4311 46.6811 303.32316 45.78902 304.42366 45.78902 305.5241 45.78902 306.41618 46.6811 306.41618 47.78157ZM304.42366 47.78157" fill="#8080ff"/>
<path transform="matrix(1,0,0,-1,115.378,115.378009)" stroke-width=".3985" stroke-linecap="butt" stroke-miterlimit="10" stroke-linejoin="miter" fill="none" stroke="#8080ff" d="M306.41618 47.78157C306.41618 48.88205 305.5241 49.77412 304.42366 49.77412 303.32316 49.77412 302.4311 48.88205 302.4311 47.78157 302.4311 46.6811 303.32316 45.78902 304.42366 45.78902 305.5241 45.78902 306.41618 46.6811 306.41618 47.78157ZM304.42366 47.78157"/>
<path transform="matrix(1,0,0,-1,115.378,115.378009)" d="M257.94084 28.49556C257.94084 29.59602 257.04875 30.48811 255.94829 30.48811 254.84781 30.48811 253.95574 29.59602 253.95574 28.49556 253.95574 27.39508 254.84781 26.503 255.94829 26.503 257.04875 26.503 257.94084 27.39508 257.94084 28.49556ZM255.94829 28.49556" fill="#8080ff"/>
<path transform="matrix(1,0,0,-1,115.378,115.378009)" stroke-width=".3985" stroke-linecap="butt" stroke-miterlimit="10" stroke-linejoin="miter" fill="none" stroke="#8080ff" d="M257.94084 28.49556C257.94084 29.59602 257.04875 30.48811 255.94829 30.48811 254.84781 30.48811 253.95574 29.59602 253.95574 28.49556 253.95574 27.39508 254.84781 26.503 255.94829 26.503 257.04875 26.503 257.94084 27.39508 257.94084 28.49556ZM255.94829 28.49556"/>
<path transform="matrix(1,0,0,-1,115.378,115.378009)" d="M244.33841-30.64961C244.33841-29.54915 243.44634-28.65706 242.34586-28.65706 241.24539-28.65706 240.3533-29.54915 240.3533-30.64961 240.3533-31.75009 241.24539-32.64217 242.34586-32.64217 243.44634-32.64217 244.33841-31.75009 244.33841-30.64961ZM242.34586-30.64961" fill="#8080ff"/>
<path transform="matrix(1,0,0,-1,115.378,115.378009)" stroke-width=".3985" stroke-linecap="butt" stroke-miterlimit="10" stroke-linejoin="miter" fill="none" stroke="#8080ff" d="M244.33841-30.64961C244.33841-29.54915 243.44634-28.65706 242.34586-28.65706 241.24539-28.65706 240.3533-29.54915 240.3533-30.64961 240.3533-31.75009 241.24539-32.64217 242.34586-32.64217 243.44634-32.64217 244.33841-31.75009 244.33841-30.64961ZM242.34586-30.64961"/>
<path transform="matrix(1,0,0,-1,115.378,115.378009)" d="M320.26606 53.84576C320.26606 54.94624 319.37397 55.83832 318.27348 55.83832 317.173 55.83832 316.28096 54.94624 316.28096 53.84576 316.28096 52.7453 317.173 51.85321 318.27348 51.85321 319.37397 51.85321 320.26606 52.7453 320.26606 53.84576ZM318.27348 53.84576" fill="#8080ff"/>
<path transform="matrix(1,0,0,-1,115.378,115.378009)" stroke-width=".3985" stroke-linecap="butt" stroke-miterlimit="10" stroke-linejoin="miter" fill="none" stroke="#8080ff" d="M320.26606 53.84576C320.26606 54.94624 319.37397 55.83832 318.27348 55.83832 317.173 55.83832 316.28096 54.94624 316.28096 53.84576 316.28096 52.7453 317.173 51.85321 318.27348 51.85321 319.37397 51.85321 320.26606 52.7453 320.26606 53.84576ZM318.27348 53.84576"/>
<path transform="matrix(1,0,0,-1,115.378,115.378009)" d="M282.73564-7.49846C282.73564-6.398 281.84355-5.5059 280.74308-5.5059 279.6426-5.5059 278.75053-6.398 278.75053-7.49846 278.75053-8.59894 279.6426-9.49101 280.74308-9.49101 281.84355-9.49101 282.73564-8.59894 282.73564-7.49846ZM280.74308-7.49846" fill="#8080ff"/>
<path transform="matrix(1,0,0,-1,115.378,115.378009)" stroke-width=".3985" stroke-linecap="butt" stroke-miterlimit="10" stroke-linejoin="miter" fill="none" stroke="#8080ff" d="M282.73564-7.49846C282.73564-6.398 281.84355-5.5059 280.74308-5.5059 279.6426-5.5059 278.75053-6.398 278.75053-7.49846 278.75053-8.59894 279.6426-9.49101 280.74308-9.49101 281.84355-9.49101 282.73564-8.59894 282.73564-7.49846ZM280.74308-7.49846"/>
<path transform="matrix(1,0,0,-1,115.378,115.378009)" d="M295.19267-24.86052C295.19267-23.76004 294.3006-22.86797 293.20014-22.86797 292.09968-22.86797 291.20759-23.76004 291.20759-24.86052 291.20759-25.96098 292.09968-26.85307 293.20014-26.85307 294.3006-26.85307 295.19267-25.96098 295.19267-24.86052ZM293.20014-24.86052" fill="#8080ff"/>
<path transform="matrix(1,0,0,-1,115.378,115.378009)" stroke-width=".3985" stroke-linecap="butt" stroke-miterlimit="10" stroke-linejoin="miter" fill="none" stroke="#8080ff" d="M295.19267-24.86052C295.19267-23.76004 294.3006-22.86797 293.20014-22.86797 292.09968-22.86797 291.20759-23.76004 291.20759-24.86052 291.20759-25.96098 292.09968-26.85307 293.20014-26.85307 294.3006-26.85307 295.19267-25.96098 295.19267-24.86052ZM293.20014-24.86052"/>
<path transform="matrix(1,0,0,-1,115.378,115.378009)" d="M347.97096-16.50563C347.97096-15.40517 347.0789-14.51308 345.97843-14.51308 344.87794-14.51308 343.98588-15.40517 343.98588-16.50563 343.98588-17.60611 344.87794-18.49818 345.97843-18.49818 347.0789-18.49818 347.97096-17.60611 347.97096-16.50563ZM345.97843-16.50563" fill="#8080ff"/>
<path transform="matrix(1,0,0,-1,115.378,115.378009)" stroke-width=".3985" stroke-linecap="butt" stroke-miterlimit="10" stroke-linejoin="miter" fill="none" stroke="#8080ff" d="M347.97096-16.50563C347.97096-15.40517 347.0789-14.51308 345.97843-14.51308 344.87794-14.51308 343.98588-15.40517 343.98588-16.50563 343.98588-17.60611 344.87794-18.49818 345.97843-18.49818 347.0789-18.49818 347.97096-17.60611 347.97096-16.50563ZM345.97843-16.50563"/>
<path transform="matrix(1,0,0,-1,115.378,115.378009)" d="M266.75599-35.0926C266.75599-33.99213 265.8639-33.10005 264.76344-33.10005 263.66297-33.10005 262.77088-33.99213 262.77088-35.0926 262.77088-36.19307 263.66297-37.08516 264.76344-37.08516 265.8639-37.08516 266.75599-36.19307 266.75599-35.0926ZM264.76344-35.0926" fill="#8080ff"/>
<path transform="matrix(1,0,0,-1,115.378,115.378009)" stroke-width=".3985" stroke-linecap="butt" stroke-miterlimit="10" stroke-linejoin="miter" fill="none" stroke="#8080ff" d="M266.75599-35.0926C266.75599-33.99213 265.8639-33.10005 264.76344-33.10005 263.66297-33.10005 262.77088-33.99213 262.77088-35.0926 262.77088-36.19307 263.66297-37.08516 264.76344-37.08516 265.8639-37.08516 266.75599-36.19307 266.75599-35.0926ZM264.76344-35.0926"/>
<path transform="matrix(1,0,0,-1,115.378,115.378009)" d="M291.2324 14.64917C291.2324 15.74963 290.3403 16.64172 289.2398 16.64172 288.13938 16.64172 287.24729 15.74963 287.24729 14.64917 287.24729 13.54869 288.13938 12.65662 289.2398 12.65662 290.3403 12.65662 291.2324 13.54869 291.2324 14.64917ZM289.2398 14.64917" fill="#8080ff"/>
<path transform="matrix(1,0,0,-1,115.378,115.378009)" stroke-width=".3985" stroke-linecap="butt" stroke-miterlimit="10" stroke-linejoin="miter" fill="none" stroke="#8080ff" d="M291.2324 14.64917C291.2324 15.74963 290.3403 16.64172 289.2398 16.64172 288.13938 16.64172 287.24729 15.74963 287.24729 14.64917 287.24729 13.54869 288.13938 12.65662 289.2398 12.65662 290.3403 12.65662 291.2324 13.54869 291.2324 14.64917ZM289.2398 14.64917"/>
<path transform="matrix(1,0,0,-1,115.378,115.378009)" d="M341.63169 44.82472C341.63169 45.9252 340.7396 46.81728 339.63914 46.81728 338.53865 46.81728 337.64659 45.9252 337.64659 44.82472 337.64659 43.72426 338.53865 42.83217 339.63914 42.83217 340.7396 42.83217 341.63169 43.72426 341.63169 44.82472ZM339.63914 44.82472" fill="#ff6666"/>
<path transform="matrix(1,0,0,-1,115.378,115.378009)" stroke-width=".3985" stroke-linecap="butt" stroke-miterlimit="10" stroke-linejoin="miter" fill="none" stroke="#ff6666" d="M341.63169 44.82472C341.63169 45.9252 340.7396 46.81728 339.63914 46.81728 338.53865 46.81728 337.64659 45.9252 337.64659 44.82472 337.64659 43.72426 338.53865 42.83217 339.63914 42.83217 340.7396 42.83217 341.63169 43.72426 341.63169 44.82472ZM339.63914 44.82472"/>
<path transform="matrix(1,0,0,-1,115.378,115.378009)" d="M359.6668 13.17336C359.6668 14.27383 358.77473 15.16591 357.67427 15.16591 356.5738 15.16591 355.68174 14.27383 355.68174 13.17336 355.68174 12.07289 356.5738 11.1808 357.67427 11.1808 358.77473 11.1808 359.6668 12.07289 359.6668 13.17336ZM357.67427 13.17336" fill="#8080ff"/>
<path transform="matrix(1,0,0,-1,115.378,115.378009)" stroke-width=".3985" stroke-linecap="butt" stroke-miterlimit="10" stroke-linejoin="miter" fill="none" stroke="#8080ff" d="M359.6668 13.17336C359.6668 14.27383 358.77473 15.16591 357.67427 15.16591 356.5738 15.16591 355.68174 14.27383 355.68174 13.17336 355.68174 12.07289 356.5738 11.1808 357.67427 11.1808 358.77473 11.1808 359.6668 12.07289 359.6668 13.17336ZM357.67427 13.17336"/>
<path transform="matrix(1,0,0,-1,115.378,115.378009)" d="M309.81248-73.83765C309.81248-72.73717 308.9204-71.8451 307.81993-71.8451 306.71946-71.8451 305.8274-72.73717 305.8274-73.83765 305.8274-74.93811 306.71946-75.8302 307.81993-75.8302 308.9204-75.8302 309.81248-74.93811 309.81248-73.83765ZM307.81993-73.83765" fill="#8080ff"/>
<path transform="matrix(1,0,0,-1,115.378,115.378009)" stroke-width=".3985" stroke-linecap="butt" stroke-miterlimit="10" stroke-linejoin="miter" fill="none" stroke="#8080ff" d="M309.81248-73.83765C309.81248-72.73717 308.9204-71.8451 307.81993-71.8451 306.71946-71.8451 305.8274-72.73717 305.8274-73.83765 305.8274-74.93811 306.71946-75.8302 307.81993-75.8302 308.9204-75.8302 309.81248-74.93811 309.81248-73.83765ZM307.81993-73.83765"/>
<path transform="matrix(1,0,0,-1,115.378,115.378009)" d="M275.56935-44.7815C275.56935-43.68102 274.67729-42.78894 273.5768-42.78894 272.47633-42.78894 271.58424-43.68102 271.58424-44.7815 271.58424-45.88196 272.47633-46.77405 273.5768-46.77405 274.67729-46.77405 275.56935-45.88196 275.56935-44.7815ZM273.5768-44.7815" fill="#8080ff"/>
<path transform="matrix(1,0,0,-1,115.378,115.378009)" stroke-width=".3985" stroke-linecap="butt" stroke-miterlimit="10" stroke-linejoin="miter" fill="none" stroke="#8080ff" d="M275.56935-44.7815C275.56935-43.68102 274.67729-42.78894 273.5768-42.78894 272.47633-42.78894 271.58424-43.68102 271.58424-44.7815 271.58424-45.88196 272.47633-46.77405 273.5768-46.77405 274.67729-46.77405 275.56935-45.88196 275.56935-44.7815ZM273.5768-44.7815"/>
<path transform="matrix(1,0,0,-1,115.378,115.378009)" d="M282.5315-8.52963C282.5315-7.42917 281.63945-6.53708 280.53895-6.53708 279.43849-6.53708 278.5464-7.42917 278.5464-8.52963 278.5464-9.63011 279.43849-10.52219 280.53895-10.52219 281.63945-10.52219 282.5315-9.63011 282.5315-8.52963ZM280.53895-8.52963" fill="#8080ff"/>
<path transform="matrix(1,0,0,-1,115.378,115.378009)" stroke-width=".3985" stroke-linecap="butt" stroke-miterlimit="10" stroke-linejoin="miter" fill="none" stroke="#8080ff" d="M282.5315-8.52963C282.5315-7.42917 281.63945-6.53708 280.53895-6.53708 279.43849-6.53708 278.5464-7.42917 278.5464-8.52963 278.5464-9.63011 279.43849-10.52219 280.53895-10.52219 281.63945-10.52219 282.5315-9.63011 282.5315-8.52963ZM280.53895-8.52963"/>
<path transform="matrix(1,0,0,-1,115.378,115.378009)" d="M249.0773-40.02011C249.0773-38.91965 248.18521-38.02756 247.08475-38.02756 245.98427-38.02756 245.0922-38.91965 245.0922-40.02011 245.0922-41.12059 245.98427-42.01266 247.08475-42.01266 248.18521-42.01266 249.0773-41.12059 249.0773-40.02011ZM247.08475-40.02011" fill="#8080ff"/>
<path transform="matrix(1,0,0,-1,115.378,115.378009)" stroke-width=".3985" stroke-linecap="butt" stroke-miterlimit="10" stroke-linejoin="miter" fill="none" stroke="#8080ff" d="M249.0773-40.02011C249.0773-38.91965 248.18521-38.02756 247.08475-38.02756 245.98427-38.02756 245.0922-38.91965 245.0922-40.02011 245.0922-41.12059 245.98427-42.01266 247.08475-42.01266 248.18521-42.01266 249.0773-41.12059 249.0773-40.02011ZM247.08475-40.02011"/>
<path transform="matrix(1,0,0,-1,115.378,115.378009)" d="M294.6996 11.83072C294.6996 12.93118 293.8075 13.82327 292.70704 13.82327 291.60658 13.82327 290.71449 12.93118 290.71449 11.83072 290.71449 10.73026 291.60658 9.83817 292.70704 9.83817 293.8075 9.83817 294.6996 10.73026 294.6996 11.83072ZM292.70704 11.83072" fill="#8080ff"/>
<path transform="matrix(1,0,0,-1,115.378,115.378009)" stroke-width=".3985" stroke-linecap="butt" stroke-miterlimit="10" stroke-linejoin="miter" fill="none" stroke="#8080ff" d="M294.6996 11.83072C294.6996 12.93118 293.8075 13.82327 292.70704 13.82327 291.60658 13.82327 290.71449 12.93118 290.71449 11.83072 290.71449 10.73026 291.60658 9.83817 292.70704 9.83817 293.8075 9.83817 294.6996 10.73026 294.6996 11.83072ZM292.70704 11.83072"/>
<path transform="matrix(1,0,0,-1,115.378,115.378009)" d="M324.89595 6.06412C324.89595 7.1646 324.00386 8.05667 322.9034 8.05667 321.80293 8.05667 320.91084 7.1646 320.91084 6.06412 320.91084 4.96365 321.80293 4.07156 322.9034 4.07156 324.00386 4.07156 324.89595 4.96365 324.89595 6.06412ZM322.9034 6.06412" fill="#8080ff"/>
<path transform="matrix(1,0,0,-1,115.378,115.378009)" stroke-width=".3985" stroke-linecap="butt" stroke-miterlimit="10" stroke-linejoin="miter" fill="none" stroke="#8080ff" d="M324.89595 6.06412C324.89595 7.1646 324.00386 8.05667 322.9034 8.05667 321.80293 8.05667 320.91084 7.1646 320.91084 6.06412 320.91084 4.96365 321.80293 4.07156 322.9034 4.07156 324.00386 4.07156 324.89595 4.96365 324.89595 6.06412ZM322.9034 6.06412"/>
<path transform="matrix(1,0,0,-1,115.378,115.378009)" d="M317.16563 11.98991C317.16563 13.0904 316.27354 13.98247 315.17308 13.98247 314.0726 13.98247 313.1805 13.0904 313.1805 11.98991 313.1805 10.88945 314.0726 9.99736 315.17308 9.99736 316.27354 9.99736 317.16563 10.88945 317.16563 11.98991ZM315.17308 11.98991" fill="#8080ff"/>
<path transform="matrix(1,0,0,-1,115.378,115.378009)" stroke-width=".3985" stroke-linecap="butt" stroke-miterlimit="10" stroke-linejoin="miter" fill="none" stroke="#8080ff" d="M317.16563 11.98991C317.16563 13.0904 316.27354 13.98247 315.17308 13.98247 314.0726 13.98247 313.1805 13.0904 313.1805 11.98991 313.1805 10.88945 314.0726 9.99736 315.17308 9.99736 316.27354 9.99736 317.16563 10.88945 317.16563 11.98991ZM315.17308 11.98991"/>
<path transform="matrix(1,0,0,-1,115.378,115.378009)" d="M314.33854 47.03758C314.33854 48.13806 313.44648 49.03014 312.34599 49.03014 311.2455 49.03014 310.35343 48.13806 310.35343 47.03758 310.35343 45.93712 311.2455 45.04503 312.34599 45.04503 313.44648 45.04503 314.33854 45.93712 314.33854 47.03758ZM312.34599 47.03758" fill="#8080ff"/>
<path transform="matrix(1,0,0,-1,115.378,115.378009)" stroke-width=".3985" stroke-linecap="butt" stroke-miterlimit="10" stroke-linejoin="miter" fill="none" stroke="#8080ff" d="M314.33854 47.03758C314.33854 48.13806 313.44648 49.03014 312.34599 49.03014 311.2455 49.03014 310.35343 48.13806 310.35343 47.03758 310.35343 45.93712 311.2455 45.04503 312.34599 45.04503 313.44648 45.04503 314.33854 45.93712 314.33854 47.03758ZM312.34599 47.03758"/>
<path transform="matrix(1,0,0,-1,115.378,115.378009)" d="M317.1189 48.80235C317.1189 49.90283 316.22685 50.7949 315.12638 50.7949 314.0259 50.7949 313.1338 49.90283 313.1338 48.80235 313.1338 47.70189 314.0259 46.8098 315.12638 46.8098 316.22685 46.8098 317.1189 47.70189 317.1189 48.80235ZM315.12638 48.80235" fill="#8080ff"/>
<path transform="matrix(1,0,0,-1,115.378,115.378009)" stroke-width=".3985" stroke-linecap="butt" stroke-miterlimit="10" stroke-linejoin="miter" fill="none" stroke="#8080ff" d="M317.1189 48.80235C317.1189 49.90283 316.22685 50.7949 315.12638 50.7949 314.0259 50.7949 313.1338 49.90283 313.1338 48.80235 313.1338 47.70189 314.0259 46.8098 315.12638 46.8098 316.22685 46.8098 317.1189 47.70189 317.1189 48.80235ZM315.12638 48.80235"/>
<path transform="matrix(1,0,0,-1,115.378,115.378009)" d="M233.91248 27.64777C233.91248 28.74825 233.02039 29.64032 231.91992 29.64032 230.81945 29.64032 229.92737 28.74825 229.92737 27.64777 229.92737 26.5473 230.81945 25.65521 231.91992 25.65521 233.02039 25.65521 233.91248 26.5473 233.91248 27.64777ZM231.91992 27.64777" fill="#6666ff"/>
<path transform="matrix(1,0,0,-1,115.378,115.378009)" stroke-width=".3985" stroke-linecap="butt" stroke-miterlimit="10" stroke-linejoin="miter" fill="none" stroke="#6666ff" d="M233.91248 27.64777C233.91248 28.74825 233.02039 29.64032 231.91992 29.64032 230.81945 29.64032 229.92737 28.74825 229.92737 27.64777 229.92737 26.5473 230.81945 25.65521 231.91992 25.65521 233.02039 25.65521 233.91248 26.5473 233.91248 27.64777ZM231.91992 27.64777"/>
<path transform="matrix(1,0,0,-1,115.378,115.378009)" d="M300.8624 33.96979C300.8624 35.07025 299.9703 35.96234 298.86988 35.96234 297.76939 35.96234 296.8773 35.07025 296.8773 33.96979 296.8773 32.86931 297.76939 31.97723 298.86988 31.97723 299.9703 31.97723 300.8624 32.86931 300.8624 33.96979ZM298.86988 33.96979" fill="#8080ff"/>
<path transform="matrix(1,0,0,-1,115.378,115.378009)" stroke-width=".3985" stroke-linecap="butt" stroke-miterlimit="10" stroke-linejoin="miter" fill="none" stroke="#8080ff" d="M300.8624 33.96979C300.8624 35.07025 299.9703 35.96234 298.86988 35.96234 297.76939 35.96234 296.8773 35.07025 296.8773 33.96979 296.8773 32.86931 297.76939 31.97723 298.86988 31.97723 299.9703 31.97723 300.8624 32.86931 300.8624 33.96979ZM298.86988 33.96979"/>
<path transform="matrix(1,0,0,-1,115.378,115.378009)" d="M273.88249 12.39478C273.88249 13.49524 272.9904 14.38733 271.88993 14.38733 270.78947 14.38733 269.89738 13.49524 269.89738 12.39478 269.89738 11.2943 270.78947 10.40222 271.88993 10.40222 272.9904 10.40222 273.88249 11.2943 273.88249 12.39478ZM271.88993 12.39478" fill="#8080ff"/>
<path transform="matrix(1,0,0,-1,115.378,115.378009)" stroke-width=".3985" stroke-linecap="butt" stroke-miterlimit="10" stroke-linejoin="miter" fill="none" stroke="#8080ff" d="M273.88249 12.39478C273.88249 13.49524 272.9904 14.38733 271.88993 14.38733 270.78947 14.38733 269.89738 13.49524 269.89738 12.39478 269.89738 11.2943 270.78947 10.40222 271.88993 10.40222 272.9904 10.40222 273.88249 11.2943 273.88249 12.39478ZM271.88993 12.39478"/>
<path transform="matrix(1,0,0,-1,115.378,115.378009)" d="M296.4246 23.71344C296.4246 24.8139 295.5325 25.706 294.43205 25.706 293.33158 25.706 292.43949 24.8139 292.43949 23.71344 292.43949 22.61296 293.33158 21.72089 294.43205 21.72089 295.5325 21.72089 296.4246 22.61296 296.4246 23.71344ZM294.43205 23.71344" fill="#8080ff"/>
<path transform="matrix(1,0,0,-1,115.378,115.378009)" stroke-width=".3985" stroke-linecap="butt" stroke-miterlimit="10" stroke-linejoin="miter" fill="none" stroke="#8080ff" d="M296.4246 23.71344C296.4246 24.8139 295.5325 25.706 294.43205 25.706 293.33158 25.706 292.43949 24.8139 292.43949 23.71344 292.43949 22.61296 293.33158 21.72089 294.43205 21.72089 295.5325 21.72089 296.4246 22.61296 296.4246 23.71344ZM294.43205 23.71344"/>
<path transform="matrix(1,0,0,-1,115.378,115.378009)" d="M341.75453-28.80179C341.75453-27.70131 340.86244-26.80923 339.76197-26.80923 338.66148-26.80923 337.7694-27.70131 337.7694-28.80179 337.7694-29.90225 338.66148-30.79434 339.76197-30.79434 340.86244-30.79434 341.75453-29.90225 341.75453-28.80179ZM339.76197-28.80179" fill="#8080ff"/>
<path transform="matrix(1,0,0,-1,115.378,115.378009)" stroke-width=".3985" stroke-linecap="butt" stroke-miterlimit="10" stroke-linejoin="miter" fill="none" stroke="#8080ff" d="M341.75453-28.80179C341.75453-27.70131 340.86244-26.80923 339.76197-26.80923 338.66148-26.80923 337.7694-27.70131 337.7694-28.80179 337.7694-29.90225 338.66148-30.79434 339.76197-30.79434 340.86244-30.79434 341.75453-29.90225 341.75453-28.80179ZM339.76197-28.80179"/>
<path transform="matrix(1,0,0,-1,115.378,115.378009)" d="M295.2844-33.78639C295.2844-32.68591 294.3923-31.79384 293.2918-31.79384 292.19136-31.79384 291.29927-32.68591 291.29927-33.78639 291.29927-34.88686 292.19136-35.77895 293.2918-35.77895 294.3923-35.77895 295.2844-34.88686 295.2844-33.78639ZM293.2918-33.78639" fill="#8080ff"/>
<path transform="matrix(1,0,0,-1,115.378,115.378009)" stroke-width=".3985" stroke-linecap="butt" stroke-miterlimit="10" stroke-linejoin="miter" fill="none" stroke="#8080ff" d="M295.2844-33.78639C295.2844-32.68591 294.3923-31.79384 293.2918-31.79384 292.19136-31.79384 291.29927-32.68591 291.29927-33.78639 291.29927-34.88686 292.19136-35.77895 293.2918-35.77895 294.3923-35.77895 295.2844-34.88686 295.2844-33.78639ZM293.2918-33.78639"/>
<path transform="matrix(1,0,0,-1,115.378,115.378009)" d="M351.50105 0C351.50105 37.57405 321.0421 68.03297 283.46806 68.03297 245.894 68.03297 215.43508 37.57405 215.43508 0 215.43508-37.57405 245.894-68.03297 283.46806-68.03297 321.0421-68.03297 351.50105-37.57405 351.50105 0ZM283.46806 0" fill="#fffafa"/>
<path transform="matrix(1,0,0,-1,115.378,115.378009)" stroke-width=".3985" stroke-linecap="butt" stroke-dasharray="2.98883,2.98883" stroke-miterlimit="10" stroke-linejoin="miter" fill="none" stroke="#ffb3b3" d="M351.50105 0C351.50105 37.57405 321.0421 68.03297 283.46806 68.03297 245.894 68.03297 215.43508 37.57405 215.43508 0 215.43508-37.57405 245.894-68.03297 283.46806-68.03297 321.0421-68.03297 351.50105-37.57405 351.50105 0ZM283.46806 0"/>
<path transform="matrix(1,0,0,-1,115.378,115.378009)" stroke-width=".3985" stroke-linecap="butt" stroke-miterlimit="10" stroke-linejoin="miter" fill="none" stroke="#ff0000" d="M260.791 22.6771"/>
<text fill="#ff0000" xml:space="preserve" transform="matrix(1 0 -0 1 0 259.312)" font-size="9.9626" font-family="CMMI10" font-style="italic"><tspan y="-163.954" x="370.832">F</tspan></text>
<text fill="#ff0000" xml:space="preserve" transform="matrix(1 0 -0 1 0 259.312)" font-size="6.9738" font-family="CMMI7" font-style="italic"><tspan y="-162.45999" x="377.238">&#x03b5;</tspan></text>
<path transform="matrix(1,0,0,-1,115.378,115.378009)" stroke-width=".3985" stroke-linecap="butt" stroke-miterlimit="10" stroke-linejoin="miter" fill="none" stroke="#0000ff" d="M283.46806 90.71008"/>
<text fill="#0000ff" xml:space="preserve" transform="matrix(1 0 -0 1 0 259.312)" font-size="9.9626" font-family="CMSY10" font-style="italic"><tspan y="-232.429" x="396.352">&#x2022;</tspan></text>
<path transform="matrix(1,0,0,-1,115.378,115.378009)" stroke-width=".3985" stroke-linecap="butt" stroke-miterlimit="10" stroke-linejoin="miter" fill="none" stroke="#0000ff" d="M283.46806 92.97833"/>
<text fill="#0000ff" xml:space="preserve" transform="matrix(1 0 -0 1 0 259.312)" font-size="9.9626" font-family="CMMI10" font-style="italic"><tspan y="-234.255" x="402.362">X</tspan></text>
<text fill="#0000ff" xml:space="preserve" transform="matrix(1 0 -0 1 0 259.312)" font-size="6.9738" font-family="CMR7"><tspan y="-232.76001" x="410.616">1</tspan></text>
<path transform="matrix(1,0,0,-1,115.378,115.378009)" stroke-width=".3985" stroke-linecap="butt" stroke-miterlimit="10" stroke-linejoin="miter" fill="none" stroke="#000000" d="M283.46806 0"/>
<text xml:space="preserve" transform="matrix(1 0 -0 1 0 259.312)" font-size="9.9626" font-family="CMSY10" font-style="italic"><tspan y="-141.72" x="396.352">&#x2022;</tspan></text>
<path transform="matrix(1,0,0,-1,115.378,115.378009)" stroke-width="1.19553" stroke-linecap="butt" stroke-dasharray="1.19553,1.99255" stroke-miterlimit="10" stroke-linejoin="miter" fill="none" stroke="#00ff00" d="M215.43508 68.03297 260.791 79.37068H289.13774L340.16166 56.69359"/>
<path transform="matrix(1,0,0,-1,115.378,115.378009)" stroke-width="1.19553" stroke-linecap="butt" stroke-miterlimit="10" stroke-linejoin="miter" fill="none" stroke="#00ff00" d="M340.16166 56.69359 362.83876 22.6771 368.50849-45.35419 340.16166-90.71008 272.12867-79.37068 232.4442-56.69359 204.09738 0 215.43508 68.03297"/>
<path transform="matrix(1,0,0,-1,115.378,115.378009)" stroke-width=".3985" stroke-linecap="butt" stroke-miterlimit="10" stroke-linejoin="miter" fill="none" stroke="#0000ff" d="M204.09738 0"/>
<text fill="#0000ff" xml:space="preserve" transform="matrix(1 0 -0 1 0 259.312)" font-size="9.9626" font-family="CMSY10" font-style="italic"><tspan y="-141.72" x="316.982">&#x2022;</tspan></text>
<path transform="matrix(1,0,0,-1,115.378,115.378009)" stroke-width=".3985" stroke-linecap="butt" stroke-miterlimit="10" stroke-linejoin="miter" fill="none" stroke="#ff0000" d="M215.43508 68.03297"/>
<text fill="#ff0000" xml:space="preserve" transform="matrix(1 0 -0 1 0 259.312)" font-size="9.9626" font-family="CMSY10" font-style="italic"><tspan y="-209.752" x="328.32">&#x2022;</tspan></text>
<path transform="matrix(1,0,0,-1,115.378,115.378009)" stroke-width=".3985" stroke-linecap="butt" stroke-miterlimit="10" stroke-linejoin="miter" fill="none" stroke="#ff0000" d="M260.791 79.37068"/>
<text fill="#ff0000" xml:space="preserve" transform="matrix(1 0 -0 1 0 259.312)" font-size="9.9626" font-family="CMSY10" font-style="italic"><tspan y="-221.09" x="373.675">&#x2022;</tspan></text>
<path transform="matrix(1,0,0,-1,115.378,115.378009)" stroke-width=".3985" stroke-linecap="butt" stroke-miterlimit="10" stroke-linejoin="miter" fill="none" stroke="#ff0000" d="M289.13774 79.37068"/>
<text fill="#ff0000" xml:space="preserve" transform="matrix(1 0 -0 1 0 259.312)" font-size="9.9626" font-family="CMSY10" font-style="italic"><tspan y="-221.09" x="402.022">&#x2022;</tspan></text>
<path transform="matrix(1,0,0,-1,115.378,115.378009)" stroke-width=".3985" stroke-linecap="butt" stroke-miterlimit="10" stroke-linejoin="miter" fill="none" stroke="#ff0000" d="M340.16166 56.69359"/>
<text fill="#ff0000" xml:space="preserve" transform="matrix(1 0 -0 1 -.000030517579 259.312)" font-size="9.9626" font-family="CMSY10" font-style="italic"><tspan y="-198.413" x="453.045">&#x2022;</tspan></text>
<path transform="matrix(1,0,0,-1,115.378,115.378009)" stroke-width=".3985" stroke-linecap="butt" stroke-miterlimit="10" stroke-linejoin="miter" fill="none" stroke="#ff0000" d="M362.83876 22.6771"/>
<text fill="#ff0000" xml:space="preserve" transform="matrix(1 0 -0 1 0 259.312)" font-size="9.9626" font-family="CMSY10" font-style="italic"><tspan y="-164.397" x="475.722">&#x2022;</tspan></text>
<path transform="matrix(1,0,0,-1,115.378,115.378009)" stroke-width=".3985" stroke-linecap="butt" stroke-miterlimit="10" stroke-linejoin="miter" fill="none" stroke="#0000ff" d="M368.50849-45.35419"/>
<text fill="#0000ff" xml:space="preserve" transform="matrix(1 0 -0 1 0 259.312)" font-size="9.9626" font-family="CMSY10" font-style="italic"><tspan y="-96.367" x="481.391">&#x2022;</tspan></text>
<path transform="matrix(1,0,0,-1,115.378,115.378009)" stroke-width=".3985" stroke-linecap="butt" stroke-miterlimit="10" stroke-linejoin="miter" fill="none" stroke="#0000ff" d="M340.16166-90.71008"/>
<text fill="#0000ff" xml:space="preserve" transform="matrix(1 0 -0 1 -.000030517579 259.312)" font-size="9.9626" font-family="CMSY10" font-style="italic"><tspan y="-51.011" x="453.045">&#x2022;</tspan></text>
<path transform="matrix(1,0,0,-1,115.378,115.378009)" stroke-width=".3985" stroke-linecap="butt" stroke-miterlimit="10" stroke-linejoin="miter" fill="none" stroke="#0000ff" d="M272.12867-79.37068"/>
<text fill="#0000ff" xml:space="preserve" transform="matrix(1 0 -0 1 0 259.312)" font-size="9.9626" font-family="CMSY10" font-style="italic"><tspan y="-62.351" x="385.013">&#x2022;</tspan></text>
<path transform="matrix(1,0,0,-1,115.378,115.378009)" stroke-width=".3985" stroke-linecap="butt" stroke-miterlimit="10" stroke-linejoin="miter" fill="none" stroke="#0000ff" d="M232.4442-56.69359"/>
<text fill="#0000ff" xml:space="preserve" transform="matrix(1 0 -0 1 0 259.312)" font-size="9.9626" font-family="CMSY10" font-style="italic"><tspan y="-85.027" x="345.329">&#x2022;</tspan></text>
</g>
</svg>
