<svg xmlns="http://www.w3.org/2000/svg" xmlns:xlink="http://www.w3.org/1999/xlink" xmlns:inkscape="http://www.inkscape.org/namespaces/inkscape" version="1.1" width="137.788" height="147.439" viewBox="0 0 137.788 147.439">
<path transform="matrix(1,0,0,-1,68.894,58.883996)" d="M56.69362 0C56.69362 31.31142 31.31142 56.69362 0 56.69362-31.31142 56.69362-56.69362 31.31142-56.69362 0-56.69362-31.31142-31.31142-56.69362 0-56.69362 31.31142-56.69362 56.69362-31.31142 56.69362 0ZM0 0" fill="#dfdfdf"/>
<path transform="matrix(1,0,0,-1,68.894,58.883996)" stroke-width=".3985" stroke-linecap="butt" stroke-miterlimit="10" stroke-linejoin="miter" fill="none" stroke="#000000" d="M56.69362 0C56.69362 31.31142 31.31142 56.69362 0 56.69362-31.31142 56.69362-56.69362 31.31142-56.69362 0-56.69362-31.31142-31.31142-56.69362 0-56.69362 31.31142-56.69362 56.69362-31.31142 56.69362 0ZM0 0"/>
<path transform="matrix(1,0,0,-1,68.894,58.883996)" d="M45.35504 0C45.35504 25.04921 25.04921 45.35504 0 45.35504-25.04921 45.35504-45.35504 25.04921-45.35504 0-45.35504-25.04921-25.04921-45.35504 0-45.35504 25.04921-45.35504 45.35504-25.04921 45.35504 0ZM0 0" fill="#ffcccc"/>
<path transform="matrix(1,0,0,-1,68.894,58.883996)" stroke-width=".3985" stroke-linecap="butt" stroke-dasharray="2.98883,2.98883" stroke-miterlimit="10" stroke-linejoin="miter" fill="none" stroke="#ff0000" d="M45.35504 0C45.35504 25.04921 25.04921 45.35504 0 45.35504-25.04921 45.35504-45.35504 25.04921-45.35504 0-45.35504-25.04921-25.04921-45.35504 0-45.35504 25.04921-45.35504 45.35504-25.04921 45.35504 0ZM0 0"/>
<path transform="matrix(1,0,0,-1,68.894,58.883996)" stroke-width=".3985" stroke-linecap="butt" stroke-miterlimit="10" stroke-linejoin="miter" fill="none" stroke="#ff0000" d="M-22.6771 22.6771"/>
<text fill="#ff0000" xml:space="preserve" transform="matrix(1 0 -0 1 0 147.439)" font-size="9.9626" font-family="CMSS10"><tspan y="-108.519" x="41.25">F</tspan></text>
<text fill="#ff0000" xml:space="preserve" transform="matrix(1 0 -0 1 0 147.439)" font-size="6.9738" font-family="CMMI7" font-style="italic"><tspan y="-107.024997" x="46.923">&#x03b5;</tspan></text>
<path transform="matrix(1,0,0,-1,68.894,58.883996)" stroke-width=".3985" stroke-linecap="butt" stroke-miterlimit="10" stroke-linejoin="miter" fill="none" stroke="#000000" d="M0 0H45.35504"/>
<text xml:space="preserve" transform="matrix(1 0 -0 1 -.0000076293949 147.439)" font-size="8.9664" font-family="CMMI9" font-style="italic"><tspan y="-93.071" x="86.083">R</tspan></text>
<text xml:space="preserve" transform="matrix(1 0 -0 1 -.0000076293949 147.439)" font-size="5.9776" font-family="CMMI6" font-style="italic"><tspan y="-92.074" x="93.055">&#x03b5;</tspan></text>
<path transform="matrix(1,0,0,-1,68.894,58.883996)" stroke-width=".3985" stroke-linecap="butt" stroke-miterlimit="10" stroke-linejoin="miter" fill="none" stroke="#000000" d="M0 0"/>
<text xml:space="preserve" transform="matrix(1 0 -0 1 0 147.439)" font-size="9.9626" font-family="CMSY10" font-style="italic"><tspan y="-86.341" x="66.403">&#x2022;</tspan></text>
<path transform="matrix(1,0,0,-1,68.894,58.883996)" stroke-width=".3985" stroke-linecap="butt" stroke-miterlimit="10" stroke-linejoin="miter" fill="none" stroke="#000000" d="M0-56.69362"/>
<text xml:space="preserve" transform="matrix(1 0 -0 1 -.0000019073487 147.439)" font-size="9.9626" font-family="MSBM10"><tspan y="-20.232" x="16.273">P</tspan></text>
<text xml:space="preserve" transform="matrix(1 0 -0 1 -.0000019073487 147.439)" font-size="9.9626" font-family="CMR10"><tspan y="-20.232" x="22.361">(</tspan></text>
<text xml:space="preserve" transform="matrix(1 0 -0 1 -.0000019073487 147.439)" font-size="9.9626" font-family="CMMI10" font-style="italic"><tspan y="-20.232" x="26.236 39.14753">X/</tspan></text>
<text xml:space="preserve" transform="matrix(1 0 -0 1 -.0000019073487 147.439)" font-size="9.9626" font-family="CMSY10" font-style="italic"><tspan y="-20.232" x="38.038003">&#x2208;</tspan></text>
<text xml:space="preserve" transform="matrix(1 0 -0 1 -.0000019073487 147.439)" font-size="9.9626" font-family="CMSS10"><tspan y="-20.232" x="47.448">F</tspan></text>
<text xml:space="preserve" transform="matrix(1 0 -0 1 -.0000019073487 147.439)" font-size="6.9738" font-family="CMMI7" font-style="italic"><tspan y="-18.738" x="53.121004">&#x03b5;</tspan></text>
<text xml:space="preserve" transform="matrix(1 0 -0 1 -.0000019073487 147.439)" font-size="9.9626" font-family="CMR10"><tspan y="-20.232" x="57.383005 64.02805">)=</tspan></text>
<text xml:space="preserve" transform="matrix(1 0 -0 1 -.0000019073487 147.439)" font-size="9.9626" font-family="CMMI10" font-style="italic"><tspan y="-20.232" x="74.541">&#x00b5;</tspan></text>
<text xml:space="preserve" transform="matrix(1 0 -0 1 -.0000019073487 147.439)" font-size="9.9626" font-family="CMR10"><tspan y="-20.232" x="80.544">(</tspan></text>
<text xml:space="preserve" transform="matrix(1 0 -0 1 -.0000019073487 147.439)" font-size="9.9626" font-family="MSBM10"><tspan y="-20.232" x="84.418">B</tspan></text>
<text xml:space="preserve" transform="matrix(1 0 -0 1 -.0000019073487 147.439)" font-size="6.9738" font-family="CMR7"><tspan y="-23.848" x="91.06">2</tspan></text>
<text xml:space="preserve" transform="matrix(1 0 -0 1 -.0000019073487 147.439)" font-size="9.9626" font-family="MSBM10"><tspan y="-20.232" x="97.743">&#x2216;</tspan></text>
<text xml:space="preserve" transform="matrix(1 0 -0 1 -.0000019073487 147.439)" font-size="9.9626" font-family="CMSS10"><tspan y="-20.232" x="107.70599">F</tspan></text>
<text xml:space="preserve" transform="matrix(1 0 -0 1 -.0000019073487 147.439)" font-size="6.9738" font-family="CMMI7" font-style="italic"><tspan y="-18.738" x="113.37899">&#x03b5;</tspan></text>
<text xml:space="preserve" transform="matrix(1 0 -0 1 -.0000019073487 147.439)" font-size="9.9626" font-family="CMR10"><tspan y="-20.232" x="117.64099">)</tspan></text>
<path transform="matrix(1,0,0,-1,68.894,58.883996)" stroke-width=".3985" stroke-linecap="butt" stroke-miterlimit="10" stroke-linejoin="miter" fill="none" stroke="#000000" d="M0-70.86699"/>
<text xml:space="preserve" transform="matrix(1 0 -0 1 -.0000042915346 147.439)" font-size="9.9626" font-family="CMR10"><tspan y="-7.25" x="5.313 16.38145 24.680298 29.103693 34.08499 38.010259 43.549467 47.454805 55.205705 60.187005 66.55311 70.42856 75.967769 83.7087 88.69 92.595348 97.307659 105.88545 109.790798 114.21419 119.19549 121.96509 126.94639">=measureofthegrayregion</tspan></text>
</svg>
